<?xml version="1.0" encoding="us-ascii" standalone="no"?><svg xmlns="http://www.w3.org/2000/svg" xmlns:xlink="http://www.w3.org/1999/xlink" contentStyleType="text/css" height="1478px" preserveAspectRatio="none" style="width:2909px;height:1478px;background:#FFFFFF;" version="1.1" viewBox="0 0 2909 1478" width="2909px" zoomAndPan="magnify"><defs/><g><text fill="#000000" font-family="sans-serif" font-size="14" font-weight="bold" lengthAdjust="spacing" textLength="474" x="1210.5" y="25.1074">Calypsonet - calypsonet-terminal-reader-java-api - 1.3.+ (2023-05-22)</text><!--cluster readerApi--><g id="cluster_readerApi"><path d="M8.5,86.5311 L225.5,86.5311 A3.75,3.75 0 0 1 228,89.0311 L235,111.1522 L2899.5,111.1522 A2.5,2.5 0 0 1 2902,113.6522 L2902,1469.0311 A2.5,2.5 0 0 1 2899.5,1471.5311 L8.5,1471.5311 A2.5,2.5 0 0 1 6,1469.0311 L6,89.0311 A2.5,2.5 0 0 1 8.5,86.5311 " fill="#F8F9F9" style="stroke:#000000;stroke-width:1.5;"/><line style="stroke:#000000;stroke-width:1.5;" x1="6" x2="235" y1="111.1522" y2="111.1522"/><text fill="#000000" font-family="sans-serif" font-size="14" font-weight="bold" lengthAdjust="spacing" textLength="216" x="10" y="103.6385">org.calypsonet.terminal.reader</text></g><!--cluster readerSpi--><g id="cluster_readerSpi"><path d="M1554.5,903.5311 L1576.5,903.5311 A3.75,3.75 0 0 1 1579,906.0311 L1586,928.1522 L2578.5,928.1522 A2.5,2.5 0 0 1 2581,930.6522 L2581,1042.0311 A2.5,2.5 0 0 1 2578.5,1044.5311 L1554.5,1044.5311 A2.5,2.5 0 0 1 1552,1042.0311 L1552,906.0311 A2.5,2.5 0 0 1 1554.5,903.5311 " fill="#F2F3F4" style="stroke:#000000;stroke-width:1.5;"/><line style="stroke:#000000;stroke-width:1.5;" x1="1552" x2="1586" y1="928.1522" y2="928.1522"/><text fill="#000000" font-family="sans-serif" font-size="14" font-weight="bold" lengthAdjust="spacing" textLength="21" x="1556" y="920.6385">spi</text></g><!--cluster selectionApi--><g id="cluster_selectionApi"><path d="M32.5,131.5311 L98.5,131.5311 A3.75,3.75 0 0 1 101,134.0311 L108,156.1522 L1257.5,156.1522 A2.5,2.5 0 0 1 1260,158.6522 L1260,1075.0311 A2.5,2.5 0 0 1 1257.5,1077.5311 L32.5,1077.5311 A2.5,2.5 0 0 1 30,1075.0311 L30,134.0311 A2.5,2.5 0 0 1 32.5,131.5311 " fill="#F2F3F4" style="stroke:#000000;stroke-width:1.5;"/><line style="stroke:#000000;stroke-width:1.5;" x1="30" x2="108" y1="156.1522" y2="156.1522"/><text fill="#000000" font-family="sans-serif" font-size="14" font-weight="bold" lengthAdjust="spacing" textLength="65" x="34" y="148.6385">selection</text></g><!--cluster selectionSpi--><g id="cluster_selectionSpi"><path d="M56.5,894.5311 L78.5,894.5311 A3.75,3.75 0 0 1 81,897.0311 L88,919.1522 L522.5,919.1522 A2.5,2.5 0 0 1 525,921.6522 L525,1051.0311 A2.5,2.5 0 0 1 522.5,1053.5311 L56.5,1053.5311 A2.5,2.5 0 0 1 54,1051.0311 L54,897.0311 A2.5,2.5 0 0 1 56.5,894.5311 " fill="#E5E7E9" style="stroke:#000000;stroke-width:1.5;"/><line style="stroke:#000000;stroke-width:1.5;" x1="54" x2="88" y1="919.1522" y2="919.1522"/><text fill="#000000" font-family="sans-serif" font-size="14" font-weight="bold" lengthAdjust="spacing" textLength="21" x="58" y="911.6385">spi</text></g><!--class ApiProperties--><g id="elem_ApiProperties"><rect codeLine="56" fill="#FEFECE" height="66.6211" id="ApiProperties" rx="2.5" ry="2.5" style="stroke:#D4AC0D;stroke-width:2.0;" width="209" x="1501.5" y="319.5311"/><ellipse cx="1516.5" cy="335.5311" fill="#ADD1B2" rx="11" ry="11" style="stroke:#181818;stroke-width:1.0;"/><path d="M1519.2656,331.4061 Q1519.4219,331.1873 1519.6094,331.078 Q1519.7969,330.9686 1520.0156,330.9686 Q1520.3906,330.9686 1520.625,331.2342 Q1520.8594,331.4842 1520.8594,332.0936 L1520.8594,333.5467 Q1520.8594,334.1561 1520.625,334.4217 Q1520.3906,334.6873 1520.0156,334.6873 Q1519.6719,334.6873 1519.4688,334.4842 Q1519.2656,334.2967 1519.1563,333.7811 Q1519.1094,333.4217 1518.9219,333.2342 Q1518.5938,332.8592 1517.9844,332.6405 Q1517.375,332.4217 1516.75,332.4217 Q1515.9844,332.4217 1515.3438,332.7498 Q1514.7188,333.078 1514.2188,333.828 Q1513.7344,334.578 1513.7344,335.6092 L1513.7344,336.703 Q1513.7344,337.9373 1514.625,338.7655 Q1515.5156,339.578 1517.1094,339.578 Q1518.0469,339.578 1518.7031,339.328 Q1519.0938,339.1717 1519.5156,338.7342 Q1519.7813,338.4686 1519.9219,338.3905 Q1520.0781,338.3123 1520.2813,338.3123 Q1520.6094,338.3123 1520.8594,338.578 Q1521.125,338.828 1521.125,339.1717 Q1521.125,339.5155 1520.7813,339.9217 Q1520.2813,340.4998 1519.4844,340.828 Q1518.4063,341.2811 1517.1094,341.2811 Q1515.5938,341.2811 1514.3906,340.6561 Q1513.4063,340.1561 1512.7188,339.0936 Q1512.0313,338.0155 1512.0313,336.7342 L1512.0313,335.578 Q1512.0313,334.2498 1512.6406,333.1092 Q1513.2656,331.953 1514.3594,331.3436 Q1515.4531,330.7186 1516.6875,330.7186 Q1517.4219,330.7186 1518.0625,330.8905 Q1518.7188,331.0467 1519.2656,331.4061 Z " fill="#000000"/><ellipse cx="1535.5" cy="335.0311" fill="#84BE84" rx="3" ry="3" style="stroke:#038048;stroke-width:1.0;"/><text fill="#000000" font-family="sans-serif" font-size="14" font-weight="bold" lengthAdjust="spacing" textLength="30" x="1541.5" y="341.328">final</text><text fill="#000000" font-family="sans-serif" font-size="14" lengthAdjust="spacing" textLength="132" x="1575.5" y="341.328">ReaderApiProperties</text><line style="stroke:#D4AC0D;stroke-width:2.0;" x1="1502.5" x2="1709.5" y1="351.5311" y2="351.5311"/><ellipse cx="1512.5" cy="366.3416" fill="none" rx="3" ry="3" style="stroke:#038048;stroke-width:1.0;"/><text fill="#000000" font-family="sans-serif" font-size="14" font-weight="bold" lengthAdjust="spacing" text-decoration="underline" textLength="30" x="1521.5" y="370.6385">final</text><text fill="#000000" font-family="sans-serif" font-size="14" lengthAdjust="spacing" text-decoration="underline" textLength="101" x="1555.5" y="370.6385">String VERSION</text><line style="stroke:#D4AC0D;stroke-width:2.0;" x1="1502.5" x2="1709.5" y1="378.1522" y2="378.1522"/></g><!--class CardReader--><g id="elem_CardReader"><rect codeLine="59" fill="#FEFECE" height="103.8633" id="CardReader" rx="2.5" ry="2.5" style="stroke:#D4AC0D;stroke-width:2.0;" width="185" x="1803.5" y="301.0311"/><ellipse cx="1847.3" cy="317.0311" fill="#B4A7E5" rx="11" ry="11" style="stroke:#181818;stroke-width:1.0;"/><path d="M1848.2531,313.6717 L1848.2531,320.328 L1849.9719,320.328 Q1850.5813,320.328 1850.8469,320.5623 Q1851.1125,320.7967 1851.1125,321.1873 Q1851.1125,321.5623 1850.8469,321.7967 Q1850.5813,322.0311 1849.9719,322.0311 L1844.8313,322.0311 Q1844.2219,322.0311 1843.9563,321.7967 Q1843.6906,321.5623 1843.6906,321.1717 Q1843.6906,320.7967 1843.9563,320.5623 Q1844.2219,320.328 1844.8313,320.328 L1846.55,320.328 L1846.55,313.6717 L1844.8313,313.6717 Q1844.2219,313.6717 1843.9563,313.4373 Q1843.6906,313.203 1843.6906,312.8123 Q1843.6906,312.4373 1843.9563,312.203 Q1844.2219,311.9686 1844.8313,311.9686 L1849.9719,311.9686 Q1850.5813,311.9686 1850.8469,312.203 Q1851.1125,312.4373 1851.1125,312.8123 Q1851.1125,313.203 1850.8469,313.4373 Q1850.5813,313.6717 1849.9719,313.6717 L1848.2531,313.6717 Z " fill="#000000"/><ellipse cx="1872.7" cy="316.5311" fill="#84BE84" rx="3" ry="3" style="stroke:#038048;stroke-width:1.0;"/><text fill="#000000" font-family="sans-serif" font-size="14" font-style="italic" lengthAdjust="spacing" textLength="78" x="1878.7" y="322.828">CardReader</text><line style="stroke:#D4AC0D;stroke-width:2.0;" x1="1804.5" x2="1987.5" y1="333.0311" y2="333.0311"/><line style="stroke:#D4AC0D;stroke-width:2.0;" x1="1804.5" x2="1987.5" y1="341.0311" y2="341.0311"/><ellipse cx="1814.5" cy="355.8416" fill="#84BE84" rx="3" ry="3" style="stroke:#038048;stroke-width:1.0;"/><text fill="#000000" font-family="sans-serif" font-size="14" lengthAdjust="spacing" textLength="111" x="1823.5" y="360.1385">String getName ()</text><ellipse cx="1814.5" cy="374.4627" fill="#84BE84" rx="3" ry="3" style="stroke:#038048;stroke-width:1.0;"/><text fill="#000000" font-family="sans-serif" font-size="14" lengthAdjust="spacing" textLength="153" x="1823.5" y="378.7596">boolean isContactless ()</text><ellipse cx="1814.5" cy="393.0838" fill="#84BE84" rx="3" ry="3" style="stroke:#038048;stroke-width:1.0;"/><text fill="#000000" font-family="sans-serif" font-size="14" lengthAdjust="spacing" textLength="159" x="1823.5" y="397.3807">boolean isCardPresent ()</text></g><!--class ConfigurableCardReader--><g id="elem_ConfigurableCardReader"><rect codeLine="64" fill="#FEFECE" height="103.8633" id="ConfigurableCardReader" rx="2.5" ry="2.5" style="stroke:#D4AC0D;stroke-width:2.0;" width="528" x="2350" y="660.5311"/><ellipse cx="2524.75" cy="676.5311" fill="#B4A7E5" rx="11" ry="11" style="stroke:#181818;stroke-width:1.0;"/><path d="M2525.7031,673.1717 L2525.7031,679.828 L2527.4219,679.828 Q2528.0313,679.828 2528.2969,680.0623 Q2528.5625,680.2967 2528.5625,680.6873 Q2528.5625,681.0623 2528.2969,681.2967 Q2528.0313,681.5311 2527.4219,681.5311 L2522.2813,681.5311 Q2521.6719,681.5311 2521.4063,681.2967 Q2521.1406,681.0623 2521.1406,680.6717 Q2521.1406,680.2967 2521.4063,680.0623 Q2521.6719,679.828 2522.2813,679.828 L2524,679.828 L2524,673.1717 L2522.2813,673.1717 Q2521.6719,673.1717 2521.4063,672.9373 Q2521.1406,672.703 2521.1406,672.3123 Q2521.1406,671.9373 2521.4063,671.703 Q2521.6719,671.4686 2522.2813,671.4686 L2527.4219,671.4686 Q2528.0313,671.4686 2528.2969,671.703 Q2528.5625,671.9373 2528.5625,672.3123 Q2528.5625,672.703 2528.2969,672.9373 Q2528.0313,673.1717 2527.4219,673.1717 L2525.7031,673.1717 Z " fill="#000000"/><ellipse cx="2550.25" cy="676.0311" fill="#84BE84" rx="3" ry="3" style="stroke:#038048;stroke-width:1.0;"/><text fill="#000000" font-family="sans-serif" font-size="14" font-style="italic" lengthAdjust="spacing" textLength="159" x="2556.25" y="682.328">ConfigurableCardReader</text><line style="stroke:#D4AC0D;stroke-width:2.0;" x1="2351" x2="2877" y1="692.5311" y2="692.5311"/><line style="stroke:#D4AC0D;stroke-width:2.0;" x1="2351" x2="2877" y1="700.5311" y2="700.5311"/><ellipse cx="2361" cy="715.3416" fill="#84BE84" rx="3" ry="3" style="stroke:#038048;stroke-width:1.0;"/><text fill="#000000" font-family="sans-serif" font-size="14" lengthAdjust="spacing" textLength="502" x="2370" y="719.6385">void activateProtocol (String logicalProtocolName, String physicalProtocolName)</text><ellipse cx="2361" cy="733.9627" fill="#84BE84" rx="3" ry="3" style="stroke:#038048;stroke-width:1.0;"/><text fill="#000000" font-family="sans-serif" font-size="14" lengthAdjust="spacing" textLength="330" x="2370" y="738.2596">void deactivateProtocol (String logicalProtocolName)</text><ellipse cx="2361" cy="752.5838" fill="#84BE84" rx="3" ry="3" style="stroke:#038048;stroke-width:1.0;"/><text fill="#000000" font-family="sans-serif" font-size="14" lengthAdjust="spacing" textLength="175" x="2370" y="756.8807">String getCurrentProtocol ()</text></g><!--class ObservableCardReader--><g id="elem_ObservableCardReader"><rect codeLine="69" fill="#FEFECE" height="234.2109" id="ObservableCardReader" rx="2.5" ry="2.5" style="stroke:#D4AC0D;stroke-width:2.0;" width="721" x="1593.5" y="595.5311"/><ellipse cx="1869.25" cy="611.5311" fill="#B4A7E5" rx="11" ry="11" style="stroke:#181818;stroke-width:1.0;"/><path d="M1870.2031,608.1717 L1870.2031,614.828 L1871.9219,614.828 Q1872.5313,614.828 1872.7969,615.0623 Q1873.0625,615.2967 1873.0625,615.6873 Q1873.0625,616.0623 1872.7969,616.2967 Q1872.5313,616.5311 1871.9219,616.5311 L1866.7813,616.5311 Q1866.1719,616.5311 1865.9063,616.2967 Q1865.6406,616.0623 1865.6406,615.6717 Q1865.6406,615.2967 1865.9063,615.0623 Q1866.1719,614.828 1866.7813,614.828 L1868.5,614.828 L1868.5,608.1717 L1866.7813,608.1717 Q1866.1719,608.1717 1865.9063,607.9373 Q1865.6406,607.703 1865.6406,607.3123 Q1865.6406,606.9373 1865.9063,606.703 Q1866.1719,606.4686 1866.7813,606.4686 L1871.9219,606.4686 Q1872.5313,606.4686 1872.7969,606.703 Q1873.0625,606.9373 1873.0625,607.3123 Q1873.0625,607.703 1872.7969,607.9373 Q1872.5313,608.1717 1871.9219,608.1717 L1870.2031,608.1717 Z " fill="#000000"/><ellipse cx="1894.75" cy="611.0311" fill="#84BE84" rx="3" ry="3" style="stroke:#038048;stroke-width:1.0;"/><text fill="#000000" font-family="sans-serif" font-size="14" font-style="italic" lengthAdjust="spacing" textLength="150" x="1900.75" y="617.328">ObservableCardReader</text><line style="stroke:#D4AC0D;stroke-width:2.0;" x1="1594.5" x2="2313.5" y1="627.5311" y2="627.5311"/><line style="stroke:#D4AC0D;stroke-width:2.0;" x1="1594.5" x2="2313.5" y1="635.5311" y2="635.5311"/><ellipse cx="1604.5" cy="650.3416" fill="#84BE84" rx="3" ry="3" style="stroke:#038048;stroke-width:1.0;"/><text fill="#000000" font-family="sans-serif" font-size="14" lengthAdjust="spacing" textLength="695" x="1613.5" y="654.6385">void setReaderObservationExceptionHandler (CardReaderObservationExceptionHandlerSpi exceptionHandler)</text><text fill="#000000" font-family="sans-serif" font-size="14" lengthAdjust="spacing" textLength="4" x="1613.5" y="673.2596">&#160;</text><ellipse cx="1604.5" cy="687.5838" fill="#84BE84" rx="3" ry="3" style="stroke:#038048;stroke-width:1.0;"/><text fill="#000000" font-family="sans-serif" font-size="14" lengthAdjust="spacing" textLength="344" x="1613.5" y="691.8807">void addObserver (CardReaderObserverSpi observer)</text><ellipse cx="1604.5" cy="706.2049" fill="#84BE84" rx="3" ry="3" style="stroke:#038048;stroke-width:1.0;"/><text fill="#000000" font-family="sans-serif" font-size="14" lengthAdjust="spacing" textLength="367" x="1613.5" y="710.5018">void removeObserver (CardReaderObserverSpi observer)</text><ellipse cx="1604.5" cy="724.826" fill="#84BE84" rx="3" ry="3" style="stroke:#038048;stroke-width:1.0;"/><text fill="#000000" font-family="sans-serif" font-size="14" lengthAdjust="spacing" textLength="141" x="1613.5" y="729.1229">void clearObservers ()</text><ellipse cx="1604.5" cy="743.4471" fill="#84BE84" rx="3" ry="3" style="stroke:#038048;stroke-width:1.0;"/><text fill="#000000" font-family="sans-serif" font-size="14" lengthAdjust="spacing" textLength="134" x="1613.5" y="747.744">int countObservers ()</text><text fill="#000000" font-family="sans-serif" font-size="14" lengthAdjust="spacing" textLength="4" x="1613.5" y="766.3651">&#160;</text><ellipse cx="1604.5" cy="780.6893" fill="#84BE84" rx="3" ry="3" style="stroke:#038048;stroke-width:1.0;"/><text fill="#000000" font-family="sans-serif" font-size="14" lengthAdjust="spacing" textLength="355" x="1613.5" y="784.9862">void startCardDetection (DetectionMode detectionMode)</text><ellipse cx="1604.5" cy="799.3104" fill="#84BE84" rx="3" ry="3" style="stroke:#038048;stroke-width:1.0;"/><text fill="#000000" font-family="sans-serif" font-size="14" lengthAdjust="spacing" textLength="162" x="1613.5" y="803.6073">void stopCardDetection ()</text><ellipse cx="1604.5" cy="817.9315" fill="#84BE84" rx="3" ry="3" style="stroke:#038048;stroke-width:1.0;"/><text fill="#000000" font-family="sans-serif" font-size="14" lengthAdjust="spacing" textLength="188" x="1613.5" y="822.2284">void finalizeCardProcessing ()</text></g><!--class DetectionMode--><g id="elem_DetectionMode"><rect codeLine="81" fill="#FEFECE" height="85.2422" id="DetectionMode" rx="2.5" ry="2.5" style="stroke:#D4AC0D;stroke-width:2.0;" width="138" x="1385" y="670.0311"/><ellipse cx="1400" cy="686.0311" fill="#EB937F" rx="11" ry="11" style="stroke:#181818;stroke-width:1.0;"/><path d="M1398.8594,686.828 L1398.8594,689.328 L1403.1875,689.328 L1403.1875,688.4061 Q1403.1875,687.7967 1403.4219,687.5311 Q1403.6719,687.2655 1404.0469,687.2655 Q1404.4219,687.2655 1404.6563,687.5311 Q1404.8906,687.7967 1404.8906,688.4061 L1404.8906,691.0311 L1396.8906,691.0311 Q1396.2656,691.0311 1396,690.7967 Q1395.75,690.5623 1395.75,690.1717 Q1395.75,689.7967 1396.0156,689.5623 Q1396.2813,689.328 1396.8906,689.328 L1397.1563,689.328 L1397.1563,682.6717 L1396.8906,682.6717 Q1396.2656,682.6717 1396,682.4373 Q1395.75,682.203 1395.75,681.8123 Q1395.75,681.4373 1396,681.203 Q1396.2656,680.9686 1396.8906,680.9686 L1404.5156,680.9686 L1404.5156,683.5623 Q1404.5156,684.1717 1404.2813,684.4373 Q1404.0625,684.6873 1403.6719,684.6873 Q1403.2969,684.6873 1403.0625,684.4373 Q1402.8281,684.1717 1402.8281,683.5623 L1402.8281,682.6717 L1398.8594,682.6717 L1398.8594,685.1248 L1400.3438,685.1248 Q1400.3438,684.4686 1400.4688,684.2811 Q1400.7344,683.8748 1401.2031,683.8748 Q1401.5781,683.8748 1401.8125,684.1405 Q1402.0469,684.3905 1402.0469,684.9998 L1402.0469,686.9686 Q1402.0469,687.5155 1401.9219,687.703 Q1401.6563,688.0936 1401.2031,688.0936 Q1400.7344,688.0936 1400.4688,687.6873 Q1400.3438,687.4998 1400.3438,686.828 L1398.8594,686.828 Z " fill="#000000"/><ellipse cx="1419" cy="685.5311" fill="#84BE84" rx="3" ry="3" style="stroke:#038048;stroke-width:1.0;"/><text fill="#000000" font-family="sans-serif" font-size="14" lengthAdjust="spacing" textLength="95" x="1425" y="691.828">DetectionMode</text><line style="stroke:#D4AC0D;stroke-width:2.0;" x1="1386" x2="1522" y1="702.0311" y2="702.0311"/><text fill="#000000" font-family="sans-serif" font-size="14" lengthAdjust="spacing" textLength="78" x="1391" y="721.1385">REPEATING</text><text fill="#000000" font-family="sans-serif" font-size="14" lengthAdjust="spacing" textLength="87" x="1391" y="739.7596">SINGLESHOT</text><line style="stroke:#D4AC0D;stroke-width:2.0;" x1="1386" x2="1522" y1="747.2733" y2="747.2733"/></g><!--class NotificationMode--><g id="elem_NotificationMode"><rect codeLine="85" fill="#FEFECE" height="85.2422" id="NotificationMode" rx="2.5" ry="2.5" style="stroke:#D4AC0D;stroke-width:2.0;" width="147" x="1385.5" y="952.5311"/><ellipse cx="1400.5" cy="968.5311" fill="#EB937F" rx="11" ry="11" style="stroke:#181818;stroke-width:1.0;"/><path d="M1399.3594,969.328 L1399.3594,971.828 L1403.6875,971.828 L1403.6875,970.9061 Q1403.6875,970.2967 1403.9219,970.0311 Q1404.1719,969.7655 1404.5469,969.7655 Q1404.9219,969.7655 1405.1563,970.0311 Q1405.3906,970.2967 1405.3906,970.9061 L1405.3906,973.5311 L1397.3906,973.5311 Q1396.7656,973.5311 1396.5,973.2967 Q1396.25,973.0623 1396.25,972.6717 Q1396.25,972.2967 1396.5156,972.0623 Q1396.7813,971.828 1397.3906,971.828 L1397.6563,971.828 L1397.6563,965.1717 L1397.3906,965.1717 Q1396.7656,965.1717 1396.5,964.9373 Q1396.25,964.703 1396.25,964.3123 Q1396.25,963.9373 1396.5,963.703 Q1396.7656,963.4686 1397.3906,963.4686 L1405.0156,963.4686 L1405.0156,966.0623 Q1405.0156,966.6717 1404.7813,966.9373 Q1404.5625,967.1873 1404.1719,967.1873 Q1403.7969,967.1873 1403.5625,966.9373 Q1403.3281,966.6717 1403.3281,966.0623 L1403.3281,965.1717 L1399.3594,965.1717 L1399.3594,967.6248 L1400.8438,967.6248 Q1400.8438,966.9686 1400.9688,966.7811 Q1401.2344,966.3748 1401.7031,966.3748 Q1402.0781,966.3748 1402.3125,966.6405 Q1402.5469,966.8905 1402.5469,967.4998 L1402.5469,969.4686 Q1402.5469,970.0155 1402.4219,970.203 Q1402.1563,970.5936 1401.7031,970.5936 Q1401.2344,970.5936 1400.9688,970.1873 Q1400.8438,969.9998 1400.8438,969.328 L1399.3594,969.328 Z " fill="#000000"/><ellipse cx="1419.5" cy="968.0311" fill="#84BE84" rx="3" ry="3" style="stroke:#038048;stroke-width:1.0;"/><text fill="#000000" font-family="sans-serif" font-size="14" lengthAdjust="spacing" textLength="104" x="1425.5" y="974.328">NotificationMode</text><line style="stroke:#D4AC0D;stroke-width:2.0;" x1="1386.5" x2="1531.5" y1="984.5311" y2="984.5311"/><text fill="#000000" font-family="sans-serif" font-size="14" lengthAdjust="spacing" textLength="57" x="1391.5" y="1003.6385">ALWAYS</text><text fill="#000000" font-family="sans-serif" font-size="14" lengthAdjust="spacing" textLength="112" x="1391.5" y="1022.2596">MATCHED_ONLY</text><line style="stroke:#D4AC0D;stroke-width:2.0;" x1="1386.5" x2="1531.5" y1="1029.7733" y2="1029.7733"/></g><!--class CardReaderEvent--><g id="elem_CardReaderEvent"><rect codeLine="89" fill="#FEFECE" height="103.8633" id="CardReaderEvent" rx="2.5" ry="2.5" style="stroke:#D4AC0D;stroke-width:2.0;" width="518" x="1416" y="1142.5311"/><ellipse cx="1608.75" cy="1158.5311" fill="#B4A7E5" rx="11" ry="11" style="stroke:#181818;stroke-width:1.0;"/><path d="M1609.7031,1155.1717 L1609.7031,1161.828 L1611.4219,1161.828 Q1612.0313,1161.828 1612.2969,1162.0623 Q1612.5625,1162.2967 1612.5625,1162.6873 Q1612.5625,1163.0623 1612.2969,1163.2967 Q1612.0313,1163.5311 1611.4219,1163.5311 L1606.2813,1163.5311 Q1605.6719,1163.5311 1605.4063,1163.2967 Q1605.1406,1163.0623 1605.1406,1162.6717 Q1605.1406,1162.2967 1605.4063,1162.0623 Q1605.6719,1161.828 1606.2813,1161.828 L1608,1161.828 L1608,1155.1717 L1606.2813,1155.1717 Q1605.6719,1155.1717 1605.4063,1154.9373 Q1605.1406,1154.703 1605.1406,1154.3123 Q1605.1406,1153.9373 1605.4063,1153.703 Q1605.6719,1153.4686 1606.2813,1153.4686 L1611.4219,1153.4686 Q1612.0313,1153.4686 1612.2969,1153.703 Q1612.5625,1153.9373 1612.5625,1154.3123 Q1612.5625,1154.703 1612.2969,1154.9373 Q1612.0313,1155.1717 1611.4219,1155.1717 L1609.7031,1155.1717 Z " fill="#000000"/><ellipse cx="1634.25" cy="1158.0311" fill="#84BE84" rx="3" ry="3" style="stroke:#038048;stroke-width:1.0;"/><text fill="#000000" font-family="sans-serif" font-size="14" font-style="italic" lengthAdjust="spacing" textLength="113" x="1640.25" y="1164.328">CardReaderEvent</text><line style="stroke:#D4AC0D;stroke-width:2.0;" x1="1417" x2="1933" y1="1174.5311" y2="1174.5311"/><line style="stroke:#D4AC0D;stroke-width:2.0;" x1="1417" x2="1933" y1="1182.5311" y2="1182.5311"/><ellipse cx="1427" cy="1197.3416" fill="#84BE84" rx="3" ry="3" style="stroke:#038048;stroke-width:1.0;"/><text fill="#000000" font-family="sans-serif" font-size="14" lengthAdjust="spacing" textLength="158" x="1436" y="1201.6385">String getReaderName ()</text><ellipse cx="1427" cy="1215.9627" fill="#84BE84" rx="3" ry="3" style="stroke:#038048;stroke-width:1.0;"/><text fill="#000000" font-family="sans-serif" font-size="14" lengthAdjust="spacing" textLength="102" x="1436" y="1220.2596">Type getType ()</text><ellipse cx="1427" cy="1234.5838" fill="#84BE84" rx="3" ry="3" style="stroke:#038048;stroke-width:1.0;"/><text fill="#000000" font-family="sans-serif" font-size="14" lengthAdjust="spacing" textLength="492" x="1436" y="1238.8807">ScheduledCardSelectionsResponse getScheduledCardSelectionsResponse ()</text></g><!--class CardReaderEventType--><g id="elem_CardReaderEventType"><rect codeLine="94" fill="#FEFECE" height="122.4844" id="CardReaderEventType" rx="2.5" ry="2.5" style="stroke:#D4AC0D;stroke-width:2.0;" width="128" x="1610" y="1325.5311"/><ellipse cx="1648.85" cy="1341.5311" fill="#EB937F" rx="11" ry="11" style="stroke:#181818;stroke-width:1.0;"/><path d="M1647.7094,1342.328 L1647.7094,1344.828 L1652.0375,1344.828 L1652.0375,1343.9061 Q1652.0375,1343.2967 1652.2719,1343.0311 Q1652.5219,1342.7655 1652.8969,1342.7655 Q1653.2719,1342.7655 1653.5063,1343.0311 Q1653.7406,1343.2967 1653.7406,1343.9061 L1653.7406,1346.5311 L1645.7406,1346.5311 Q1645.1156,1346.5311 1644.85,1346.2967 Q1644.6,1346.0623 1644.6,1345.6717 Q1644.6,1345.2967 1644.8656,1345.0623 Q1645.1313,1344.828 1645.7406,1344.828 L1646.0063,1344.828 L1646.0063,1338.1717 L1645.7406,1338.1717 Q1645.1156,1338.1717 1644.85,1337.9373 Q1644.6,1337.703 1644.6,1337.3123 Q1644.6,1336.9373 1644.85,1336.703 Q1645.1156,1336.4686 1645.7406,1336.4686 L1653.3656,1336.4686 L1653.3656,1339.0623 Q1653.3656,1339.6717 1653.1313,1339.9373 Q1652.9125,1340.1873 1652.5219,1340.1873 Q1652.1469,1340.1873 1651.9125,1339.9373 Q1651.6781,1339.6717 1651.6781,1339.0623 L1651.6781,1338.1717 L1647.7094,1338.1717 L1647.7094,1340.6248 L1649.1938,1340.6248 Q1649.1938,1339.9686 1649.3188,1339.7811 Q1649.5844,1339.3748 1650.0531,1339.3748 Q1650.4281,1339.3748 1650.6625,1339.6405 Q1650.8969,1339.8905 1650.8969,1340.4998 L1650.8969,1342.4686 Q1650.8969,1343.0155 1650.7719,1343.203 Q1650.5063,1343.5936 1650.0531,1343.5936 Q1649.5844,1343.5936 1649.3188,1343.1873 Q1649.1938,1342.9998 1649.1938,1342.328 L1647.7094,1342.328 Z " fill="#000000"/><ellipse cx="1673.15" cy="1341.0311" fill="#84BE84" rx="3" ry="3" style="stroke:#038048;stroke-width:1.0;"/><text fill="#000000" font-family="sans-serif" font-size="14" lengthAdjust="spacing" textLength="32" x="1679.15" y="1347.328">Type</text><line style="stroke:#D4AC0D;stroke-width:2.0;" x1="1611" x2="1737" y1="1357.5311" y2="1357.5311"/><text fill="#000000" font-family="sans-serif" font-size="14" lengthAdjust="spacing" textLength="115" x="1616" y="1376.6385">CARD_INSERTED</text><text fill="#000000" font-family="sans-serif" font-size="14" lengthAdjust="spacing" textLength="114" x="1616" y="1395.2596">CARD_MATCHED</text><text fill="#000000" font-family="sans-serif" font-size="14" lengthAdjust="spacing" textLength="116" x="1616" y="1413.8807">CARD_REMOVED</text><text fill="#000000" font-family="sans-serif" font-size="14" lengthAdjust="spacing" textLength="91" x="1616" y="1432.5018">UNAVAILABLE</text><line style="stroke:#D4AC0D;stroke-width:2.0;" x1="1611" x2="1737" y1="1440.0155" y2="1440.0155"/></g><!--class ReaderCommunicationException--><g id="elem_ReaderCommunicationException"><rect codeLine="156" fill="#FEFECE" height="100.4844" id="ReaderCommunicationException" rx="2.5" ry="2.5" style="stroke:#D4AC0D;stroke-width:2.0;" width="459" x="26.5" y="1336.5311"/><ellipse cx="143.75" cy="1360.1522" fill="#ADD1B2" rx="11" ry="11" style="stroke:#181818;stroke-width:1.0;"/><path d="M146.5156,1356.0272 Q146.6719,1355.8084 146.8594,1355.6991 Q147.0469,1355.5897 147.2656,1355.5897 Q147.6406,1355.5897 147.875,1355.8553 Q148.1094,1356.1053 148.1094,1356.7147 L148.1094,1358.1678 Q148.1094,1358.7772 147.875,1359.0428 Q147.6406,1359.3084 147.2656,1359.3084 Q146.9219,1359.3084 146.7188,1359.1053 Q146.5156,1358.9178 146.4063,1358.4022 Q146.3594,1358.0428 146.1719,1357.8553 Q145.8438,1357.4803 145.2344,1357.2616 Q144.625,1357.0428 144,1357.0428 Q143.2344,1357.0428 142.5938,1357.3709 Q141.9688,1357.6991 141.4688,1358.4491 Q140.9844,1359.1991 140.9844,1360.2303 L140.9844,1361.3241 Q140.9844,1362.5584 141.875,1363.3866 Q142.7656,1364.1991 144.3594,1364.1991 Q145.2969,1364.1991 145.9531,1363.9491 Q146.3438,1363.7928 146.7656,1363.3553 Q147.0313,1363.0897 147.1719,1363.0116 Q147.3281,1362.9334 147.5313,1362.9334 Q147.8594,1362.9334 148.1094,1363.1991 Q148.375,1363.4491 148.375,1363.7928 Q148.375,1364.1366 148.0313,1364.5428 Q147.5313,1365.1209 146.7344,1365.4491 Q145.6563,1365.9022 144.3594,1365.9022 Q142.8438,1365.9022 141.6406,1365.2772 Q140.6563,1364.7772 139.9688,1363.7147 Q139.2813,1362.6366 139.2813,1361.3553 L139.2813,1360.1991 Q139.2813,1358.8709 139.8906,1357.7303 Q140.5156,1356.5741 141.6094,1355.9647 Q142.7031,1355.3397 143.9375,1355.3397 Q144.6719,1355.3397 145.3125,1355.5116 Q145.9688,1355.6678 146.5156,1356.0272 Z " fill="#000000"/><ellipse cx="169.25" cy="1359.6522" fill="#84BE84" rx="3" ry="3" style="stroke:#038048;stroke-width:1.0;"/><text fill="#000000" font-family="sans-serif" font-size="14" lengthAdjust="spacing" textLength="129" x="213.25" y="1356.6385">&#171;RuntimeException&#187;</text><text fill="#000000" font-family="sans-serif" font-size="14" lengthAdjust="spacing" textLength="205" x="175.25" y="1375.2596">ReaderCommunicationException</text><line style="stroke:#D4AC0D;stroke-width:2.0;" x1="27.5" x2="484.5" y1="1383.7733" y2="1383.7733"/><line style="stroke:#D4AC0D;stroke-width:2.0;" x1="27.5" x2="484.5" y1="1391.7733" y2="1391.7733"/><ellipse cx="37.5" cy="1406.5838" fill="#84BE84" rx="3" ry="3" style="stroke:#038048;stroke-width:1.0;"/><text fill="#000000" font-family="sans-serif" font-size="14" lengthAdjust="spacing" textLength="317" x="46.5" y="1410.8807">ReaderCommunicationException (String message)</text><ellipse cx="37.5" cy="1425.2049" fill="#84BE84" rx="3" ry="3" style="stroke:#038048;stroke-width:1.0;"/><text fill="#000000" font-family="sans-serif" font-size="14" lengthAdjust="spacing" textLength="433" x="46.5" y="1429.5018">ReaderCommunicationException (String message, Throwable cause)</text></g><!--class ReaderProtocolNotSupportedException--><g id="elem_ReaderProtocolNotSupportedException"><rect codeLine="160" fill="#FEFECE" height="81.8633" id="ReaderProtocolNotSupportedException" rx="2.5" ry="2.5" style="stroke:#D4AC0D;stroke-width:2.0;" width="467" x="22.5" y="1153.5311"/><ellipse cx="122.75" cy="1177.1522" fill="#ADD1B2" rx="11" ry="11" style="stroke:#181818;stroke-width:1.0;"/><path d="M125.5156,1173.0272 Q125.6719,1172.8084 125.8594,1172.6991 Q126.0469,1172.5897 126.2656,1172.5897 Q126.6406,1172.5897 126.875,1172.8553 Q127.1094,1173.1053 127.1094,1173.7147 L127.1094,1175.1678 Q127.1094,1175.7772 126.875,1176.0428 Q126.6406,1176.3084 126.2656,1176.3084 Q125.9219,1176.3084 125.7188,1176.1053 Q125.5156,1175.9178 125.4063,1175.4022 Q125.3594,1175.0428 125.1719,1174.8553 Q124.8438,1174.4803 124.2344,1174.2616 Q123.625,1174.0428 123,1174.0428 Q122.2344,1174.0428 121.5938,1174.3709 Q120.9688,1174.6991 120.4688,1175.4491 Q119.9844,1176.1991 119.9844,1177.2303 L119.9844,1178.3241 Q119.9844,1179.5584 120.875,1180.3866 Q121.7656,1181.1991 123.3594,1181.1991 Q124.2969,1181.1991 124.9531,1180.9491 Q125.3438,1180.7928 125.7656,1180.3553 Q126.0313,1180.0897 126.1719,1180.0116 Q126.3281,1179.9334 126.5313,1179.9334 Q126.8594,1179.9334 127.1094,1180.1991 Q127.375,1180.4491 127.375,1180.7928 Q127.375,1181.1366 127.0313,1181.5428 Q126.5313,1182.1209 125.7344,1182.4491 Q124.6563,1182.9022 123.3594,1182.9022 Q121.8438,1182.9022 120.6406,1182.2772 Q119.6563,1181.7772 118.9688,1180.7147 Q118.2813,1179.6366 118.2813,1178.3553 L118.2813,1177.1991 Q118.2813,1175.8709 118.8906,1174.7303 Q119.5156,1173.5741 120.6094,1172.9647 Q121.7031,1172.3397 122.9375,1172.3397 Q123.6719,1172.3397 124.3125,1172.5116 Q124.9688,1172.6678 125.5156,1173.0272 Z " fill="#000000"/><ellipse cx="148.25" cy="1176.6522" fill="#84BE84" rx="3" ry="3" style="stroke:#038048;stroke-width:1.0;"/><text fill="#000000" font-family="sans-serif" font-size="14" lengthAdjust="spacing" textLength="129" x="213.25" y="1173.6385">&#171;RuntimeException&#187;</text><text fill="#000000" font-family="sans-serif" font-size="14" lengthAdjust="spacing" textLength="247" x="154.25" y="1192.2596">ReaderProtocolNotSupportedException</text><line style="stroke:#D4AC0D;stroke-width:2.0;" x1="23.5" x2="488.5" y1="1200.7733" y2="1200.7733"/><line style="stroke:#D4AC0D;stroke-width:2.0;" x1="23.5" x2="488.5" y1="1208.7733" y2="1208.7733"/><ellipse cx="33.5" cy="1223.5838" fill="#84BE84" rx="3" ry="3" style="stroke:#038048;stroke-width:1.0;"/><text fill="#000000" font-family="sans-serif" font-size="14" lengthAdjust="spacing" textLength="441" x="42.5" y="1227.8807">ReaderProtocolNotSupportedException (String physicalProtocolName)</text></g><!--class CardCommunicationException--><g id="elem_CardCommunicationException"><rect codeLine="163" fill="#FEFECE" height="100.4844" id="CardCommunicationException" rx="2.5" ry="2.5" style="stroke:#D4AC0D;stroke-width:2.0;" width="443" x="520.5" y="1336.5311"/><ellipse cx="637.75" cy="1360.1522" fill="#ADD1B2" rx="11" ry="11" style="stroke:#181818;stroke-width:1.0;"/><path d="M640.5156,1356.0272 Q640.6719,1355.8084 640.8594,1355.6991 Q641.0469,1355.5897 641.2656,1355.5897 Q641.6406,1355.5897 641.875,1355.8553 Q642.1094,1356.1053 642.1094,1356.7147 L642.1094,1358.1678 Q642.1094,1358.7772 641.875,1359.0428 Q641.6406,1359.3084 641.2656,1359.3084 Q640.9219,1359.3084 640.7188,1359.1053 Q640.5156,1358.9178 640.4063,1358.4022 Q640.3594,1358.0428 640.1719,1357.8553 Q639.8438,1357.4803 639.2344,1357.2616 Q638.625,1357.0428 638,1357.0428 Q637.2344,1357.0428 636.5938,1357.3709 Q635.9688,1357.6991 635.4688,1358.4491 Q634.9844,1359.1991 634.9844,1360.2303 L634.9844,1361.3241 Q634.9844,1362.5584 635.875,1363.3866 Q636.7656,1364.1991 638.3594,1364.1991 Q639.2969,1364.1991 639.9531,1363.9491 Q640.3438,1363.7928 640.7656,1363.3553 Q641.0313,1363.0897 641.1719,1363.0116 Q641.3281,1362.9334 641.5313,1362.9334 Q641.8594,1362.9334 642.1094,1363.1991 Q642.375,1363.4491 642.375,1363.7928 Q642.375,1364.1366 642.0313,1364.5428 Q641.5313,1365.1209 640.7344,1365.4491 Q639.6563,1365.9022 638.3594,1365.9022 Q636.8438,1365.9022 635.6406,1365.2772 Q634.6563,1364.7772 633.9688,1363.7147 Q633.2813,1362.6366 633.2813,1361.3553 L633.2813,1360.1991 Q633.2813,1358.8709 633.8906,1357.7303 Q634.5156,1356.5741 635.6094,1355.9647 Q636.7031,1355.3397 637.9375,1355.3397 Q638.6719,1355.3397 639.3125,1355.5116 Q639.9688,1355.6678 640.5156,1356.0272 Z " fill="#000000"/><ellipse cx="663.25" cy="1359.6522" fill="#84BE84" rx="3" ry="3" style="stroke:#038048;stroke-width:1.0;"/><text fill="#000000" font-family="sans-serif" font-size="14" lengthAdjust="spacing" textLength="129" x="699.25" y="1356.6385">&#171;RuntimeException&#187;</text><text fill="#000000" font-family="sans-serif" font-size="14" lengthAdjust="spacing" textLength="189" x="669.25" y="1375.2596">CardCommunicationException</text><line style="stroke:#D4AC0D;stroke-width:2.0;" x1="521.5" x2="962.5" y1="1383.7733" y2="1383.7733"/><line style="stroke:#D4AC0D;stroke-width:2.0;" x1="521.5" x2="962.5" y1="1391.7733" y2="1391.7733"/><ellipse cx="531.5" cy="1406.5838" fill="#84BE84" rx="3" ry="3" style="stroke:#038048;stroke-width:1.0;"/><text fill="#000000" font-family="sans-serif" font-size="14" lengthAdjust="spacing" textLength="301" x="540.5" y="1410.8807">CardCommunicationException (String message)</text><ellipse cx="531.5" cy="1425.2049" fill="#84BE84" rx="3" ry="3" style="stroke:#038048;stroke-width:1.0;"/><text fill="#000000" font-family="sans-serif" font-size="14" lengthAdjust="spacing" textLength="417" x="540.5" y="1429.5018">CardCommunicationException (String message, Throwable cause)</text></g><!--class CardReaderObserverSpi--><g id="elem_CardReaderObserverSpi"><rect codeLine="102" fill="#FEFECE" height="66.6211" id="CardReaderObserverSpi" rx="2.5" ry="2.5" style="stroke:#D4AC0D;stroke-width:2.0;" width="398" x="1568" y="961.5311"/><ellipse cx="1679.25" cy="977.5311" fill="#B4A7E5" rx="11" ry="11" style="stroke:#181818;stroke-width:1.0;"/><path d="M1680.2031,974.1717 L1680.2031,980.828 L1681.9219,980.828 Q1682.5313,980.828 1682.7969,981.0623 Q1683.0625,981.2967 1683.0625,981.6873 Q1683.0625,982.0623 1682.7969,982.2967 Q1682.5313,982.5311 1681.9219,982.5311 L1676.7813,982.5311 Q1676.1719,982.5311 1675.9063,982.2967 Q1675.6406,982.0623 1675.6406,981.6717 Q1675.6406,981.2967 1675.9063,981.0623 Q1676.1719,980.828 1676.7813,980.828 L1678.5,980.828 L1678.5,974.1717 L1676.7813,974.1717 Q1676.1719,974.1717 1675.9063,973.9373 Q1675.6406,973.703 1675.6406,973.3123 Q1675.6406,972.9373 1675.9063,972.703 Q1676.1719,972.4686 1676.7813,972.4686 L1681.9219,972.4686 Q1682.5313,972.4686 1682.7969,972.703 Q1683.0625,972.9373 1683.0625,973.3123 Q1683.0625,973.703 1682.7969,973.9373 Q1682.5313,974.1717 1681.9219,974.1717 L1680.2031,974.1717 Z " fill="#000000"/><ellipse cx="1704.75" cy="977.0311" fill="#84BE84" rx="3" ry="3" style="stroke:#038048;stroke-width:1.0;"/><text fill="#000000" font-family="sans-serif" font-size="14" font-style="italic" lengthAdjust="spacing" textLength="156" x="1710.75" y="983.328">CardReaderObserverSpi</text><line style="stroke:#D4AC0D;stroke-width:2.0;" x1="1569" x2="1965" y1="993.5311" y2="993.5311"/><line style="stroke:#D4AC0D;stroke-width:2.0;" x1="1569" x2="1965" y1="1001.5311" y2="1001.5311"/><ellipse cx="1579" cy="1016.3416" fill="#84BE84" rx="3" ry="3" style="stroke:#038048;stroke-width:1.0;"/><text fill="#000000" font-family="sans-serif" font-size="14" lengthAdjust="spacing" textLength="372" x="1588" y="1020.6385">void onReaderEvent (CardReaderEvent cardReaderEvent)</text></g><!--class CardReaderObservationExceptionHandlerSpi--><g id="elem_CardReaderObservationExceptionHandlerSpi"><rect codeLine="105" fill="#FEFECE" height="66.6211" id="CardReaderObservationExceptionHandlerSpi" rx="2.5" ry="2.5" style="stroke:#D4AC0D;stroke-width:2.0;" width="564" x="2001" y="961.5311"/><ellipse cx="2130.75" cy="977.5311" fill="#B4A7E5" rx="11" ry="11" style="stroke:#181818;stroke-width:1.0;"/><path d="M2131.7031,974.1717 L2131.7031,980.828 L2133.4219,980.828 Q2134.0313,980.828 2134.2969,981.0623 Q2134.5625,981.2967 2134.5625,981.6873 Q2134.5625,982.0623 2134.2969,982.2967 Q2134.0313,982.5311 2133.4219,982.5311 L2128.2813,982.5311 Q2127.6719,982.5311 2127.4063,982.2967 Q2127.1406,982.0623 2127.1406,981.6717 Q2127.1406,981.2967 2127.4063,981.0623 Q2127.6719,980.828 2128.2813,980.828 L2130,980.828 L2130,974.1717 L2128.2813,974.1717 Q2127.6719,974.1717 2127.4063,973.9373 Q2127.1406,973.703 2127.1406,973.3123 Q2127.1406,972.9373 2127.4063,972.703 Q2127.6719,972.4686 2128.2813,972.4686 L2133.4219,972.4686 Q2134.0313,972.4686 2134.2969,972.703 Q2134.5625,972.9373 2134.5625,973.3123 Q2134.5625,973.703 2134.2969,973.9373 Q2134.0313,974.1717 2133.4219,974.1717 L2131.7031,974.1717 Z " fill="#000000"/><ellipse cx="2156.25" cy="977.0311" fill="#84BE84" rx="3" ry="3" style="stroke:#038048;stroke-width:1.0;"/><text fill="#000000" font-family="sans-serif" font-size="14" font-style="italic" lengthAdjust="spacing" textLength="285" x="2162.25" y="983.328">CardReaderObservationExceptionHandlerSpi</text><line style="stroke:#D4AC0D;stroke-width:2.0;" x1="2002" x2="2564" y1="993.5311" y2="993.5311"/><line style="stroke:#D4AC0D;stroke-width:2.0;" x1="2002" x2="2564" y1="1001.5311" y2="1001.5311"/><ellipse cx="2012" cy="1016.3416" fill="#84BE84" rx="3" ry="3" style="stroke:#038048;stroke-width:1.0;"/><text fill="#000000" font-family="sans-serif" font-size="14" lengthAdjust="spacing" textLength="538" x="2021" y="1020.6385">void onReaderObservationError (String contextInfo, String readerName, Throwable e)</text></g><!--class CardSelectionManager--><g id="elem_CardSelectionManager"><rect codeLine="114" fill="#FEFECE" height="327.3164" id="CardSelectionManager" rx="2.5" ry="2.5" style="stroke:#D4AC0D;stroke-width:2.0;" width="994" x="250" y="189.5311"/><ellipse cx="664.25" cy="205.5311" fill="#B4A7E5" rx="11" ry="11" style="stroke:#181818;stroke-width:1.0;"/><path d="M665.2031,202.1717 L665.2031,208.828 L666.9219,208.828 Q667.5313,208.828 667.7969,209.0623 Q668.0625,209.2967 668.0625,209.6873 Q668.0625,210.0623 667.7969,210.2967 Q667.5313,210.5311 666.9219,210.5311 L661.7813,210.5311 Q661.1719,210.5311 660.9063,210.2967 Q660.6406,210.0623 660.6406,209.6717 Q660.6406,209.2967 660.9063,209.0623 Q661.1719,208.828 661.7813,208.828 L663.5,208.828 L663.5,202.1717 L661.7813,202.1717 Q661.1719,202.1717 660.9063,201.9373 Q660.6406,201.703 660.6406,201.3123 Q660.6406,200.9373 660.9063,200.703 Q661.1719,200.4686 661.7813,200.4686 L666.9219,200.4686 Q667.5313,200.4686 667.7969,200.703 Q668.0625,200.9373 668.0625,201.3123 Q668.0625,201.703 667.7969,201.9373 Q667.5313,202.1717 666.9219,202.1717 L665.2031,202.1717 Z " fill="#000000"/><ellipse cx="689.75" cy="205.0311" fill="#84BE84" rx="3" ry="3" style="stroke:#038048;stroke-width:1.0;"/><text fill="#000000" font-family="sans-serif" font-size="14" font-style="italic" lengthAdjust="spacing" textLength="146" x="695.75" y="211.328">CardSelectionManager</text><line style="stroke:#D4AC0D;stroke-width:2.0;" x1="251" x2="1243" y1="221.5311" y2="221.5311"/><line style="stroke:#D4AC0D;stroke-width:2.0;" x1="251" x2="1243" y1="229.5311" y2="229.5311"/><ellipse cx="261" cy="244.3416" fill="#84BE84" rx="3" ry="3" style="stroke:#038048;stroke-width:1.0;"/><text fill="#000000" font-family="sans-serif" font-size="14" lengthAdjust="spacing" textLength="204" x="270" y="248.6385">void setMultipleSelectionMode ()</text><text fill="#000000" font-family="sans-serif" font-size="14" lengthAdjust="spacing" textLength="4" x="270" y="267.2596">&#160;</text><ellipse cx="261" cy="281.5838" fill="#84BE84" rx="3" ry="3" style="stroke:#038048;stroke-width:1.0;"/><text fill="#000000" font-family="sans-serif" font-size="14" lengthAdjust="spacing" textLength="320" x="270" y="285.8807">int prepareSelection (CardSelection cardSelection)</text><ellipse cx="261" cy="300.2049" fill="#84BE84" rx="3" ry="3" style="stroke:#038048;stroke-width:1.0;"/><text fill="#000000" font-family="sans-serif" font-size="14" lengthAdjust="spacing" textLength="199" x="270" y="304.5018">void prepareReleaseChannel ()</text><text fill="#000000" font-family="sans-serif" font-size="14" lengthAdjust="spacing" textLength="4" x="270" y="323.1229">&#160;</text><ellipse cx="261" cy="337.4471" fill="#84BE84" rx="3" ry="3" style="stroke:#038048;stroke-width:1.0;"/><text fill="#000000" font-family="sans-serif" font-size="14" lengthAdjust="spacing" textLength="239" x="270" y="341.744">String exportCardSelectionScenario ()</text><ellipse cx="261" cy="356.0682" fill="#84BE84" rx="3" ry="3" style="stroke:#038048;stroke-width:1.0;"/><text fill="#000000" font-family="sans-serif" font-size="14" lengthAdjust="spacing" textLength="400" x="270" y="360.3651">int importCardSelectionScenario (String cardSelectionScenario)</text><text fill="#000000" font-family="sans-serif" font-size="14" lengthAdjust="spacing" textLength="4" x="270" y="378.9862">&#160;</text><ellipse cx="261" cy="393.3104" fill="#84BE84" rx="3" ry="3" style="stroke:#038048;stroke-width:1.0;"/><text fill="#000000" font-family="sans-serif" font-size="14" lengthAdjust="spacing" textLength="499" x="270" y="397.6073">CardSelectionResult processCardSelectionScenario (CardReader cardReader)</text><text fill="#000000" font-family="sans-serif" font-size="14" lengthAdjust="spacing" textLength="4" x="270" y="416.2284">&#160;</text><ellipse cx="261" cy="430.5526" fill="#84BE84" rx="3" ry="3" style="stroke:#038048;stroke-width:1.0;"/><text fill="#000000" font-family="sans-serif" font-size="14" lengthAdjust="spacing" textLength="968" x="270" y="434.8495">void scheduleCardSelectionScenario (ObservableCardReader observableCardReader, DetectionMode detectionMode, NotificationMode notificationMode)</text><ellipse cx="261" cy="449.1737" fill="#84BE84" rx="3" ry="3" style="stroke:#038048;stroke-width:1.0;"/><text fill="#000000" font-family="sans-serif" font-size="14" lengthAdjust="spacing" textLength="866" x="270" y="453.4705">CardSelectionResult parseScheduledCardSelectionsResponse (ScheduledCardSelectionsResponse scheduledCardSelectionsResponse)</text><text fill="#000000" font-family="sans-serif" font-size="14" lengthAdjust="spacing" textLength="4" x="270" y="472.0916">&#160;</text><ellipse cx="261" cy="486.4159" fill="#84BE84" rx="3" ry="3" style="stroke:#038048;stroke-width:1.0;"/><text fill="#0000FF" font-family="sans-serif" font-size="14" lengthAdjust="spacing" textLength="306" x="270" y="490.7127">String exportProcessedCardSelectionScenario ()</text><ellipse cx="261" cy="505.037" fill="#84BE84" rx="3" ry="3" style="stroke:#038048;stroke-width:1.0;"/><text fill="#0000FF" font-family="sans-serif" font-size="14" lengthAdjust="spacing" textLength="650" x="270" y="509.3338">CardSelectionResult importProcessedCardSelectionScenario (String processedCardSelectionScenario)</text></g><!--class CardSelectionResult--><g id="elem_CardSelectionResult"><rect codeLine="141" fill="#FEFECE" height="103.8633" id="CardSelectionResult" rx="2.5" ry="2.5" style="stroke:#D4AC0D;stroke-width:2.0;" width="302" x="46" y="660.5311"/><ellipse cx="122.75" cy="676.5311" fill="#B4A7E5" rx="11" ry="11" style="stroke:#181818;stroke-width:1.0;"/><path d="M123.7031,673.1717 L123.7031,679.828 L125.4219,679.828 Q126.0313,679.828 126.2969,680.0623 Q126.5625,680.2967 126.5625,680.6873 Q126.5625,681.0623 126.2969,681.2967 Q126.0313,681.5311 125.4219,681.5311 L120.2813,681.5311 Q119.6719,681.5311 119.4063,681.2967 Q119.1406,681.0623 119.1406,680.6717 Q119.1406,680.2967 119.4063,680.0623 Q119.6719,679.828 120.2813,679.828 L122,679.828 L122,673.1717 L120.2813,673.1717 Q119.6719,673.1717 119.4063,672.9373 Q119.1406,672.703 119.1406,672.3123 Q119.1406,671.9373 119.4063,671.703 Q119.6719,671.4686 120.2813,671.4686 L125.4219,671.4686 Q126.0313,671.4686 126.2969,671.703 Q126.5625,671.9373 126.5625,672.3123 Q126.5625,672.703 126.2969,672.9373 Q126.0313,673.1717 125.4219,673.1717 L123.7031,673.1717 Z " fill="#000000"/><ellipse cx="148.25" cy="676.0311" fill="#84BE84" rx="3" ry="3" style="stroke:#038048;stroke-width:1.0;"/><text fill="#000000" font-family="sans-serif" font-size="14" font-style="italic" lengthAdjust="spacing" textLength="129" x="154.25" y="682.328">CardSelectionResult</text><line style="stroke:#D4AC0D;stroke-width:2.0;" x1="47" x2="347" y1="692.5311" y2="692.5311"/><line style="stroke:#D4AC0D;stroke-width:2.0;" x1="47" x2="347" y1="700.5311" y2="700.5311"/><ellipse cx="57" cy="715.3416" fill="#84BE84" rx="3" ry="3" style="stroke:#038048;stroke-width:1.0;"/><text fill="#000000" font-family="sans-serif" font-size="14" lengthAdjust="spacing" textLength="276" x="66" y="719.6385">Map&lt;Integer, SmartCard&gt; getSmartCards ()</text><ellipse cx="57" cy="733.9627" fill="#84BE84" rx="3" ry="3" style="stroke:#038048;stroke-width:1.0;"/><text fill="#000000" font-family="sans-serif" font-size="14" lengthAdjust="spacing" textLength="212" x="66" y="738.2596">SmartCard getActiveSmartCard ()</text><ellipse cx="57" cy="752.5838" fill="#84BE84" rx="3" ry="3" style="stroke:#038048;stroke-width:1.0;"/><text fill="#000000" font-family="sans-serif" font-size="14" lengthAdjust="spacing" textLength="182" x="66" y="756.8807">int getActiveSelectionIndex ()</text></g><!--class ScheduledCardSelectionsResponse--><g id="elem_ScheduledCardSelectionsResponse"><rect codeLine="146" fill="#FEFECE" height="48" id="ScheduledCardSelectionsResponse" rx="2.5" ry="2.5" style="stroke:#D4AC0D;stroke-width:2.0;" width="270" x="974" y="688.5311"/><ellipse cx="989" cy="704.5311" fill="#B4A7E5" rx="11" ry="11" style="stroke:#181818;stroke-width:1.0;"/><path d="M989.9531,701.1717 L989.9531,707.828 L991.6719,707.828 Q992.2813,707.828 992.5469,708.0623 Q992.8125,708.2967 992.8125,708.6873 Q992.8125,709.0623 992.5469,709.2967 Q992.2813,709.5311 991.6719,709.5311 L986.5313,709.5311 Q985.9219,709.5311 985.6563,709.2967 Q985.3906,709.0623 985.3906,708.6717 Q985.3906,708.2967 985.6563,708.0623 Q985.9219,707.828 986.5313,707.828 L988.25,707.828 L988.25,701.1717 L986.5313,701.1717 Q985.9219,701.1717 985.6563,700.9373 Q985.3906,700.703 985.3906,700.3123 Q985.3906,699.9373 985.6563,699.703 Q985.9219,699.4686 986.5313,699.4686 L991.6719,699.4686 Q992.2813,699.4686 992.5469,699.703 Q992.8125,699.9373 992.8125,700.3123 Q992.8125,700.703 992.5469,700.9373 Q992.2813,701.1717 991.6719,701.1717 L989.9531,701.1717 Z " fill="#000000"/><ellipse cx="1008" cy="704.0311" fill="#84BE84" rx="3" ry="3" style="stroke:#038048;stroke-width:1.0;"/><text fill="#000000" font-family="sans-serif" font-size="14" font-style="italic" lengthAdjust="spacing" textLength="227" x="1014" y="710.328">ScheduledCardSelectionsResponse</text><line style="stroke:#D4AC0D;stroke-width:2.0;" x1="975" x2="1243" y1="720.5311" y2="720.5311"/><line style="stroke:#D4AC0D;stroke-width:2.0;" x1="975" x2="1243" y1="728.5311" y2="728.5311"/></g><!--class InvalidCardResponseException--><g id="elem_InvalidCardResponseException"><rect codeLine="149" fill="#FEFECE" height="100.4844" id="InvalidCardResponseException" rx="2.5" ry="2.5" style="stroke:#D4AC0D;stroke-width:2.0;" width="450" x="489" y="662.5311"/><ellipse cx="606.25" cy="686.1522" fill="#ADD1B2" rx="11" ry="11" style="stroke:#181818;stroke-width:1.0;"/><path d="M609.0156,682.0272 Q609.1719,681.8084 609.3594,681.6991 Q609.5469,681.5897 609.7656,681.5897 Q610.1406,681.5897 610.375,681.8553 Q610.6094,682.1053 610.6094,682.7147 L610.6094,684.1678 Q610.6094,684.7772 610.375,685.0428 Q610.1406,685.3084 609.7656,685.3084 Q609.4219,685.3084 609.2188,685.1053 Q609.0156,684.9178 608.9063,684.4022 Q608.8594,684.0428 608.6719,683.8553 Q608.3438,683.4803 607.7344,683.2616 Q607.125,683.0428 606.5,683.0428 Q605.7344,683.0428 605.0938,683.3709 Q604.4688,683.6991 603.9688,684.4491 Q603.4844,685.1991 603.4844,686.2303 L603.4844,687.3241 Q603.4844,688.5584 604.375,689.3866 Q605.2656,690.1991 606.8594,690.1991 Q607.7969,690.1991 608.4531,689.9491 Q608.8438,689.7928 609.2656,689.3553 Q609.5313,689.0897 609.6719,689.0116 Q609.8281,688.9334 610.0313,688.9334 Q610.3594,688.9334 610.6094,689.1991 Q610.875,689.4491 610.875,689.7928 Q610.875,690.1366 610.5313,690.5428 Q610.0313,691.1209 609.2344,691.4491 Q608.1563,691.9022 606.8594,691.9022 Q605.3438,691.9022 604.1406,691.2772 Q603.1563,690.7772 602.4688,689.7147 Q601.7813,688.6366 601.7813,687.3553 L601.7813,686.1991 Q601.7813,684.8709 602.3906,683.7303 Q603.0156,682.5741 604.1094,681.9647 Q605.2031,681.3397 606.4375,681.3397 Q607.1719,681.3397 607.8125,681.5116 Q608.4688,681.6678 609.0156,682.0272 Z " fill="#000000"/><ellipse cx="631.75" cy="685.6522" fill="#84BE84" rx="3" ry="3" style="stroke:#038048;stroke-width:1.0;"/><text fill="#000000" font-family="sans-serif" font-size="14" lengthAdjust="spacing" textLength="129" x="671.25" y="682.6385">&#171;RuntimeException&#187;</text><text fill="#000000" font-family="sans-serif" font-size="14" lengthAdjust="spacing" textLength="196" x="637.75" y="701.2596">InvalidCardResponseException</text><line style="stroke:#D4AC0D;stroke-width:2.0;" x1="490" x2="938" y1="709.7733" y2="709.7733"/><line style="stroke:#D4AC0D;stroke-width:2.0;" x1="490" x2="938" y1="717.7733" y2="717.7733"/><ellipse cx="500" cy="732.5838" fill="#84BE84" rx="3" ry="3" style="stroke:#038048;stroke-width:1.0;"/><text fill="#000000" font-family="sans-serif" font-size="14" lengthAdjust="spacing" textLength="308" x="509" y="736.8807">InvalidCardResponseException (String message)</text><ellipse cx="500" cy="751.2049" fill="#84BE84" rx="3" ry="3" style="stroke:#038048;stroke-width:1.0;"/><text fill="#000000" font-family="sans-serif" font-size="14" lengthAdjust="spacing" textLength="424" x="509" y="755.5018">InvalidCardResponseException (String message, Throwable cause)</text></g><!--class CardSelection--><g id="elem_CardSelection"><rect codeLine="134" fill="#FEFECE" height="48" id="CardSelection" rx="2.5" ry="2.5" style="stroke:#D4AC0D;stroke-width:2.0;" width="132" x="377" y="971.0311"/><ellipse cx="392" cy="987.0311" fill="#B4A7E5" rx="11" ry="11" style="stroke:#181818;stroke-width:1.0;"/><path d="M392.9531,983.6717 L392.9531,990.328 L394.6719,990.328 Q395.2813,990.328 395.5469,990.5623 Q395.8125,990.7967 395.8125,991.1873 Q395.8125,991.5623 395.5469,991.7967 Q395.2813,992.0311 394.6719,992.0311 L389.5313,992.0311 Q388.9219,992.0311 388.6563,991.7967 Q388.3906,991.5623 388.3906,991.1717 Q388.3906,990.7967 388.6563,990.5623 Q388.9219,990.328 389.5313,990.328 L391.25,990.328 L391.25,983.6717 L389.5313,983.6717 Q388.9219,983.6717 388.6563,983.4373 Q388.3906,983.203 388.3906,982.8123 Q388.3906,982.4373 388.6563,982.203 Q388.9219,981.9686 389.5313,981.9686 L394.6719,981.9686 Q395.2813,981.9686 395.5469,982.203 Q395.8125,982.4373 395.8125,982.8123 Q395.8125,983.203 395.5469,983.4373 Q395.2813,983.6717 394.6719,983.6717 L392.9531,983.6717 Z " fill="#000000"/><ellipse cx="411" cy="986.5311" fill="#84BE84" rx="3" ry="3" style="stroke:#038048;stroke-width:1.0;"/><text fill="#000000" font-family="sans-serif" font-size="14" font-style="italic" lengthAdjust="spacing" textLength="89" x="417" y="992.828">CardSelection</text><line style="stroke:#D4AC0D;stroke-width:2.0;" x1="378" x2="508" y1="1003.0311" y2="1003.0311"/><line style="stroke:#D4AC0D;stroke-width:2.0;" x1="378" x2="508" y1="1011.0311" y2="1011.0311"/></g><!--class SmartCard--><g id="elem_SmartCard"><rect codeLine="136" fill="#FEFECE" height="85.2422" id="SmartCard" rx="2.5" ry="2.5" style="stroke:#D4AC0D;stroke-width:2.0;" width="271" x="70.5" y="952.5311"/><ellipse cx="162.25" cy="968.5311" fill="#B4A7E5" rx="11" ry="11" style="stroke:#181818;stroke-width:1.0;"/><path d="M163.2031,965.1717 L163.2031,971.828 L164.9219,971.828 Q165.5313,971.828 165.7969,972.0623 Q166.0625,972.2967 166.0625,972.6873 Q166.0625,973.0623 165.7969,973.2967 Q165.5313,973.5311 164.9219,973.5311 L159.7813,973.5311 Q159.1719,973.5311 158.9063,973.2967 Q158.6406,973.0623 158.6406,972.6717 Q158.6406,972.2967 158.9063,972.0623 Q159.1719,971.828 159.7813,971.828 L161.5,971.828 L161.5,965.1717 L159.7813,965.1717 Q159.1719,965.1717 158.9063,964.9373 Q158.6406,964.703 158.6406,964.3123 Q158.6406,963.9373 158.9063,963.703 Q159.1719,963.4686 159.7813,963.4686 L164.9219,963.4686 Q165.5313,963.4686 165.7969,963.703 Q166.0625,963.9373 166.0625,964.3123 Q166.0625,964.703 165.7969,964.9373 Q165.5313,965.1717 164.9219,965.1717 L163.2031,965.1717 Z " fill="#000000"/><ellipse cx="187.75" cy="968.0311" fill="#84BE84" rx="3" ry="3" style="stroke:#038048;stroke-width:1.0;"/><text fill="#000000" font-family="sans-serif" font-size="14" font-style="italic" lengthAdjust="spacing" textLength="68" x="193.75" y="974.328">SmartCard</text><line style="stroke:#D4AC0D;stroke-width:2.0;" x1="71.5" x2="340.5" y1="984.5311" y2="984.5311"/><line style="stroke:#D4AC0D;stroke-width:2.0;" x1="71.5" x2="340.5" y1="992.5311" y2="992.5311"/><ellipse cx="81.5" cy="1007.3416" fill="#84BE84" rx="3" ry="3" style="stroke:#038048;stroke-width:1.0;"/><text fill="#000000" font-family="sans-serif" font-size="14" lengthAdjust="spacing" textLength="163" x="90.5" y="1011.6385">String getPowerOnData ()</text><ellipse cx="81.5" cy="1025.9627" fill="#84BE84" rx="3" ry="3" style="stroke:#038048;stroke-width:1.0;"/><text fill="#000000" font-family="sans-serif" font-size="14" lengthAdjust="spacing" textLength="245" x="90.5" y="1030.2596">byte[] getSelectApplicationResponse ()</text></g><!--reverse link CardReader to ConfigurableCardReader--><g id="link_CardReader_ConfigurableCardReader"><path d="M2006.71,409.1511 C2144.38,477.7011 2377.54,593.7931 2511.35,660.4211 " fill="none" id="CardReader-backto-ConfigurableCardReader" style="stroke:#181818;stroke-width:2.0;"/><polygon fill="none" points="2003.55,415.4011,1988.76,400.2211,2009.79,402.8711,2003.55,415.4011" style="stroke:#181818;stroke-width:2.0;"/></g><!--reverse link CardReader to ObservableCardReader--><g id="link_CardReader_ObservableCardReader"><path d="M1907.56,425.3111 C1915.45,473.9211 1926.07,539.4001 1935.17,595.4611 " fill="none" id="CardReader-backto-ObservableCardReader" style="stroke:#181818;stroke-width:2.0;"/><polygon fill="none" points="1900.6,426.1111,1904.31,405.2511,1914.42,423.8711,1900.6,426.1111" style="stroke:#181818;stroke-width:2.0;"/></g><!--reverse link ObservableCardReader to NotificationMode--><g id="link_ObservableCardReader_NotificationMode"><path codeLine="172" d="M1631.04,836.6721 C1603.39,851.8921 1576.61,868.5131 1552,886.5311 C1527.21,904.6811 1504.54,930.6031 1487.78,952.4441 " fill="none" id="ObservableCardReader-backto-NotificationMode" style="stroke:#181818;stroke-width:2.0;"/><ellipse cx="1637.2109" cy="833.3485" fill="#FFFFFF" rx="8" ry="8" style="stroke:#181818;stroke-width:2.0;"/><line style="stroke:#181818;stroke-width:2.0;" x1="1630.1718" x2="1644.25" y1="837.1499" y2="829.5471"/><line style="stroke:#181818;stroke-width:2.0;" x1="1633.4095" x2="1641.0123" y1="826.3094" y2="840.3876"/></g><!--reverse link ObservableCardReader to DetectionMode--><g id="link_ObservableCardReader_DetectionMode"><path codeLine="173" d="M1578.39,715.4971 C1575.58,715.5091 1572.79,715.5201 1570,715.5311 C1559.56,715.5721 1556.94,715.7001 1546.5,715.5311 C1538.95,715.4091 1531.05,715.2301 1523.19,715.0201 " fill="none" id="ObservableCardReader-backto-DetectionMode" style="stroke:#181818;stroke-width:2.0;"/><ellipse cx="1585.4901" cy="715.4606" fill="#FFFFFF" rx="8" ry="8" style="stroke:#181818;stroke-width:2.0;"/><line style="stroke:#181818;stroke-width:2.0;" x1="1577.4901" x2="1593.49" y1="715.491" y2="715.4301"/><line style="stroke:#181818;stroke-width:2.0;" x1="1585.4596" x2="1585.5205" y1="707.4606" y2="723.4605"/></g><!--link ObservableCardReader to DetectionMode--><g id="link_ObservableCardReader_DetectionMode"><path codeLine="174" d="M1593.5,712.5311 C1569.84,712.5311 1547.83,712.5311 1528.61,712.5311 " fill="none" id="ObservableCardReader-to-DetectionMode" style="stroke:#27AE60;stroke-width:2.0;stroke-dasharray:7.0,7.0;"/><polygon fill="#27AE60" points="1523.26,712.5311,1532.26,716.5311,1528.26,712.5311,1532.26,708.5311,1523.26,712.5311" style="stroke:#27AE60;stroke-width:2.0;"/><polygon fill="#000000" points="1540.25,700.1766,1549.2951,703.1155,1549.2951,697.2377,1540.25,700.1766" style="stroke:#000000;stroke-width:1.0;"/><text fill="#000000" font-family="sans-serif" font-size="13" lengthAdjust="spacing" textLength="21" x="1554.25" y="705.5594">use</text></g><!--link ObservableCardReader to CardReaderObservationExceptionHandlerSpi--><g id="link_ObservableCardReader_CardReaderObservationExceptionHandlerSpi"><path codeLine="175" d="M2090.19,829.6461 C2144.26,875.7441 2202.54,925.4281 2240.7,957.9641 " fill="none" id="ObservableCardReader-to-CardReaderObservationExceptionHandlerSpi" style="stroke:#27AE60;stroke-width:2.0;stroke-dasharray:7.0,7.0;"/><polygon fill="#27AE60" points="2244.79,961.4511,2240.5356,952.5685,2240.9849,958.2075,2235.3459,958.6567,2244.79,961.4511" style="stroke:#27AE60;stroke-width:2.0;"/><polygon fill="#000000" points="2146.8049,872.4205,2141.8285,864.3158,2138.0151,868.7887,2146.8049,872.4205" style="stroke:#000000;stroke-width:1.0;"/><text fill="#000000" font-family="sans-serif" font-size="13" lengthAdjust="spacing" textLength="21" x="2152" y="874.5594">use</text></g><!--reverse link CardReaderEvent to CardReaderEventType--><g id="link_CardReaderEvent_CardReaderEventType"><path codeLine="177" d="M1697.16,1261.6851 C1698.29,1266.6701 1699.26,1271.6561 1700,1276.5311 C1702.41,1292.4981 1700.52,1309.5691 1696.87,1325.3501 " fill="none" id="CardReaderEvent-backto-CardReaderEventType" style="stroke:#181818;stroke-width:2.0;"/><ellipse cx="1695.3379" cy="1254.5962" fill="#FFFFFF" rx="8" ry="8" style="stroke:#181818;stroke-width:2.0;"/><line style="stroke:#181818;stroke-width:2.0;" x1="1697.3259" x2="1693.35" y1="1262.3452" y2="1246.8471"/><line style="stroke:#181818;stroke-width:2.0;" x1="1687.5889" x2="1703.087" y1="1256.5841" y2="1252.6082"/></g><!--link CardReaderEvent to CardReaderEventType--><g id="link_CardReaderEvent_CardReaderEventType"><path codeLine="178" d="M1646.96,1246.6201 C1642.84,1256.2941 1639.23,1266.5251 1637,1276.5311 C1633.78,1290.9891 1635.52,1306.2121 1639.63,1320.5451 " fill="none" id="CardReaderEvent-to-CardReaderEventType" style="stroke:#3498DB;stroke-width:2.0;stroke-dasharray:7.0,7.0;"/><polygon fill="#3498DB" points="1641.11,1325.3701,1642.2991,1315.5933,1639.6458,1320.5893,1634.6498,1317.936,1641.11,1325.3701" style="stroke:#3498DB;stroke-width:2.0;"/><polygon fill="#000000" points="1641.5066,1291.1522,1645.3237,1282.4412,1639.4745,1281.8613,1641.5066,1291.1522" style="stroke:#000000;stroke-width:1.0;"/><text fill="#000000" font-family="sans-serif" font-size="13" lengthAdjust="spacing" textLength="40" x="1651" y="1291.5594">provide</text></g><!--reverse link ScheduledCardSelectionsResponse to CardReaderEvent--><g id="link_ScheduledCardSelectionsResponse_CardReaderEvent"><path codeLine="179" d="M1116.45,741.9661 C1136.16,811.4861 1196.3,991.2411 1313,1085.5311 C1343.23,1109.9521 1378.85,1128.8541 1415.76,1143.4831 " fill="none" id="ScheduledCardSelectionsResponse-backto-CardReaderEvent" style="stroke:#3498DB;stroke-width:2.0;stroke-dasharray:7.0,7.0;"/><polygon fill="#3498DB" points="1115,736.7611,1113.5759,746.5064,1116.3487,741.5758,1121.2794,744.3486,1115,736.7611" style="stroke:#3498DB;stroke-width:2.0;"/><polygon fill="#000000" points="1315.0117,991.1679,1318.0613,1000.1762,1322.7739,996.6633,1315.0117,991.1679" style="stroke:#000000;stroke-width:1.0;"/><text fill="#000000" font-family="sans-serif" font-size="13" lengthAdjust="spacing" textLength="40" x="1327" y="1000.5594">provide</text></g><!--link CardSelectionResult to SmartCard--><g id="link_CardSelectionResult_SmartCard"><path codeLine="181" d="M198.64,764.6531 C200.312,816.7481 202.882,896.8571 204.501,947.3051 " fill="none" id="CardSelectionResult-to-SmartCard" style="stroke:#3498DB;stroke-width:2.0;stroke-dasharray:7.0,7.0;"/><polygon fill="#3498DB" points="204.664,952.3951,208.3739,943.2717,204.504,947.3977,200.378,943.5277,204.664,952.3951" style="stroke:#3498DB;stroke-width:2.0;"/><polygon fill="#000000" points="208.1604,874.174,210.8077,865.0393,204.9329,865.2279,208.1604,874.174" style="stroke:#000000;stroke-width:1.0;"/><text fill="#000000" font-family="sans-serif" font-size="13" lengthAdjust="spacing" textLength="40" x="217" y="874.5594">provide</text></g><!--link CardSelectionManager to CardSelection--><g id="link_CardSelectionManager_CardSelection"><path codeLine="183" d="M490.681,516.6861 C468.46,540.4781 449.103,566.7811 435,595.5311 C373.222,721.4721 414.301,897.8381 434.076,965.7961 " fill="none" id="CardSelectionManager-to-CardSelection" style="stroke:#27AE60;stroke-width:2.0;stroke-dasharray:7.0,7.0;"/><polygon fill="#27AE60" points="435.576,970.8841,436.8669,961.1202,434.1617,966.0883,429.1936,963.3831,435.576,970.8841" style="stroke:#27AE60;stroke-width:2.0;"/><polygon fill="#000000" points="439.3748,717.6374,443.4217,709.0308,437.59,708.2958,439.3748,717.6374" style="stroke:#000000;stroke-width:1.0;"/><text fill="#000000" font-family="sans-serif" font-size="13" lengthAdjust="spacing" textLength="21" x="449" y="718.0594">use</text></g><!--link CardSelectionManager to ScheduledCardSelectionsResponse--><g id="link_CardSelectionManager_ScheduledCardSelectionsResponse"><path codeLine="184" d="M911.582,516.5671 C976.816,580.9911 1044.92,648.2471 1081.62,684.4911 " fill="none" id="CardSelectionManager-to-ScheduledCardSelectionsResponse" style="stroke:#27AE60;stroke-width:2.0;stroke-dasharray:7.0,7.0;"/><polygon fill="#27AE60" points="1085.5,688.3271,1081.9088,679.1563,1081.9431,684.8131,1076.2864,684.8473,1085.5,688.3271" style="stroke:#27AE60;stroke-width:2.0;"/><polygon fill="#000000" points="969.5576,559.69,965.187,551.2431,961.0568,555.4253,969.5576,559.69" style="stroke:#000000;stroke-width:1.0;"/><text fill="#000000" font-family="sans-serif" font-size="13" lengthAdjust="spacing" textLength="21" x="975" y="561.5594">use</text></g><!--link CardSelectionManager to CardSelectionResult--><g id="link_CardSelectionManager_CardSelectionResult"><path codeLine="185" d="M397.469,516.7811 C382.501,526.3821 367.937,536.3081 354,546.5311 C311.259,577.8811 270.231,621.6411 240.841,656.2191 " fill="none" id="CardSelectionManager-to-CardSelectionResult" style="stroke:#3498DB;stroke-width:2.0;stroke-dasharray:7.0,7.0;"/><polygon fill="#3498DB" points="237.316,660.3881,246.1822,656.0996,240.5449,656.5705,240.074,650.9333,237.316,660.3881" style="stroke:#3498DB;stroke-width:2.0;"/><polygon fill="#000000" points="355.2655,559.5013,363.9755,555.682,360.0671,551.2918,355.2655,559.5013" style="stroke:#000000;stroke-width:1.0;"/><text fill="#000000" font-family="sans-serif" font-size="13" lengthAdjust="spacing" textLength="40" x="368" y="561.5594">provide</text></g><!--link CardSelectionManager to CardReader--><g id="link_CardSelectionManager_CardReader"><path codeLine="186" d="M1114.91,189.5011 C1196.98,160.0711 1284.7,133.8911 1369,118.5311 C1525.97,89.9211 1586.08,45.6211 1728,118.5311 C1800.03,155.5411 1848.1,239.3511 1873.73,296.0811 " fill="none" id="CardSelectionManager-to-CardReader" style="stroke:#27AE60;stroke-width:2.0;stroke-dasharray:7.0,7.0;"/><polygon fill="#27AE60" points="1875.84,300.8011,1875.82,290.9523,1873.8,296.2362,1868.5161,294.2162,1875.84,300.8011" style="stroke:#27AE60;stroke-width:2.0;"/><polygon fill="#000000" points="1515.9514,61.872,1507.403,57.7036,1506.5855,63.5243,1515.9514,61.872" style="stroke:#000000;stroke-width:1.0;"/><text fill="#000000" font-family="sans-serif" font-size="13" lengthAdjust="spacing" textLength="21" x="1520" y="66.5594">use</text></g><!--link CardSelectionManager to NotificationMode--><g id="link_CardSelectionManager_NotificationMode"><path codeLine="187" d="M1173.53,516.7471 C1205.77,539.8751 1235.58,566.0251 1261,595.5311 C1331.85,677.7751 1280.92,733.2181 1331,829.5311 C1345.89,858.1681 1356.14,861.0901 1376,886.5311 C1391.72,906.6601 1408.99,928.9991 1423.69,948.0751 " fill="none" id="CardSelectionManager-to-NotificationMode" style="stroke:#27AE60;stroke-width:2.0;stroke-dasharray:7.0,7.0;"/><polygon fill="#27AE60" points="1426.98,952.3451,1424.6684,942.7713,1423.9337,948.3803,1418.3247,947.6455,1426.98,952.3451" style="stroke:#27AE60;stroke-width:2.0;"/><polygon fill="#000000" points="1338.5085,717.0018,1336.5129,707.703,1331.4283,710.6519,1338.5085,717.0018" style="stroke:#000000;stroke-width:1.0;"/><text fill="#000000" font-family="sans-serif" font-size="13" lengthAdjust="spacing" textLength="21" x="1345" y="718.0594">use</text></g><!--link CardSelectionManager to DetectionMode--><g id="link_CardSelectionManager_DetectionMode"><path codeLine="188" d="M1244.15,498.6731 C1271.66,513.2221 1298.17,529.1371 1323,546.5311 C1367.62,577.7911 1404.66,628.5301 1427.84,665.5001 " fill="none" id="CardSelectionManager-to-DetectionMode" style="stroke:#27AE60;stroke-width:2.0;stroke-dasharray:7.0,7.0;"/><polygon fill="#27AE60" points="1430.6,669.9381,1429.2586,660.181,1427.9659,665.6882,1422.4587,664.3955,1430.6,669.9381" style="stroke:#27AE60;stroke-width:2.0;"/><polygon fill="#000000" points="1354.7013,559.5382,1349.9814,551.2815,1346.0297,555.6326,1354.7013,559.5382" style="stroke:#000000;stroke-width:1.0;"/><text fill="#000000" font-family="sans-serif" font-size="13" lengthAdjust="spacing" textLength="21" x="1360" y="561.5594">use</text></g><!--link CardSelectionManager to InvalidCardResponseException--><g id="link_CardSelectionManager_InvalidCardResponseException"><path codeLine="189" d="M731.997,516.5671 C727.32,567.2291 722.482,619.6441 719.001,657.3501 " fill="none" id="CardSelectionManager-to-InvalidCardResponseException" style="stroke:#3498DB;stroke-width:2.0;stroke-dasharray:7.0,7.0;"/><polygon fill="#3498DB" points="718.541,662.3391,723.3521,653.7453,719.001,657.3603,715.386,653.0092,718.541,662.3391" style="stroke:#3498DB;stroke-width:2.0;"/><polygon fill="#000000" points="733.5404,561.1554,737.2983,552.4188,731.4453,551.8785,733.5404,561.1554" style="stroke:#000000;stroke-width:1.0;"/><text fill="#000000" font-family="sans-serif" font-size="13" lengthAdjust="spacing" textLength="31" x="743" y="561.5594">throw</text></g><!--link ObservableCardReader to CardReaderObserverSpi--><g id="link_ObservableCardReader_CardReaderObserverSpi"><path codeLine="191" d="M1876.59,829.6461 C1846.11,875.3701 1813.27,924.6241 1791.57,957.1701 " fill="none" id="ObservableCardReader-to-CardReaderObserverSpi" style="stroke:#27AE60;stroke-width:2.0;stroke-dasharray:7.0,7.0;"/><polygon fill="#27AE60" points="1788.72,961.4511,1797.0418,956.1834,1791.4945,957.2915,1790.3864,951.7442,1788.72,961.4511" style="stroke:#27AE60;stroke-width:2.0;"/><polygon fill="#000000" points="1856.2264,873.3368,1863.6892,867.4412,1858.7986,864.1807,1856.2264,873.3368" style="stroke:#000000;stroke-width:1.0;"/><text fill="#000000" font-family="sans-serif" font-size="13" lengthAdjust="spacing" textLength="21" x="1868" y="874.5594">use</text></g><!--link CardReaderObserverSpi to CardReaderEvent--><g id="link_CardReaderObserverSpi_CardReaderEvent"><path codeLine="193" d="M1751.81,1028.6441 C1738.03,1058.2131 1717.44,1102.4231 1701.04,1137.6241 " fill="none" id="CardReaderObserverSpi-to-CardReaderEvent" style="stroke:#27AE60;stroke-width:2.0;stroke-dasharray:7.0,7.0;"/><polygon fill="#27AE60" points="1698.86,1142.3091,1706.2885,1135.8424,1700.9729,1137.7774,1699.0378,1132.4618,1698.86,1142.3091" style="stroke:#27AE60;stroke-width:2.0;"/><polygon fill="#000000" points="1723.8886,1107.7089,1730.3722,1100.751,1725.0442,1098.2688,1723.8886,1107.7089" style="stroke:#000000;stroke-width:1.0;"/><text fill="#000000" font-family="sans-serif" font-size="13" lengthAdjust="spacing" textLength="21" x="1735" y="1108.5594">use</text></g><!--link SmartCard to ReaderProtocolNotSupportedException--><!--link ReaderProtocolNotSupportedException to ReaderCommunicationException--><!--link ReaderCommunicationException to CardCommunicationException--><!--SRC=[fLdRSjis47tNLw3sWwqab1DPZcEFwncAX19DPTaZAMazRIU3aB34XY8u82J7zVZVk-3z0bxQ-iK4S73sWiNkaXAES6aFmPz1t2S_O1uLI4DMEj04vLl78wx6AR4fr_uYUw8Htm7Kky7fu3Kw7huTdcflpxJXiD-Zder4oDaxGZ__Z5QVy0s61nWQREVI7G-G4mGx6Y2Reakq4S8FBazEDcBhMinbt68s3GOMsvuyy1D1lhcKx3IRQbQqMp45Zu6pzZJV9UAazvDD7noF8kFhnmM-VuSc7oONaulIz11DXfFJoQWqVOhm6Jx7PVG8cUVcs3HBqsV8q8s9EInDlqTZqpWrpdFJi-dy5tGwklXWZdEpdvSO3Szr_Fwjz9MceQLuSi4lOaC4ifbt9D0Zuz_HeoCsoAEFQ4zvu30FiGS4jdfYjtLXMo_uxdW-uMIB0ZWhoiIJJ_Knut1OXlGeEjGlJCESA87J0d0yqi_ncH9e51bDyzrug0JY0X2FBqv1T6WVdfjItzmkmoL14E5N6yVwxj4WG7bQdNFsc5y2fdlgkkonmaAixslETfuTIvxW2JQmMbWCCKUwyTO4oWMrM_YkhZYrhw-1riGcDXfeKoG-7q4Sz3OE17eocRa9fDxjk0yNfKsm7y92sIDiJCuRPMVW3tWqqir4V3fVqE2RkskNBq6XFUF9sMJSA3s1nh4Uouvd2v8_SagzLj5hYGfbNqpEyQHHTegDxrGiF9akIt_g8lmfbAr37E4ssI5qQ9pYixpefwBaA2SQj_CLdg_2hEY3LBAcw83nzI3BkeCawmwYh7k0I82YHnrIxtEOiO_G4Y- -J278vKYmDHKRokD5-VVQafgYWrUl7YJNgrSGw3757MS-vSAXGKXTcCanX2pFWI32iLvGnhCKtF7Mw0jUBAUtynJ-aebsF33XWLYGwGYt8xbbufW5z9wJBKN7_UBoDyOWrNjGBmpc2M91LG5h6b0Ww8xJW7eYZr8hnRm7PxtZifha5AG_15Ime47dFNDi1BeuUo8e-4mmA5leE3R5PMi7JZ6PbsQzIPpbRvw2yc9VGMxJVqFVhtEfiUCSF95nj7Zazbj0-Vw_-IEW8bgDIGIKAVp3ehvy-4GysuMDnnb90sm9uKrBS_sUwWniEw9HKKSyB7vMUPdJBTlJ_yDWGTYbu6fSWcSHT2YUA41KpXE42odUf89Qqcnqd3xUG3i44P4RzPKKp2yng63XxNN-fj55OHPS9naiwiYWtcwBYdeKZtw1xx2-ciu_5cQNC373oq-tgrhIEHFE0yHn3Qy- -rM_NnQcRlILyGcRNs_di_kkoGRlPHwepJWHI9btLf2g9IJyNrvSMXjgGzzfIqbBwaRk2HOqyE5VkAyDqk3l0oappCWbGq9TYiOO-iByEfr33LXXixeI-wowiC0tjrzA2v_d-XTzEjF7CwpG3GhDtJGTfIKhy9rSNLgcTQdnMFAtgmZFufHv-ICyBf-fLHmN3-YbgmgrsQTDg_nsQ4zvcfqjg5AGCAVU0qkJFa_3x0rQRQ2PbGaMqJgTewUNNbhVPzXO9HKsStmIKw7xqv5UK1vs9mjr5oK5t10FY6jp-ytE5GwqZnbUtjfADfCPp-SKcgGC6PrUDhJo8rMEYWaMW241DJR4ywXRbHMxb_xmMPGyKzAbHJt27QPCoCws0PySesgrBBz00JSRF0IgXocrXZrNGhC0LXU4E7_K42aBDLDCla4DPUHDDGrxfOb-1vC93sXhlci31CthPITTXHyABiFNYa8Sn3Mjn5CR47aUbN5HiBIH9jrT8ooVyNCtL68HbZrM-6BVc6NJQzwQQBFRzjmjDHuijt4B4afAHwfKc5NGE_O8oT0pYI1brqQD-PEWl_yP5iHG8TtttJYwLALGbGYRZ8iFgUI96-9VJM73MeP_QiXrg4KoglPgcSM0qsNtJRCfLHx9O8awKy-cFrgRxBQRyAoAa-Grxkfg0UsaiwLfrRg-_WC4xw6fiwDh7z6aw-5nDW7Axcl49g6-XJY7qEp_zwtvMcYHNK3xbGeONH3ycu7lP06C-i6ZXfTSjNUYJ6YmxNRdnS5Nz4uJeEoTHcopT_xDrbRlT3KxVKzaOhdpPJAZjihwHfpQ2SrRZZkzydOrHePKmmdMBvTLRq0sdrxtZQrdT_JIUv7VWVGWO9OJaWMzdhAclzQqIf6kGt9dlH5QiU2hiOCGEhWkDGU7qGVfImGwe-kQhR2hSnjT8koLktXfdU8bfu8h2irUXWxZx-gNilJkvHUtw-hUdG-xsvAkYgcdgZLIbQmkj6zBskh4XAmmbvnJkwk3wfruLDRKER1Aa4HCBXIw2guqcLqtDaPdxQx68fGPBEGTbSVLESpROZgFKaHiPMVu8NYctzz-Zhu3Ps6b_RvnR9jwVsfTidElIpgkKAfpMQ-nIAKaSQgfpucnTSlL_GmNFd9d7x0Fav_ddb-gguFiWy9XydkT4bTuy-qE7HHQwSFajp_Ozmy0]--></g></svg>