<?xml version="1.0" encoding="us-ascii" standalone="no"?><svg xmlns="http://www.w3.org/2000/svg" xmlns:xlink="http://www.w3.org/1999/xlink" contentStyleType="text/css" height="1646px" preserveAspectRatio="none" style="width:3245px;height:1646px;background:#FFFFFF;" version="1.1" viewBox="0 0 3245 1646" width="3245px" zoomAndPan="magnify"><defs/><g><text fill="#000000" font-family="sans-serif" font-size="14" font-weight="bold" lengthAdjust="spacing" textLength="347" x="1442.405" y="25.1074">Calypsonet Terminal Reader API 2.0.+ (2023-06-01)</text><!--cluster readerSpi--><g id="cluster_readerSpi"><path d="M1738.5,1121.1348 L1761.5,1121.1348 A3.75,3.75 0 0 1 1764,1123.6348 L1771,1145.7559 L2762.5,1145.7559 A2.5,2.5 0 0 1 2765,1148.2559 L2765,1238.6348 A2.5,2.5 0 0 1 2762.5,1241.1348 L1738.5,1241.1348 A2.5,2.5 0 0 1 1736,1238.6348 L1736,1123.6348 A2.5,2.5 0 0 1 1738.5,1121.1348 " fill="#F8F9F9" style="stroke:#000000;stroke-width:1.5;"/><line style="stroke:#000000;stroke-width:1.5;" x1="1736" x2="1771" y1="1145.7559" y2="1145.7559"/><text fill="#000000" font-family="sans-serif" font-size="14" font-weight="bold" lengthAdjust="spacing" textLength="22" x="1740" y="1138.2422">SPI</text></g><!--cluster selectionApi--><g id="cluster_selectionApi"><path d="M8.5,45.6348 L75.5,45.6348 A3.75,3.75 0 0 1 78,48.1348 L85,70.2559 L1620.5,70.2559 A2.5,2.5 0 0 1 1623,72.7559 L1623,1266.1348 A2.5,2.5 0 0 1 1620.5,1268.6348 L8.5,1268.6348 A2.5,2.5 0 0 1 6,1266.1348 L6,48.1348 A2.5,2.5 0 0 1 8.5,45.6348 " fill="#F8F9F9" style="stroke:#000000;stroke-width:1.5;"/><line style="stroke:#000000;stroke-width:1.5;" x1="6" x2="85" y1="70.2559" y2="70.2559"/><text fill="#000000" font-family="sans-serif" font-size="14" font-weight="bold" lengthAdjust="spacing" textLength="66" x="10" y="62.7422">Selection</text></g><!--cluster selectionSpi--><g id="cluster_selectionSpi"><path d="M818.5,855.1348 L841.5,855.1348 A3.75,3.75 0 0 1 844,857.6348 L851,879.7559 L1345.5,879.7559 A2.5,2.5 0 0 1 1348,882.2559 L1348,990.6348 A2.5,2.5 0 0 1 1345.5,993.1348 L818.5,993.1348 A2.5,2.5 0 0 1 816,990.6348 L816,857.6348 A2.5,2.5 0 0 1 818.5,855.1348 " fill="#F2F3F4" style="stroke:#000000;stroke-width:1.5;"/><line style="stroke:#000000;stroke-width:1.5;" x1="816" x2="851" y1="879.7559" y2="879.7559"/><text fill="#000000" font-family="sans-serif" font-size="14" font-weight="bold" lengthAdjust="spacing" textLength="22" x="820" y="872.2422">SPI</text></g><!--class CardReaderObserverSpi--><g id="elem_CardReaderObserverSpi"><rect codeLine="101" fill="#FEFECE" height="66.6211" id="CardReaderObserverSpi" rx="2.5" ry="2.5" style="stroke:#D4AC0D;stroke-width:2.0;" width="398" x="2351" y="1158.1348"/><ellipse cx="2462.25" cy="1174.1348" fill="#B4A7E5" rx="11" ry="11" style="stroke:#181818;stroke-width:1.0;"/><path d="M2463.2031,1170.7754 L2463.2031,1177.4316 L2464.9219,1177.4316 Q2465.5313,1177.4316 2465.7969,1177.666 Q2466.0625,1177.9004 2466.0625,1178.291 Q2466.0625,1178.666 2465.7969,1178.9004 Q2465.5313,1179.1348 2464.9219,1179.1348 L2459.7813,1179.1348 Q2459.1719,1179.1348 2458.9063,1178.9004 Q2458.6406,1178.666 2458.6406,1178.2754 Q2458.6406,1177.9004 2458.9063,1177.666 Q2459.1719,1177.4316 2459.7813,1177.4316 L2461.5,1177.4316 L2461.5,1170.7754 L2459.7813,1170.7754 Q2459.1719,1170.7754 2458.9063,1170.541 Q2458.6406,1170.3066 2458.6406,1169.916 Q2458.6406,1169.541 2458.9063,1169.3066 Q2459.1719,1169.0723 2459.7813,1169.0723 L2464.9219,1169.0723 Q2465.5313,1169.0723 2465.7969,1169.3066 Q2466.0625,1169.541 2466.0625,1169.916 Q2466.0625,1170.3066 2465.7969,1170.541 Q2465.5313,1170.7754 2464.9219,1170.7754 L2463.2031,1170.7754 Z " fill="#000000"/><ellipse cx="2487.75" cy="1173.6348" fill="#84BE84" rx="3" ry="3" style="stroke:#038048;stroke-width:1.0;"/><text fill="#000000" font-family="sans-serif" font-size="14" font-style="italic" lengthAdjust="spacing" textLength="156" x="2493.75" y="1179.9316">CardReaderObserverSpi</text><line style="stroke:#D4AC0D;stroke-width:2.0;" x1="2352" x2="2748" y1="1190.1348" y2="1190.1348"/><line style="stroke:#D4AC0D;stroke-width:2.0;" x1="2352" x2="2748" y1="1198.1348" y2="1198.1348"/><ellipse cx="2362" cy="1212.9453" fill="#84BE84" rx="3" ry="3" style="stroke:#038048;stroke-width:1.0;"/><text fill="#000000" font-family="sans-serif" font-size="14" lengthAdjust="spacing" textLength="372" x="2371" y="1217.2422">void onReaderEvent (CardReaderEvent cardReaderEvent)</text></g><!--class CardReaderObservationExceptionHandlerSpi--><g id="elem_CardReaderObservationExceptionHandlerSpi"><rect codeLine="104" fill="#FEFECE" height="66.6211" id="CardReaderObservationExceptionHandlerSpi" rx="2.5" ry="2.5" style="stroke:#D4AC0D;stroke-width:2.0;" width="564" x="1752" y="1158.1348"/><ellipse cx="1881.75" cy="1174.1348" fill="#B4A7E5" rx="11" ry="11" style="stroke:#181818;stroke-width:1.0;"/><path d="M1882.7031,1170.7754 L1882.7031,1177.4316 L1884.4219,1177.4316 Q1885.0313,1177.4316 1885.2969,1177.666 Q1885.5625,1177.9004 1885.5625,1178.291 Q1885.5625,1178.666 1885.2969,1178.9004 Q1885.0313,1179.1348 1884.4219,1179.1348 L1879.2813,1179.1348 Q1878.6719,1179.1348 1878.4063,1178.9004 Q1878.1406,1178.666 1878.1406,1178.2754 Q1878.1406,1177.9004 1878.4063,1177.666 Q1878.6719,1177.4316 1879.2813,1177.4316 L1881,1177.4316 L1881,1170.7754 L1879.2813,1170.7754 Q1878.6719,1170.7754 1878.4063,1170.541 Q1878.1406,1170.3066 1878.1406,1169.916 Q1878.1406,1169.541 1878.4063,1169.3066 Q1878.6719,1169.0723 1879.2813,1169.0723 L1884.4219,1169.0723 Q1885.0313,1169.0723 1885.2969,1169.3066 Q1885.5625,1169.541 1885.5625,1169.916 Q1885.5625,1170.3066 1885.2969,1170.541 Q1885.0313,1170.7754 1884.4219,1170.7754 L1882.7031,1170.7754 Z " fill="#000000"/><ellipse cx="1907.25" cy="1173.6348" fill="#84BE84" rx="3" ry="3" style="stroke:#038048;stroke-width:1.0;"/><text fill="#000000" font-family="sans-serif" font-size="14" font-style="italic" lengthAdjust="spacing" textLength="285" x="1913.25" y="1179.9316">CardReaderObservationExceptionHandlerSpi</text><line style="stroke:#D4AC0D;stroke-width:2.0;" x1="1753" x2="2315" y1="1190.1348" y2="1190.1348"/><line style="stroke:#D4AC0D;stroke-width:2.0;" x1="1753" x2="2315" y1="1198.1348" y2="1198.1348"/><ellipse cx="1763" cy="1212.9453" fill="#84BE84" rx="3" ry="3" style="stroke:#038048;stroke-width:1.0;"/><text fill="#000000" font-family="sans-serif" font-size="14" lengthAdjust="spacing" textLength="538" x="1772" y="1217.2422">void onReaderObservationError (String contextInfo, String readerName, Throwable e)</text></g><!--class CardSelectionManagerFactory--><g id="elem_CardSelectionManagerFactory"><rect codeLine="246" fill="#FDEDEC" height="66.6211" id="CardSelectionManagerFactory" rx="2.5" ry="2.5" style="stroke:#E74C3C;stroke-width:2.0;" width="285" x="958.5" y="82.6348"/><ellipse cx="995.1" cy="98.6348" fill="#B4A7E5" rx="11" ry="11" style="stroke:#181818;stroke-width:1.0;"/><path d="M996.0531,95.2754 L996.0531,101.9316 L997.7719,101.9316 Q998.3813,101.9316 998.6469,102.166 Q998.9125,102.4004 998.9125,102.791 Q998.9125,103.166 998.6469,103.4004 Q998.3813,103.6348 997.7719,103.6348 L992.6313,103.6348 Q992.0219,103.6348 991.7563,103.4004 Q991.4906,103.166 991.4906,102.7754 Q991.4906,102.4004 991.7563,102.166 Q992.0219,101.9316 992.6313,101.9316 L994.35,101.9316 L994.35,95.2754 L992.6313,95.2754 Q992.0219,95.2754 991.7563,95.041 Q991.4906,94.8066 991.4906,94.416 Q991.4906,94.041 991.7563,93.8066 Q992.0219,93.5723 992.6313,93.5723 L997.7719,93.5723 Q998.3813,93.5723 998.6469,93.8066 Q998.9125,94.041 998.9125,94.416 Q998.9125,94.8066 998.6469,95.041 Q998.3813,95.2754 997.7719,95.2754 L996.0531,95.2754 Z " fill="#000000"/><ellipse cx="1018.9" cy="98.1348" fill="#84BE84" rx="3" ry="3" style="stroke:#038048;stroke-width:1.0;"/><text fill="#0000FF" font-family="sans-serif" font-size="14" font-style="italic" lengthAdjust="spacing" textLength="194" x="1024.9" y="104.4316">CardSelectionManagerFactory</text><line style="stroke:#E74C3C;stroke-width:2.0;" x1="959.5" x2="1242.5" y1="114.6348" y2="114.6348"/><line style="stroke:#E74C3C;stroke-width:2.0;" x1="959.5" x2="1242.5" y1="122.6348" y2="122.6348"/><ellipse cx="969.5" cy="137.4453" fill="#84BE84" rx="3" ry="3" style="stroke:#038048;stroke-width:1.0;"/><text fill="#0000FF" font-family="sans-serif" font-size="14" lengthAdjust="spacing" textLength="259" x="978.5" y="141.7422">CardSelectionManager createManager ()</text></g><!--class CardSelectionManager--><g id="elem_CardSelectionManager"><rect codeLine="116" fill="#FEFECE" height="327.3164" id="CardSelectionManager" rx="2.5" ry="2.5" style="stroke:#D4AC0D;stroke-width:2.0;" width="994" x="604" y="228.6348"/><ellipse cx="1018.25" cy="244.6348" fill="#B4A7E5" rx="11" ry="11" style="stroke:#181818;stroke-width:1.0;"/><path d="M1019.2031,241.2754 L1019.2031,247.9316 L1020.9219,247.9316 Q1021.5313,247.9316 1021.7969,248.166 Q1022.0625,248.4004 1022.0625,248.791 Q1022.0625,249.166 1021.7969,249.4004 Q1021.5313,249.6348 1020.9219,249.6348 L1015.7813,249.6348 Q1015.1719,249.6348 1014.9063,249.4004 Q1014.6406,249.166 1014.6406,248.7754 Q1014.6406,248.4004 1014.9063,248.166 Q1015.1719,247.9316 1015.7813,247.9316 L1017.5,247.9316 L1017.5,241.2754 L1015.7813,241.2754 Q1015.1719,241.2754 1014.9063,241.041 Q1014.6406,240.8066 1014.6406,240.416 Q1014.6406,240.041 1014.9063,239.8066 Q1015.1719,239.5723 1015.7813,239.5723 L1020.9219,239.5723 Q1021.5313,239.5723 1021.7969,239.8066 Q1022.0625,240.041 1022.0625,240.416 Q1022.0625,240.8066 1021.7969,241.041 Q1021.5313,241.2754 1020.9219,241.2754 L1019.2031,241.2754 Z " fill="#000000"/><ellipse cx="1043.75" cy="244.1348" fill="#84BE84" rx="3" ry="3" style="stroke:#038048;stroke-width:1.0;"/><text fill="#000000" font-family="sans-serif" font-size="14" font-style="italic" lengthAdjust="spacing" textLength="146" x="1049.75" y="250.4316">CardSelectionManager</text><line style="stroke:#D4AC0D;stroke-width:2.0;" x1="605" x2="1597" y1="260.6348" y2="260.6348"/><line style="stroke:#D4AC0D;stroke-width:2.0;" x1="605" x2="1597" y1="268.6348" y2="268.6348"/><ellipse cx="615" cy="283.4453" fill="#84BE84" rx="3" ry="3" style="stroke:#038048;stroke-width:1.0;"/><text fill="#000000" font-family="sans-serif" font-size="14" lengthAdjust="spacing" textLength="204" x="624" y="287.7422">void setMultipleSelectionMode ()</text><text fill="#000000" font-family="sans-serif" font-size="14" lengthAdjust="spacing" textLength="4" x="624" y="306.3633">&#160;</text><ellipse cx="615" cy="320.6875" fill="#84BE84" rx="3" ry="3" style="stroke:#038048;stroke-width:1.0;"/><text fill="#0000FF" font-family="sans-serif" font-size="14" lengthAdjust="spacing" textLength="617" x="624" y="324.9844">int prepareSelection (CardSelector cardSelector, CardSelectionExtension cardSelectionExtension)</text><ellipse cx="615" cy="339.3086" fill="#84BE84" rx="3" ry="3" style="stroke:#038048;stroke-width:1.0;"/><text fill="#000000" font-family="sans-serif" font-size="14" lengthAdjust="spacing" textLength="199" x="624" y="343.6055">void prepareReleaseChannel ()</text><text fill="#000000" font-family="sans-serif" font-size="14" lengthAdjust="spacing" textLength="4" x="624" y="362.2266">&#160;</text><ellipse cx="615" cy="376.5508" fill="#84BE84" rx="3" ry="3" style="stroke:#038048;stroke-width:1.0;"/><text fill="#000000" font-family="sans-serif" font-size="14" lengthAdjust="spacing" textLength="239" x="624" y="380.8477">String exportCardSelectionScenario ()</text><ellipse cx="615" cy="395.1719" fill="#84BE84" rx="3" ry="3" style="stroke:#038048;stroke-width:1.0;"/><text fill="#000000" font-family="sans-serif" font-size="14" lengthAdjust="spacing" textLength="400" x="624" y="399.4688">int importCardSelectionScenario (String cardSelectionScenario)</text><text fill="#000000" font-family="sans-serif" font-size="14" lengthAdjust="spacing" textLength="4" x="624" y="418.0898">&#160;</text><ellipse cx="615" cy="432.4141" fill="#84BE84" rx="3" ry="3" style="stroke:#038048;stroke-width:1.0;"/><text fill="#000000" font-family="sans-serif" font-size="14" lengthAdjust="spacing" textLength="499" x="624" y="436.7109">CardSelectionResult processCardSelectionScenario (CardReader cardReader)</text><text fill="#000000" font-family="sans-serif" font-size="14" lengthAdjust="spacing" textLength="4" x="624" y="455.332">&#160;</text><ellipse cx="615" cy="469.6563" fill="#84BE84" rx="3" ry="3" style="stroke:#038048;stroke-width:1.0;"/><text fill="#000000" font-family="sans-serif" font-size="14" lengthAdjust="spacing" textLength="968" x="624" y="473.9531">void scheduleCardSelectionScenario (ObservableCardReader observableCardReader, DetectionMode detectionMode, NotificationMode notificationMode)</text><ellipse cx="615" cy="488.2773" fill="#84BE84" rx="3" ry="3" style="stroke:#038048;stroke-width:1.0;"/><text fill="#000000" font-family="sans-serif" font-size="14" lengthAdjust="spacing" textLength="866" x="624" y="492.5742">CardSelectionResult parseScheduledCardSelectionsResponse (ScheduledCardSelectionsResponse scheduledCardSelectionsResponse)</text><text fill="#000000" font-family="sans-serif" font-size="14" lengthAdjust="spacing" textLength="4" x="624" y="511.1953">&#160;</text><ellipse cx="615" cy="525.5195" fill="#84BE84" rx="3" ry="3" style="stroke:#038048;stroke-width:1.0;"/><text fill="#000000" font-family="sans-serif" font-size="14" lengthAdjust="spacing" textLength="306" x="624" y="529.8164">String exportProcessedCardSelectionScenario ()</text><ellipse cx="615" cy="544.1406" fill="#84BE84" rx="3" ry="3" style="stroke:#038048;stroke-width:1.0;"/><text fill="#000000" font-family="sans-serif" font-size="14" lengthAdjust="spacing" textLength="650" x="624" y="548.4375">CardSelectionResult importProcessedCardSelectionScenario (String processedCardSelectionScenario)</text></g><!--class CardSelectorFactory--><g id="elem_CardSelectorFactory"><rect codeLine="247" fill="#FDEDEC" height="85.2422" id="CardSelectorFactory" rx="2.5" ry="2.5" style="stroke:#E74C3C;stroke-width:2.0;" width="318" x="513" y="1149.1348"/><ellipse cx="596.75" cy="1165.1348" fill="#B4A7E5" rx="11" ry="11" style="stroke:#181818;stroke-width:1.0;"/><path d="M597.7031,1161.7754 L597.7031,1168.4316 L599.4219,1168.4316 Q600.0313,1168.4316 600.2969,1168.666 Q600.5625,1168.9004 600.5625,1169.291 Q600.5625,1169.666 600.2969,1169.9004 Q600.0313,1170.1348 599.4219,1170.1348 L594.2813,1170.1348 Q593.6719,1170.1348 593.4063,1169.9004 Q593.1406,1169.666 593.1406,1169.2754 Q593.1406,1168.9004 593.4063,1168.666 Q593.6719,1168.4316 594.2813,1168.4316 L596,1168.4316 L596,1161.7754 L594.2813,1161.7754 Q593.6719,1161.7754 593.4063,1161.541 Q593.1406,1161.3066 593.1406,1160.916 Q593.1406,1160.541 593.4063,1160.3066 Q593.6719,1160.0723 594.2813,1160.0723 L599.4219,1160.0723 Q600.0313,1160.0723 600.2969,1160.3066 Q600.5625,1160.541 600.5625,1160.916 Q600.5625,1161.3066 600.2969,1161.541 Q600.0313,1161.7754 599.4219,1161.7754 L597.7031,1161.7754 Z " fill="#000000"/><ellipse cx="622.25" cy="1164.6348" fill="#84BE84" rx="3" ry="3" style="stroke:#038048;stroke-width:1.0;"/><text fill="#0000FF" font-family="sans-serif" font-size="14" font-style="italic" lengthAdjust="spacing" textLength="131" x="628.25" y="1170.9316">CardSelectorFactory</text><line style="stroke:#E74C3C;stroke-width:2.0;" x1="514" x2="830" y1="1181.1348" y2="1181.1348"/><line style="stroke:#E74C3C;stroke-width:2.0;" x1="514" x2="830" y1="1189.1348" y2="1189.1348"/><ellipse cx="524" cy="1203.9453" fill="#84BE84" rx="3" ry="3" style="stroke:#038048;stroke-width:1.0;"/><text fill="#0000FF" font-family="sans-serif" font-size="14" lengthAdjust="spacing" textLength="292" x="533" y="1208.2422">BasicCardSelector createBasicCardSelector ()</text><ellipse cx="524" cy="1222.5664" fill="#84BE84" rx="3" ry="3" style="stroke:#038048;stroke-width:1.0;"/><text fill="#0000FF" font-family="sans-serif" font-size="14" lengthAdjust="spacing" textLength="260" x="533" y="1226.8633">IsoCardSelector createIsoCardSelector ()</text></g><!--class CardSelector--><g id="elem_CardSelector"><rect codeLine="137" fill="#FEFECE" height="85.2422" id="CardSelector" rx="2.5" ry="2.5" style="stroke:#D4AC0D;stroke-width:2.0;" width="352" x="22" y="644.1348"/><ellipse cx="70.25" cy="660.1348" fill="#B4A7E5" rx="11" ry="11" style="stroke:#181818;stroke-width:1.0;"/><path d="M71.2031,656.7754 L71.2031,663.4316 L72.9219,663.4316 Q73.5313,663.4316 73.7969,663.666 Q74.0625,663.9004 74.0625,664.291 Q74.0625,664.666 73.7969,664.9004 Q73.5313,665.1348 72.9219,665.1348 L67.7813,665.1348 Q67.1719,665.1348 66.9063,664.9004 Q66.6406,664.666 66.6406,664.2754 Q66.6406,663.9004 66.9063,663.666 Q67.1719,663.4316 67.7813,663.4316 L69.5,663.4316 L69.5,656.7754 L67.7813,656.7754 Q67.1719,656.7754 66.9063,656.541 Q66.6406,656.3066 66.6406,655.916 Q66.6406,655.541 66.9063,655.3066 Q67.1719,655.0723 67.7813,655.0723 L72.9219,655.0723 Q73.5313,655.0723 73.7969,655.3066 Q74.0625,655.541 74.0625,655.916 Q74.0625,656.3066 73.7969,656.541 Q73.5313,656.7754 72.9219,656.7754 L71.2031,656.7754 Z " fill="#000000"/><ellipse cx="95.75" cy="659.6348" fill="#84BE84" rx="3" ry="3" style="stroke:#038048;stroke-width:1.0;"/><text fill="#0000FF" font-family="sans-serif" font-size="14" font-style="italic" lengthAdjust="spacing" textLength="83" x="101.75" y="665.9316">CardSelector</text><rect fill="#FFFFFF" height="17.9609" style="stroke:#D4AC0D;stroke-width:1.0;stroke-dasharray:2.0,2.0;" width="151" x="226" y="641.1348"/><text fill="#000000" font-family="sans-serif" font-size="12" font-style="italic" lengthAdjust="spacing" textLength="149" x="227" y="655.084">T extends CardSelector&lt;T&gt;</text><line style="stroke:#D4AC0D;stroke-width:2.0;" x1="23" x2="373" y1="676.1348" y2="676.1348"/><line style="stroke:#D4AC0D;stroke-width:2.0;" x1="23" x2="373" y1="684.1348" y2="684.1348"/><ellipse cx="33" cy="698.9453" fill="#84BE84" rx="3" ry="3" style="stroke:#038048;stroke-width:1.0;"/><text fill="#0000FF" font-family="sans-serif" font-size="14" lengthAdjust="spacing" textLength="274" x="42" y="703.2422">T filterByCardProtocol (String cardProtocol)</text><ellipse cx="33" cy="717.5664" fill="#84BE84" rx="3" ry="3" style="stroke:#038048;stroke-width:1.0;"/><text fill="#0000FF" font-family="sans-serif" font-size="14" lengthAdjust="spacing" textLength="326" x="42" y="721.8633">T filterByPowerOnData (String powerOnDataRegex)</text></g><!--class BasicCardSelector--><g id="elem_BasicCardSelector"><rect codeLine="141" fill="#FEFECE" height="48" id="BasicCardSelector" rx="2.5" ry="2.5" style="stroke:#D4AC0D;stroke-width:2.0;" width="160" x="637" y="910.6348"/><ellipse cx="652" cy="926.6348" fill="#B4A7E5" rx="11" ry="11" style="stroke:#181818;stroke-width:1.0;"/><path d="M652.9531,923.2754 L652.9531,929.9316 L654.6719,929.9316 Q655.2813,929.9316 655.5469,930.166 Q655.8125,930.4004 655.8125,930.791 Q655.8125,931.166 655.5469,931.4004 Q655.2813,931.6348 654.6719,931.6348 L649.5313,931.6348 Q648.9219,931.6348 648.6563,931.4004 Q648.3906,931.166 648.3906,930.7754 Q648.3906,930.4004 648.6563,930.166 Q648.9219,929.9316 649.5313,929.9316 L651.25,929.9316 L651.25,923.2754 L649.5313,923.2754 Q648.9219,923.2754 648.6563,923.041 Q648.3906,922.8066 648.3906,922.416 Q648.3906,922.041 648.6563,921.8066 Q648.9219,921.5723 649.5313,921.5723 L654.6719,921.5723 Q655.2813,921.5723 655.5469,921.8066 Q655.8125,922.041 655.8125,922.416 Q655.8125,922.8066 655.5469,923.041 Q655.2813,923.2754 654.6719,923.2754 L652.9531,923.2754 Z " fill="#000000"/><ellipse cx="671" cy="926.1348" fill="#84BE84" rx="3" ry="3" style="stroke:#038048;stroke-width:1.0;"/><text fill="#0000FF" font-family="sans-serif" font-size="14" font-style="italic" lengthAdjust="spacing" textLength="117" x="677" y="932.4316">BasicCardSelector</text><line style="stroke:#D4AC0D;stroke-width:2.0;" x1="638" x2="796" y1="942.6348" y2="942.6348"/><line style="stroke:#D4AC0D;stroke-width:2.0;" x1="638" x2="796" y1="950.6348" y2="950.6348"/></g><!--class IsoCardSelector--><g id="elem_IsoCardSelector"><rect codeLine="143" fill="#FEFECE" height="141.1055" id="IsoCardSelector" rx="2.5" ry="2.5" style="stroke:#D4AC0D;stroke-width:2.0;" width="580" x="22" y="864.1348"/><ellipse cx="251.25" cy="880.1348" fill="#B4A7E5" rx="11" ry="11" style="stroke:#181818;stroke-width:1.0;"/><path d="M252.2031,876.7754 L252.2031,883.4316 L253.9219,883.4316 Q254.5313,883.4316 254.7969,883.666 Q255.0625,883.9004 255.0625,884.291 Q255.0625,884.666 254.7969,884.9004 Q254.5313,885.1348 253.9219,885.1348 L248.7813,885.1348 Q248.1719,885.1348 247.9063,884.9004 Q247.6406,884.666 247.6406,884.2754 Q247.6406,883.9004 247.9063,883.666 Q248.1719,883.4316 248.7813,883.4316 L250.5,883.4316 L250.5,876.7754 L248.7813,876.7754 Q248.1719,876.7754 247.9063,876.541 Q247.6406,876.3066 247.6406,875.916 Q247.6406,875.541 247.9063,875.3066 Q248.1719,875.0723 248.7813,875.0723 L253.9219,875.0723 Q254.5313,875.0723 254.7969,875.3066 Q255.0625,875.541 255.0625,875.916 Q255.0625,876.3066 254.7969,876.541 Q254.5313,876.7754 253.9219,876.7754 L252.2031,876.7754 Z " fill="#000000"/><ellipse cx="276.75" cy="879.6348" fill="#84BE84" rx="3" ry="3" style="stroke:#038048;stroke-width:1.0;"/><text fill="#0000FF" font-family="sans-serif" font-size="14" font-style="italic" lengthAdjust="spacing" textLength="102" x="282.75" y="885.9316">IsoCardSelector</text><line style="stroke:#D4AC0D;stroke-width:2.0;" x1="23" x2="601" y1="896.1348" y2="896.1348"/><line style="stroke:#D4AC0D;stroke-width:2.0;" x1="23" x2="601" y1="904.1348" y2="904.1348"/><ellipse cx="33" cy="918.9453" fill="#84BE84" rx="3" ry="3" style="stroke:#038048;stroke-width:1.0;"/><text fill="#0000FF" font-family="sans-serif" font-size="14" lengthAdjust="spacing" textLength="270" x="42" y="923.2422">IsoCardSelector filterByDfName (byte[] aid)</text><ellipse cx="33" cy="937.5664" fill="#84BE84" rx="3" ry="3" style="stroke:#038048;stroke-width:1.0;"/><text fill="#0000FF" font-family="sans-serif" font-size="14" lengthAdjust="spacing" textLength="272" x="42" y="941.8633">IsoCardSelector filterByDfName (String aid)</text><text fill="#000000" font-family="sans-serif" font-size="14" lengthAdjust="spacing" textLength="4" x="42" y="960.4844">&#160;</text><ellipse cx="33" cy="974.8086" fill="#84BE84" rx="3" ry="3" style="stroke:#038048;stroke-width:1.0;"/><text fill="#0000FF" font-family="sans-serif" font-size="14" lengthAdjust="spacing" textLength="428" x="42" y="979.1055">IsoCardSelector setFileOccurrence (FileOccurrence fileOccurrence)</text><ellipse cx="33" cy="993.4297" fill="#84BE84" rx="3" ry="3" style="stroke:#038048;stroke-width:1.0;"/><text fill="#0000FF" font-family="sans-serif" font-size="14" lengthAdjust="spacing" textLength="554" x="42" y="997.7266">IsoCardSelector setFileControlInformation (FileControlInformation fileControlInformation)</text></g><!--class FileOccurrence--><g id="elem_FileOccurrence"><rect codeLine="150" fill="#FEFECE" height="122.4844" id="FileOccurrence" rx="2.5" ry="2.5" style="stroke:#D4AC0D;stroke-width:2.0;" width="140" x="111" y="1130.6348"/><ellipse cx="126" cy="1146.6348" fill="#EB937F" rx="11" ry="11" style="stroke:#181818;stroke-width:1.0;"/><path d="M124.8594,1147.4316 L124.8594,1149.9316 L129.1875,1149.9316 L129.1875,1149.0098 Q129.1875,1148.4004 129.4219,1148.1348 Q129.6719,1147.8691 130.0469,1147.8691 Q130.4219,1147.8691 130.6563,1148.1348 Q130.8906,1148.4004 130.8906,1149.0098 L130.8906,1151.6348 L122.8906,1151.6348 Q122.2656,1151.6348 122,1151.4004 Q121.75,1151.166 121.75,1150.7754 Q121.75,1150.4004 122.0156,1150.166 Q122.2813,1149.9316 122.8906,1149.9316 L123.1563,1149.9316 L123.1563,1143.2754 L122.8906,1143.2754 Q122.2656,1143.2754 122,1143.041 Q121.75,1142.8066 121.75,1142.416 Q121.75,1142.041 122,1141.8066 Q122.2656,1141.5723 122.8906,1141.5723 L130.5156,1141.5723 L130.5156,1144.166 Q130.5156,1144.7754 130.2813,1145.041 Q130.0625,1145.291 129.6719,1145.291 Q129.2969,1145.291 129.0625,1145.041 Q128.8281,1144.7754 128.8281,1144.166 L128.8281,1143.2754 L124.8594,1143.2754 L124.8594,1145.7285 L126.3438,1145.7285 Q126.3438,1145.0723 126.4688,1144.8848 Q126.7344,1144.4785 127.2031,1144.4785 Q127.5781,1144.4785 127.8125,1144.7441 Q128.0469,1144.9941 128.0469,1145.6035 L128.0469,1147.5723 Q128.0469,1148.1191 127.9219,1148.3066 Q127.6563,1148.6973 127.2031,1148.6973 Q126.7344,1148.6973 126.4688,1148.291 Q126.3438,1148.1035 126.3438,1147.4316 L124.8594,1147.4316 Z " fill="#000000"/><ellipse cx="145" cy="1146.1348" fill="#84BE84" rx="3" ry="3" style="stroke:#038048;stroke-width:1.0;"/><text fill="#0000FF" font-family="sans-serif" font-size="14" lengthAdjust="spacing" textLength="97" x="151" y="1152.4316">FileOccurrence</text><line style="stroke:#D4AC0D;stroke-width:2.0;" x1="112" x2="250" y1="1162.6348" y2="1162.6348"/><text fill="#0000FF" font-family="sans-serif" font-size="14" lengthAdjust="spacing" textLength="40" x="117" y="1181.7422">FIRST</text><text fill="#0000FF" font-family="sans-serif" font-size="14" lengthAdjust="spacing" textLength="35" x="117" y="1200.3633">LAST</text><text fill="#0000FF" font-family="sans-serif" font-size="14" lengthAdjust="spacing" textLength="35" x="117" y="1218.9844">NEXT</text><text fill="#0000FF" font-family="sans-serif" font-size="14" lengthAdjust="spacing" textLength="69" x="117" y="1237.6055">PREVIOUS</text><line style="stroke:#D4AC0D;stroke-width:2.0;" x1="112" x2="250" y1="1245.1191" y2="1245.1191"/></g><!--class FileControlInformation--><g id="elem_FileControlInformation"><rect codeLine="156" fill="#FEFECE" height="85.2422" id="FileControlInformation" rx="2.5" ry="2.5" style="stroke:#D4AC0D;stroke-width:2.0;" width="182" x="286" y="1149.1348"/><ellipse cx="301" cy="1165.1348" fill="#EB937F" rx="11" ry="11" style="stroke:#181818;stroke-width:1.0;"/><path d="M299.8594,1165.9316 L299.8594,1168.4316 L304.1875,1168.4316 L304.1875,1167.5098 Q304.1875,1166.9004 304.4219,1166.6348 Q304.6719,1166.3691 305.0469,1166.3691 Q305.4219,1166.3691 305.6563,1166.6348 Q305.8906,1166.9004 305.8906,1167.5098 L305.8906,1170.1348 L297.8906,1170.1348 Q297.2656,1170.1348 297,1169.9004 Q296.75,1169.666 296.75,1169.2754 Q296.75,1168.9004 297.0156,1168.666 Q297.2813,1168.4316 297.8906,1168.4316 L298.1563,1168.4316 L298.1563,1161.7754 L297.8906,1161.7754 Q297.2656,1161.7754 297,1161.541 Q296.75,1161.3066 296.75,1160.916 Q296.75,1160.541 297,1160.3066 Q297.2656,1160.0723 297.8906,1160.0723 L305.5156,1160.0723 L305.5156,1162.666 Q305.5156,1163.2754 305.2813,1163.541 Q305.0625,1163.791 304.6719,1163.791 Q304.2969,1163.791 304.0625,1163.541 Q303.8281,1163.2754 303.8281,1162.666 L303.8281,1161.7754 L299.8594,1161.7754 L299.8594,1164.2285 L301.3438,1164.2285 Q301.3438,1163.5723 301.4688,1163.3848 Q301.7344,1162.9785 302.2031,1162.9785 Q302.5781,1162.9785 302.8125,1163.2441 Q303.0469,1163.4941 303.0469,1164.1035 L303.0469,1166.0723 Q303.0469,1166.6191 302.9219,1166.8066 Q302.6563,1167.1973 302.2031,1167.1973 Q301.7344,1167.1973 301.4688,1166.791 Q301.3438,1166.6035 301.3438,1165.9316 L299.8594,1165.9316 Z " fill="#000000"/><ellipse cx="320" cy="1164.6348" fill="#84BE84" rx="3" ry="3" style="stroke:#038048;stroke-width:1.0;"/><text fill="#0000FF" font-family="sans-serif" font-size="14" lengthAdjust="spacing" textLength="139" x="326" y="1170.9316">FileControlInformation</text><line style="stroke:#D4AC0D;stroke-width:2.0;" x1="287" x2="467" y1="1181.1348" y2="1181.1348"/><text fill="#0000FF" font-family="sans-serif" font-size="14" lengthAdjust="spacing" textLength="22" x="292" y="1200.2422">FCI</text><text fill="#0000FF" font-family="sans-serif" font-size="14" lengthAdjust="spacing" textLength="103" x="292" y="1218.8633">NO_RESPONSE</text><line style="stroke:#D4AC0D;stroke-width:2.0;" x1="287" x2="467" y1="1226.377" y2="1226.377"/></g><!--class CardSelectionResult--><g id="elem_CardSelectionResult"><rect codeLine="170" fill="#FEFECE" height="103.8633" id="CardSelectionResult" rx="2.5" ry="2.5" style="stroke:#D4AC0D;stroke-width:2.0;" width="302" x="409" y="634.6348"/><ellipse cx="485.75" cy="650.6348" fill="#B4A7E5" rx="11" ry="11" style="stroke:#181818;stroke-width:1.0;"/><path d="M486.7031,647.2754 L486.7031,653.9316 L488.4219,653.9316 Q489.0313,653.9316 489.2969,654.166 Q489.5625,654.4004 489.5625,654.791 Q489.5625,655.166 489.2969,655.4004 Q489.0313,655.6348 488.4219,655.6348 L483.2813,655.6348 Q482.6719,655.6348 482.4063,655.4004 Q482.1406,655.166 482.1406,654.7754 Q482.1406,654.4004 482.4063,654.166 Q482.6719,653.9316 483.2813,653.9316 L485,653.9316 L485,647.2754 L483.2813,647.2754 Q482.6719,647.2754 482.4063,647.041 Q482.1406,646.8066 482.1406,646.416 Q482.1406,646.041 482.4063,645.8066 Q482.6719,645.5723 483.2813,645.5723 L488.4219,645.5723 Q489.0313,645.5723 489.2969,645.8066 Q489.5625,646.041 489.5625,646.416 Q489.5625,646.8066 489.2969,647.041 Q489.0313,647.2754 488.4219,647.2754 L486.7031,647.2754 Z " fill="#000000"/><ellipse cx="511.25" cy="650.1348" fill="#84BE84" rx="3" ry="3" style="stroke:#038048;stroke-width:1.0;"/><text fill="#000000" font-family="sans-serif" font-size="14" font-style="italic" lengthAdjust="spacing" textLength="129" x="517.25" y="656.4316">CardSelectionResult</text><line style="stroke:#D4AC0D;stroke-width:2.0;" x1="410" x2="710" y1="666.6348" y2="666.6348"/><line style="stroke:#D4AC0D;stroke-width:2.0;" x1="410" x2="710" y1="674.6348" y2="674.6348"/><ellipse cx="420" cy="689.4453" fill="#84BE84" rx="3" ry="3" style="stroke:#038048;stroke-width:1.0;"/><text fill="#000000" font-family="sans-serif" font-size="14" lengthAdjust="spacing" textLength="276" x="429" y="693.7422">Map&lt;Integer, SmartCard&gt; getSmartCards ()</text><ellipse cx="420" cy="708.0664" fill="#84BE84" rx="3" ry="3" style="stroke:#038048;stroke-width:1.0;"/><text fill="#000000" font-family="sans-serif" font-size="14" lengthAdjust="spacing" textLength="212" x="429" y="712.3633">SmartCard getActiveSmartCard ()</text><ellipse cx="420" cy="726.6875" fill="#84BE84" rx="3" ry="3" style="stroke:#038048;stroke-width:1.0;"/><text fill="#000000" font-family="sans-serif" font-size="14" lengthAdjust="spacing" textLength="182" x="429" y="730.9844">int getActiveSelectionIndex ()</text></g><!--class ScheduledCardSelectionsResponse--><g id="elem_ScheduledCardSelectionsResponse"><rect codeLine="175" fill="#FEFECE" height="48" id="ScheduledCardSelectionsResponse" rx="2.5" ry="2.5" style="stroke:#D4AC0D;stroke-width:2.0;" width="270" x="1337" y="662.6348"/><ellipse cx="1352" cy="678.6348" fill="#B4A7E5" rx="11" ry="11" style="stroke:#181818;stroke-width:1.0;"/><path d="M1352.9531,675.2754 L1352.9531,681.9316 L1354.6719,681.9316 Q1355.2813,681.9316 1355.5469,682.166 Q1355.8125,682.4004 1355.8125,682.791 Q1355.8125,683.166 1355.5469,683.4004 Q1355.2813,683.6348 1354.6719,683.6348 L1349.5313,683.6348 Q1348.9219,683.6348 1348.6563,683.4004 Q1348.3906,683.166 1348.3906,682.7754 Q1348.3906,682.4004 1348.6563,682.166 Q1348.9219,681.9316 1349.5313,681.9316 L1351.25,681.9316 L1351.25,675.2754 L1349.5313,675.2754 Q1348.9219,675.2754 1348.6563,675.041 Q1348.3906,674.8066 1348.3906,674.416 Q1348.3906,674.041 1348.6563,673.8066 Q1348.9219,673.5723 1349.5313,673.5723 L1354.6719,673.5723 Q1355.2813,673.5723 1355.5469,673.8066 Q1355.8125,674.041 1355.8125,674.416 Q1355.8125,674.8066 1355.5469,675.041 Q1355.2813,675.2754 1354.6719,675.2754 L1352.9531,675.2754 Z " fill="#000000"/><ellipse cx="1371" cy="678.1348" fill="#84BE84" rx="3" ry="3" style="stroke:#038048;stroke-width:1.0;"/><text fill="#000000" font-family="sans-serif" font-size="14" font-style="italic" lengthAdjust="spacing" textLength="227" x="1377" y="684.4316">ScheduledCardSelectionsResponse</text><line style="stroke:#D4AC0D;stroke-width:2.0;" x1="1338" x2="1606" y1="694.6348" y2="694.6348"/><line style="stroke:#D4AC0D;stroke-width:2.0;" x1="1338" x2="1606" y1="702.6348" y2="702.6348"/></g><!--class InvalidCardResponseException--><g id="elem_InvalidCardResponseException"><rect codeLine="178" fill="#FEFECE" height="100.4844" id="InvalidCardResponseException" rx="2.5" ry="2.5" style="stroke:#D4AC0D;stroke-width:2.0;" width="450" x="852" y="636.6348"/><ellipse cx="969.25" cy="660.2559" fill="#ADD1B2" rx="11" ry="11" style="stroke:#181818;stroke-width:1.0;"/><path d="M972.0156,656.1309 Q972.1719,655.9121 972.3594,655.8027 Q972.5469,655.6934 972.7656,655.6934 Q973.1406,655.6934 973.375,655.959 Q973.6094,656.209 973.6094,656.8184 L973.6094,658.2715 Q973.6094,658.8809 973.375,659.1465 Q973.1406,659.4121 972.7656,659.4121 Q972.4219,659.4121 972.2188,659.209 Q972.0156,659.0215 971.9063,658.5059 Q971.8594,658.1465 971.6719,657.959 Q971.3438,657.584 970.7344,657.3652 Q970.125,657.1465 969.5,657.1465 Q968.7344,657.1465 968.0938,657.4746 Q967.4688,657.8027 966.9688,658.5527 Q966.4844,659.3027 966.4844,660.334 L966.4844,661.4277 Q966.4844,662.6621 967.375,663.4902 Q968.2656,664.3027 969.8594,664.3027 Q970.7969,664.3027 971.4531,664.0527 Q971.8438,663.8965 972.2656,663.459 Q972.5313,663.1934 972.6719,663.1152 Q972.8281,663.0371 973.0313,663.0371 Q973.3594,663.0371 973.6094,663.3027 Q973.875,663.5527 973.875,663.8965 Q973.875,664.2402 973.5313,664.6465 Q973.0313,665.2246 972.2344,665.5527 Q971.1563,666.0059 969.8594,666.0059 Q968.3438,666.0059 967.1406,665.3809 Q966.1563,664.8809 965.4688,663.8184 Q964.7813,662.7402 964.7813,661.459 L964.7813,660.3027 Q964.7813,658.9746 965.3906,657.834 Q966.0156,656.6777 967.1094,656.0684 Q968.2031,655.4434 969.4375,655.4434 Q970.1719,655.4434 970.8125,655.6152 Q971.4688,655.7715 972.0156,656.1309 Z " fill="#000000"/><ellipse cx="994.75" cy="659.7559" fill="#84BE84" rx="3" ry="3" style="stroke:#038048;stroke-width:1.0;"/><text fill="#000000" font-family="sans-serif" font-size="14" lengthAdjust="spacing" textLength="129" x="1034.25" y="656.7422">&#171;RuntimeException&#187;</text><text fill="#000000" font-family="sans-serif" font-size="14" lengthAdjust="spacing" textLength="196" x="1000.75" y="675.3633">InvalidCardResponseException</text><line style="stroke:#D4AC0D;stroke-width:2.0;" x1="853" x2="1301" y1="683.877" y2="683.877"/><line style="stroke:#D4AC0D;stroke-width:2.0;" x1="853" x2="1301" y1="691.877" y2="691.877"/><ellipse cx="863" cy="706.6875" fill="#84BE84" rx="3" ry="3" style="stroke:#038048;stroke-width:1.0;"/><text fill="#000000" font-family="sans-serif" font-size="14" lengthAdjust="spacing" textLength="308" x="872" y="710.9844">InvalidCardResponseException (String message)</text><ellipse cx="863" cy="725.3086" fill="#84BE84" rx="3" ry="3" style="stroke:#038048;stroke-width:1.0;"/><text fill="#000000" font-family="sans-serif" font-size="14" lengthAdjust="spacing" textLength="424" x="872" y="729.6055">InvalidCardResponseException (String message, Throwable cause)</text></g><!--class CardSelectionExtension--><g id="elem_CardSelectionExtension"><rect codeLine="163" fill="#FEFECE" height="48" id="CardSelectionExtension" rx="2.5" ry="2.5" style="stroke:#D4AC0D;stroke-width:2.0;" width="193" x="1138.5" y="910.6348"/><ellipse cx="1153.5" cy="926.6348" fill="#B4A7E5" rx="11" ry="11" style="stroke:#181818;stroke-width:1.0;"/><path d="M1154.4531,923.2754 L1154.4531,929.9316 L1156.1719,929.9316 Q1156.7813,929.9316 1157.0469,930.166 Q1157.3125,930.4004 1157.3125,930.791 Q1157.3125,931.166 1157.0469,931.4004 Q1156.7813,931.6348 1156.1719,931.6348 L1151.0313,931.6348 Q1150.4219,931.6348 1150.1563,931.4004 Q1149.8906,931.166 1149.8906,930.7754 Q1149.8906,930.4004 1150.1563,930.166 Q1150.4219,929.9316 1151.0313,929.9316 L1152.75,929.9316 L1152.75,923.2754 L1151.0313,923.2754 Q1150.4219,923.2754 1150.1563,923.041 Q1149.8906,922.8066 1149.8906,922.416 Q1149.8906,922.041 1150.1563,921.8066 Q1150.4219,921.5723 1151.0313,921.5723 L1156.1719,921.5723 Q1156.7813,921.5723 1157.0469,921.8066 Q1157.3125,922.041 1157.3125,922.416 Q1157.3125,922.8066 1157.0469,923.041 Q1156.7813,923.2754 1156.1719,923.2754 L1154.4531,923.2754 Z " fill="#000000"/><ellipse cx="1172.5" cy="926.1348" fill="#84BE84" rx="3" ry="3" style="stroke:#038048;stroke-width:1.0;"/><text fill="#0000FF" font-family="sans-serif" font-size="14" font-style="italic" lengthAdjust="spacing" textLength="150" x="1178.5" y="932.4316">CardSelectionExtension</text><line style="stroke:#D4AC0D;stroke-width:2.0;" x1="1139.5" x2="1330.5" y1="942.6348" y2="942.6348"/><line style="stroke:#D4AC0D;stroke-width:2.0;" x1="1139.5" x2="1330.5" y1="950.6348" y2="950.6348"/></g><!--class SmartCard--><g id="elem_SmartCard"><rect codeLine="165" fill="#FEFECE" height="85.2422" id="SmartCard" rx="2.5" ry="2.5" style="stroke:#D4AC0D;stroke-width:2.0;" width="271" x="832.5" y="892.1348"/><ellipse cx="924.25" cy="908.1348" fill="#B4A7E5" rx="11" ry="11" style="stroke:#181818;stroke-width:1.0;"/><path d="M925.2031,904.7754 L925.2031,911.4316 L926.9219,911.4316 Q927.5313,911.4316 927.7969,911.666 Q928.0625,911.9004 928.0625,912.291 Q928.0625,912.666 927.7969,912.9004 Q927.5313,913.1348 926.9219,913.1348 L921.7813,913.1348 Q921.1719,913.1348 920.9063,912.9004 Q920.6406,912.666 920.6406,912.2754 Q920.6406,911.9004 920.9063,911.666 Q921.1719,911.4316 921.7813,911.4316 L923.5,911.4316 L923.5,904.7754 L921.7813,904.7754 Q921.1719,904.7754 920.9063,904.541 Q920.6406,904.3066 920.6406,903.916 Q920.6406,903.541 920.9063,903.3066 Q921.1719,903.0723 921.7813,903.0723 L926.9219,903.0723 Q927.5313,903.0723 927.7969,903.3066 Q928.0625,903.541 928.0625,903.916 Q928.0625,904.3066 927.7969,904.541 Q927.5313,904.7754 926.9219,904.7754 L925.2031,904.7754 Z " fill="#000000"/><ellipse cx="949.75" cy="907.6348" fill="#84BE84" rx="3" ry="3" style="stroke:#038048;stroke-width:1.0;"/><text fill="#000000" font-family="sans-serif" font-size="14" font-style="italic" lengthAdjust="spacing" textLength="68" x="955.75" y="913.9316">SmartCard</text><line style="stroke:#D4AC0D;stroke-width:2.0;" x1="833.5" x2="1102.5" y1="924.1348" y2="924.1348"/><line style="stroke:#D4AC0D;stroke-width:2.0;" x1="833.5" x2="1102.5" y1="932.1348" y2="932.1348"/><ellipse cx="843.5" cy="946.9453" fill="#84BE84" rx="3" ry="3" style="stroke:#038048;stroke-width:1.0;"/><text fill="#000000" font-family="sans-serif" font-size="14" lengthAdjust="spacing" textLength="163" x="852.5" y="951.2422">String getPowerOnData ()</text><ellipse cx="843.5" cy="965.5664" fill="#84BE84" rx="3" ry="3" style="stroke:#038048;stroke-width:1.0;"/><text fill="#000000" font-family="sans-serif" font-size="14" lengthAdjust="spacing" textLength="245" x="852.5" y="969.8633">byte[] getSelectApplicationResponse ()</text></g><!--class ApiProperties--><g id="elem_ApiProperties"><rect codeLine="55" fill="#FEFECE" height="66.6211" id="ApiProperties" rx="2.5" ry="2.5" style="stroke:#D4AC0D;stroke-width:2.0;" width="209" x="1647.5" y="653.1348"/><ellipse cx="1662.5" cy="669.1348" fill="#ADD1B2" rx="11" ry="11" style="stroke:#181818;stroke-width:1.0;"/><path d="M1665.2656,665.0098 Q1665.4219,664.791 1665.6094,664.6816 Q1665.7969,664.5723 1666.0156,664.5723 Q1666.3906,664.5723 1666.625,664.8379 Q1666.8594,665.0879 1666.8594,665.6973 L1666.8594,667.1504 Q1666.8594,667.7598 1666.625,668.0254 Q1666.3906,668.291 1666.0156,668.291 Q1665.6719,668.291 1665.4688,668.0879 Q1665.2656,667.9004 1665.1563,667.3848 Q1665.1094,667.0254 1664.9219,666.8379 Q1664.5938,666.4629 1663.9844,666.2441 Q1663.375,666.0254 1662.75,666.0254 Q1661.9844,666.0254 1661.3438,666.3535 Q1660.7188,666.6816 1660.2188,667.4316 Q1659.7344,668.1816 1659.7344,669.2129 L1659.7344,670.3066 Q1659.7344,671.541 1660.625,672.3691 Q1661.5156,673.1816 1663.1094,673.1816 Q1664.0469,673.1816 1664.7031,672.9316 Q1665.0938,672.7754 1665.5156,672.3379 Q1665.7813,672.0723 1665.9219,671.9941 Q1666.0781,671.916 1666.2813,671.916 Q1666.6094,671.916 1666.8594,672.1816 Q1667.125,672.4316 1667.125,672.7754 Q1667.125,673.1191 1666.7813,673.5254 Q1666.2813,674.1035 1665.4844,674.4316 Q1664.4063,674.8848 1663.1094,674.8848 Q1661.5938,674.8848 1660.3906,674.2598 Q1659.4063,673.7598 1658.7188,672.6973 Q1658.0313,671.6191 1658.0313,670.3379 L1658.0313,669.1816 Q1658.0313,667.8535 1658.6406,666.7129 Q1659.2656,665.5566 1660.3594,664.9473 Q1661.4531,664.3223 1662.6875,664.3223 Q1663.4219,664.3223 1664.0625,664.4941 Q1664.7188,664.6504 1665.2656,665.0098 Z " fill="#000000"/><ellipse cx="1681.5" cy="668.6348" fill="#84BE84" rx="3" ry="3" style="stroke:#038048;stroke-width:1.0;"/><text fill="#000000" font-family="sans-serif" font-size="14" font-weight="bold" lengthAdjust="spacing" textLength="30" x="1687.5" y="674.9316">final</text><text fill="#000000" font-family="sans-serif" font-size="14" lengthAdjust="spacing" textLength="132" x="1721.5" y="674.9316">ReaderApiProperties</text><line style="stroke:#D4AC0D;stroke-width:2.0;" x1="1648.5" x2="1855.5" y1="685.1348" y2="685.1348"/><ellipse cx="1658.5" cy="699.9453" fill="none" rx="3" ry="3" style="stroke:#038048;stroke-width:1.0;"/><text fill="#000000" font-family="sans-serif" font-size="14" font-weight="bold" lengthAdjust="spacing" text-decoration="underline" textLength="30" x="1667.5" y="704.2422">final</text><text fill="#000000" font-family="sans-serif" font-size="14" lengthAdjust="spacing" text-decoration="underline" textLength="101" x="1701.5" y="704.2422">String VERSION</text><line style="stroke:#D4AC0D;stroke-width:2.0;" x1="1648.5" x2="1855.5" y1="711.7559" y2="711.7559"/></g><!--class CardReader--><g id="elem_CardReader"><rect codeLine="58" fill="#FEFECE" height="103.8633" id="CardReader" rx="2.5" ry="2.5" style="stroke:#D4AC0D;stroke-width:2.0;" width="185" x="1891.5" y="634.6348"/><ellipse cx="1935.3" cy="650.6348" fill="#B4A7E5" rx="11" ry="11" style="stroke:#181818;stroke-width:1.0;"/><path d="M1936.2531,647.2754 L1936.2531,653.9316 L1937.9719,653.9316 Q1938.5813,653.9316 1938.8469,654.166 Q1939.1125,654.4004 1939.1125,654.791 Q1939.1125,655.166 1938.8469,655.4004 Q1938.5813,655.6348 1937.9719,655.6348 L1932.8313,655.6348 Q1932.2219,655.6348 1931.9563,655.4004 Q1931.6906,655.166 1931.6906,654.7754 Q1931.6906,654.4004 1931.9563,654.166 Q1932.2219,653.9316 1932.8313,653.9316 L1934.55,653.9316 L1934.55,647.2754 L1932.8313,647.2754 Q1932.2219,647.2754 1931.9563,647.041 Q1931.6906,646.8066 1931.6906,646.416 Q1931.6906,646.041 1931.9563,645.8066 Q1932.2219,645.5723 1932.8313,645.5723 L1937.9719,645.5723 Q1938.5813,645.5723 1938.8469,645.8066 Q1939.1125,646.041 1939.1125,646.416 Q1939.1125,646.8066 1938.8469,647.041 Q1938.5813,647.2754 1937.9719,647.2754 L1936.2531,647.2754 Z " fill="#000000"/><ellipse cx="1960.7" cy="650.1348" fill="#84BE84" rx="3" ry="3" style="stroke:#038048;stroke-width:1.0;"/><text fill="#000000" font-family="sans-serif" font-size="14" font-style="italic" lengthAdjust="spacing" textLength="78" x="1966.7" y="656.4316">CardReader</text><line style="stroke:#D4AC0D;stroke-width:2.0;" x1="1892.5" x2="2075.5" y1="666.6348" y2="666.6348"/><line style="stroke:#D4AC0D;stroke-width:2.0;" x1="1892.5" x2="2075.5" y1="674.6348" y2="674.6348"/><ellipse cx="1902.5" cy="689.4453" fill="#84BE84" rx="3" ry="3" style="stroke:#038048;stroke-width:1.0;"/><text fill="#000000" font-family="sans-serif" font-size="14" lengthAdjust="spacing" textLength="111" x="1911.5" y="693.7422">String getName ()</text><ellipse cx="1902.5" cy="708.0664" fill="#84BE84" rx="3" ry="3" style="stroke:#038048;stroke-width:1.0;"/><text fill="#000000" font-family="sans-serif" font-size="14" lengthAdjust="spacing" textLength="153" x="1911.5" y="712.3633">boolean isContactless ()</text><ellipse cx="1902.5" cy="726.6875" fill="#84BE84" rx="3" ry="3" style="stroke:#038048;stroke-width:1.0;"/><text fill="#000000" font-family="sans-serif" font-size="14" lengthAdjust="spacing" textLength="159" x="1911.5" y="730.9844">boolean isCardPresent ()</text></g><!--class ObservableCardReader--><g id="elem_ObservableCardReader"><rect codeLine="63" fill="#FEFECE" height="234.2109" id="ObservableCardReader" rx="2.5" ry="2.5" style="stroke:#D4AC0D;stroke-width:2.0;" width="721" x="2210.5" y="817.6348"/><ellipse cx="2486.25" cy="833.6348" fill="#B4A7E5" rx="11" ry="11" style="stroke:#181818;stroke-width:1.0;"/><path d="M2487.2031,830.2754 L2487.2031,836.9316 L2488.9219,836.9316 Q2489.5313,836.9316 2489.7969,837.166 Q2490.0625,837.4004 2490.0625,837.791 Q2490.0625,838.166 2489.7969,838.4004 Q2489.5313,838.6348 2488.9219,838.6348 L2483.7813,838.6348 Q2483.1719,838.6348 2482.9063,838.4004 Q2482.6406,838.166 2482.6406,837.7754 Q2482.6406,837.4004 2482.9063,837.166 Q2483.1719,836.9316 2483.7813,836.9316 L2485.5,836.9316 L2485.5,830.2754 L2483.7813,830.2754 Q2483.1719,830.2754 2482.9063,830.041 Q2482.6406,829.8066 2482.6406,829.416 Q2482.6406,829.041 2482.9063,828.8066 Q2483.1719,828.5723 2483.7813,828.5723 L2488.9219,828.5723 Q2489.5313,828.5723 2489.7969,828.8066 Q2490.0625,829.041 2490.0625,829.416 Q2490.0625,829.8066 2489.7969,830.041 Q2489.5313,830.2754 2488.9219,830.2754 L2487.2031,830.2754 Z " fill="#000000"/><ellipse cx="2511.75" cy="833.1348" fill="#84BE84" rx="3" ry="3" style="stroke:#038048;stroke-width:1.0;"/><text fill="#000000" font-family="sans-serif" font-size="14" font-style="italic" lengthAdjust="spacing" textLength="150" x="2517.75" y="839.4316">ObservableCardReader</text><line style="stroke:#D4AC0D;stroke-width:2.0;" x1="2211.5" x2="2930.5" y1="849.6348" y2="849.6348"/><line style="stroke:#D4AC0D;stroke-width:2.0;" x1="2211.5" x2="2930.5" y1="857.6348" y2="857.6348"/><ellipse cx="2221.5" cy="872.4453" fill="#84BE84" rx="3" ry="3" style="stroke:#038048;stroke-width:1.0;"/><text fill="#000000" font-family="sans-serif" font-size="14" lengthAdjust="spacing" textLength="695" x="2230.5" y="876.7422">void setReaderObservationExceptionHandler (CardReaderObservationExceptionHandlerSpi exceptionHandler)</text><text fill="#000000" font-family="sans-serif" font-size="14" lengthAdjust="spacing" textLength="4" x="2230.5" y="895.3633">&#160;</text><ellipse cx="2221.5" cy="909.6875" fill="#84BE84" rx="3" ry="3" style="stroke:#038048;stroke-width:1.0;"/><text fill="#000000" font-family="sans-serif" font-size="14" lengthAdjust="spacing" textLength="344" x="2230.5" y="913.9844">void addObserver (CardReaderObserverSpi observer)</text><ellipse cx="2221.5" cy="928.3086" fill="#84BE84" rx="3" ry="3" style="stroke:#038048;stroke-width:1.0;"/><text fill="#000000" font-family="sans-serif" font-size="14" lengthAdjust="spacing" textLength="367" x="2230.5" y="932.6055">void removeObserver (CardReaderObserverSpi observer)</text><ellipse cx="2221.5" cy="946.9297" fill="#84BE84" rx="3" ry="3" style="stroke:#038048;stroke-width:1.0;"/><text fill="#000000" font-family="sans-serif" font-size="14" lengthAdjust="spacing" textLength="141" x="2230.5" y="951.2266">void clearObservers ()</text><ellipse cx="2221.5" cy="965.5508" fill="#84BE84" rx="3" ry="3" style="stroke:#038048;stroke-width:1.0;"/><text fill="#000000" font-family="sans-serif" font-size="14" lengthAdjust="spacing" textLength="134" x="2230.5" y="969.8477">int countObservers ()</text><text fill="#000000" font-family="sans-serif" font-size="14" lengthAdjust="spacing" textLength="4" x="2230.5" y="988.4688">&#160;</text><ellipse cx="2221.5" cy="1002.793" fill="#84BE84" rx="3" ry="3" style="stroke:#038048;stroke-width:1.0;"/><text fill="#000000" font-family="sans-serif" font-size="14" lengthAdjust="spacing" textLength="355" x="2230.5" y="1007.0898">void startCardDetection (DetectionMode detectionMode)</text><ellipse cx="2221.5" cy="1021.4141" fill="#84BE84" rx="3" ry="3" style="stroke:#038048;stroke-width:1.0;"/><text fill="#000000" font-family="sans-serif" font-size="14" lengthAdjust="spacing" textLength="162" x="2230.5" y="1025.7109">void stopCardDetection ()</text><ellipse cx="2221.5" cy="1040.0352" fill="#84BE84" rx="3" ry="3" style="stroke:#038048;stroke-width:1.0;"/><text fill="#000000" font-family="sans-serif" font-size="14" lengthAdjust="spacing" textLength="188" x="2230.5" y="1044.332">void finalizeCardProcessing ()</text></g><!--class ConfigurableCardReader--><g id="elem_ConfigurableCardReader"><rect codeLine="75" fill="#FEFECE" height="103.8633" id="ConfigurableCardReader" rx="2.5" ry="2.5" style="stroke:#D4AC0D;stroke-width:2.0;" width="528" x="1647" y="882.6348"/><ellipse cx="1821.75" cy="898.6348" fill="#B4A7E5" rx="11" ry="11" style="stroke:#181818;stroke-width:1.0;"/><path d="M1822.7031,895.2754 L1822.7031,901.9316 L1824.4219,901.9316 Q1825.0313,901.9316 1825.2969,902.166 Q1825.5625,902.4004 1825.5625,902.791 Q1825.5625,903.166 1825.2969,903.4004 Q1825.0313,903.6348 1824.4219,903.6348 L1819.2813,903.6348 Q1818.6719,903.6348 1818.4063,903.4004 Q1818.1406,903.166 1818.1406,902.7754 Q1818.1406,902.4004 1818.4063,902.166 Q1818.6719,901.9316 1819.2813,901.9316 L1821,901.9316 L1821,895.2754 L1819.2813,895.2754 Q1818.6719,895.2754 1818.4063,895.041 Q1818.1406,894.8066 1818.1406,894.416 Q1818.1406,894.041 1818.4063,893.8066 Q1818.6719,893.5723 1819.2813,893.5723 L1824.4219,893.5723 Q1825.0313,893.5723 1825.2969,893.8066 Q1825.5625,894.041 1825.5625,894.416 Q1825.5625,894.8066 1825.2969,895.041 Q1825.0313,895.2754 1824.4219,895.2754 L1822.7031,895.2754 Z " fill="#000000"/><ellipse cx="1847.25" cy="898.1348" fill="#84BE84" rx="3" ry="3" style="stroke:#038048;stroke-width:1.0;"/><text fill="#000000" font-family="sans-serif" font-size="14" font-style="italic" lengthAdjust="spacing" textLength="159" x="1853.25" y="904.4316">ConfigurableCardReader</text><line style="stroke:#D4AC0D;stroke-width:2.0;" x1="1648" x2="2174" y1="914.6348" y2="914.6348"/><line style="stroke:#D4AC0D;stroke-width:2.0;" x1="1648" x2="2174" y1="922.6348" y2="922.6348"/><ellipse cx="1658" cy="937.4453" fill="#84BE84" rx="3" ry="3" style="stroke:#038048;stroke-width:1.0;"/><text fill="#000000" font-family="sans-serif" font-size="14" lengthAdjust="spacing" textLength="502" x="1667" y="941.7422">void activateProtocol (String logicalProtocolName, String physicalProtocolName)</text><ellipse cx="1658" cy="956.0664" fill="#84BE84" rx="3" ry="3" style="stroke:#038048;stroke-width:1.0;"/><text fill="#000000" font-family="sans-serif" font-size="14" lengthAdjust="spacing" textLength="330" x="1667" y="960.3633">void deactivateProtocol (String logicalProtocolName)</text><ellipse cx="1658" cy="974.6875" fill="#84BE84" rx="3" ry="3" style="stroke:#038048;stroke-width:1.0;"/><text fill="#000000" font-family="sans-serif" font-size="14" lengthAdjust="spacing" textLength="175" x="1667" y="978.9844">String getCurrentProtocol ()</text></g><!--class DetectionMode--><g id="elem_DetectionMode"><rect codeLine="80" fill="#FEFECE" height="85.2422" id="DetectionMode" rx="2.5" ry="2.5" style="stroke:#D4AC0D;stroke-width:2.0;" width="138" x="2948" y="644.1348"/><ellipse cx="2963" cy="660.1348" fill="#EB937F" rx="11" ry="11" style="stroke:#181818;stroke-width:1.0;"/><path d="M2961.8594,660.9316 L2961.8594,663.4316 L2966.1875,663.4316 L2966.1875,662.5098 Q2966.1875,661.9004 2966.4219,661.6348 Q2966.6719,661.3691 2967.0469,661.3691 Q2967.4219,661.3691 2967.6563,661.6348 Q2967.8906,661.9004 2967.8906,662.5098 L2967.8906,665.1348 L2959.8906,665.1348 Q2959.2656,665.1348 2959,664.9004 Q2958.75,664.666 2958.75,664.2754 Q2958.75,663.9004 2959.0156,663.666 Q2959.2813,663.4316 2959.8906,663.4316 L2960.1563,663.4316 L2960.1563,656.7754 L2959.8906,656.7754 Q2959.2656,656.7754 2959,656.541 Q2958.75,656.3066 2958.75,655.916 Q2958.75,655.541 2959,655.3066 Q2959.2656,655.0723 2959.8906,655.0723 L2967.5156,655.0723 L2967.5156,657.666 Q2967.5156,658.2754 2967.2813,658.541 Q2967.0625,658.791 2966.6719,658.791 Q2966.2969,658.791 2966.0625,658.541 Q2965.8281,658.2754 2965.8281,657.666 L2965.8281,656.7754 L2961.8594,656.7754 L2961.8594,659.2285 L2963.3438,659.2285 Q2963.3438,658.5723 2963.4688,658.3848 Q2963.7344,657.9785 2964.2031,657.9785 Q2964.5781,657.9785 2964.8125,658.2441 Q2965.0469,658.4941 2965.0469,659.1035 L2965.0469,661.0723 Q2965.0469,661.6191 2964.9219,661.8066 Q2964.6563,662.1973 2964.2031,662.1973 Q2963.7344,662.1973 2963.4688,661.791 Q2963.3438,661.6035 2963.3438,660.9316 L2961.8594,660.9316 Z " fill="#000000"/><ellipse cx="2982" cy="659.6348" fill="#84BE84" rx="3" ry="3" style="stroke:#038048;stroke-width:1.0;"/><text fill="#000000" font-family="sans-serif" font-size="14" lengthAdjust="spacing" textLength="95" x="2988" y="665.9316">DetectionMode</text><line style="stroke:#D4AC0D;stroke-width:2.0;" x1="2949" x2="3085" y1="676.1348" y2="676.1348"/><text fill="#000000" font-family="sans-serif" font-size="14" lengthAdjust="spacing" textLength="78" x="2954" y="695.2422">REPEATING</text><text fill="#000000" font-family="sans-serif" font-size="14" lengthAdjust="spacing" textLength="87" x="2954" y="713.8633">SINGLESHOT</text><line style="stroke:#D4AC0D;stroke-width:2.0;" x1="2949" x2="3085" y1="721.377" y2="721.377"/></g><!--class NotificationMode--><g id="elem_NotificationMode"><rect codeLine="84" fill="#FEFECE" height="85.2422" id="NotificationMode" rx="2.5" ry="2.5" style="stroke:#D4AC0D;stroke-width:2.0;" width="147" x="2784.5" y="1149.1348"/><ellipse cx="2799.5" cy="1165.1348" fill="#EB937F" rx="11" ry="11" style="stroke:#181818;stroke-width:1.0;"/><path d="M2798.3594,1165.9316 L2798.3594,1168.4316 L2802.6875,1168.4316 L2802.6875,1167.5098 Q2802.6875,1166.9004 2802.9219,1166.6348 Q2803.1719,1166.3691 2803.5469,1166.3691 Q2803.9219,1166.3691 2804.1563,1166.6348 Q2804.3906,1166.9004 2804.3906,1167.5098 L2804.3906,1170.1348 L2796.3906,1170.1348 Q2795.7656,1170.1348 2795.5,1169.9004 Q2795.25,1169.666 2795.25,1169.2754 Q2795.25,1168.9004 2795.5156,1168.666 Q2795.7813,1168.4316 2796.3906,1168.4316 L2796.6563,1168.4316 L2796.6563,1161.7754 L2796.3906,1161.7754 Q2795.7656,1161.7754 2795.5,1161.541 Q2795.25,1161.3066 2795.25,1160.916 Q2795.25,1160.541 2795.5,1160.3066 Q2795.7656,1160.0723 2796.3906,1160.0723 L2804.0156,1160.0723 L2804.0156,1162.666 Q2804.0156,1163.2754 2803.7813,1163.541 Q2803.5625,1163.791 2803.1719,1163.791 Q2802.7969,1163.791 2802.5625,1163.541 Q2802.3281,1163.2754 2802.3281,1162.666 L2802.3281,1161.7754 L2798.3594,1161.7754 L2798.3594,1164.2285 L2799.8438,1164.2285 Q2799.8438,1163.5723 2799.9688,1163.3848 Q2800.2344,1162.9785 2800.7031,1162.9785 Q2801.0781,1162.9785 2801.3125,1163.2441 Q2801.5469,1163.4941 2801.5469,1164.1035 L2801.5469,1166.0723 Q2801.5469,1166.6191 2801.4219,1166.8066 Q2801.1563,1167.1973 2800.7031,1167.1973 Q2800.2344,1167.1973 2799.9688,1166.791 Q2799.8438,1166.6035 2799.8438,1165.9316 L2798.3594,1165.9316 Z " fill="#000000"/><ellipse cx="2818.5" cy="1164.6348" fill="#84BE84" rx="3" ry="3" style="stroke:#038048;stroke-width:1.0;"/><text fill="#000000" font-family="sans-serif" font-size="14" lengthAdjust="spacing" textLength="104" x="2824.5" y="1170.9316">NotificationMode</text><line style="stroke:#D4AC0D;stroke-width:2.0;" x1="2785.5" x2="2930.5" y1="1181.1348" y2="1181.1348"/><text fill="#000000" font-family="sans-serif" font-size="14" lengthAdjust="spacing" textLength="57" x="2790.5" y="1200.2422">ALWAYS</text><text fill="#000000" font-family="sans-serif" font-size="14" lengthAdjust="spacing" textLength="112" x="2790.5" y="1218.8633">MATCHED_ONLY</text><line style="stroke:#D4AC0D;stroke-width:2.0;" x1="2785.5" x2="2930.5" y1="1226.377" y2="1226.377"/></g><!--class CardReaderEvent--><g id="elem_CardReaderEvent"><rect codeLine="88" fill="#FEFECE" height="103.8633" id="CardReaderEvent" rx="2.5" ry="2.5" style="stroke:#D4AC0D;stroke-width:2.0;" width="518" x="1808" y="1333.6348"/><ellipse cx="2000.75" cy="1349.6348" fill="#B4A7E5" rx="11" ry="11" style="stroke:#181818;stroke-width:1.0;"/><path d="M2001.7031,1346.2754 L2001.7031,1352.9316 L2003.4219,1352.9316 Q2004.0313,1352.9316 2004.2969,1353.166 Q2004.5625,1353.4004 2004.5625,1353.791 Q2004.5625,1354.166 2004.2969,1354.4004 Q2004.0313,1354.6348 2003.4219,1354.6348 L1998.2813,1354.6348 Q1997.6719,1354.6348 1997.4063,1354.4004 Q1997.1406,1354.166 1997.1406,1353.7754 Q1997.1406,1353.4004 1997.4063,1353.166 Q1997.6719,1352.9316 1998.2813,1352.9316 L2000,1352.9316 L2000,1346.2754 L1998.2813,1346.2754 Q1997.6719,1346.2754 1997.4063,1346.041 Q1997.1406,1345.8066 1997.1406,1345.416 Q1997.1406,1345.041 1997.4063,1344.8066 Q1997.6719,1344.5723 1998.2813,1344.5723 L2003.4219,1344.5723 Q2004.0313,1344.5723 2004.2969,1344.8066 Q2004.5625,1345.041 2004.5625,1345.416 Q2004.5625,1345.8066 2004.2969,1346.041 Q2004.0313,1346.2754 2003.4219,1346.2754 L2001.7031,1346.2754 Z " fill="#000000"/><ellipse cx="2026.25" cy="1349.1348" fill="#84BE84" rx="3" ry="3" style="stroke:#038048;stroke-width:1.0;"/><text fill="#000000" font-family="sans-serif" font-size="14" font-style="italic" lengthAdjust="spacing" textLength="113" x="2032.25" y="1355.4316">CardReaderEvent</text><line style="stroke:#D4AC0D;stroke-width:2.0;" x1="1809" x2="2325" y1="1365.6348" y2="1365.6348"/><line style="stroke:#D4AC0D;stroke-width:2.0;" x1="1809" x2="2325" y1="1373.6348" y2="1373.6348"/><ellipse cx="1819" cy="1388.4453" fill="#84BE84" rx="3" ry="3" style="stroke:#038048;stroke-width:1.0;"/><text fill="#000000" font-family="sans-serif" font-size="14" lengthAdjust="spacing" textLength="158" x="1828" y="1392.7422">String getReaderName ()</text><ellipse cx="1819" cy="1407.0664" fill="#84BE84" rx="3" ry="3" style="stroke:#038048;stroke-width:1.0;"/><text fill="#000000" font-family="sans-serif" font-size="14" lengthAdjust="spacing" textLength="102" x="1828" y="1411.3633">Type getType ()</text><ellipse cx="1819" cy="1425.6875" fill="#84BE84" rx="3" ry="3" style="stroke:#038048;stroke-width:1.0;"/><text fill="#000000" font-family="sans-serif" font-size="14" lengthAdjust="spacing" textLength="492" x="1828" y="1429.9844">ScheduledCardSelectionsResponse getScheduledCardSelectionsResponse ()</text></g><!--class CardReaderEventType--><g id="elem_CardReaderEventType"><rect codeLine="93" fill="#FEFECE" height="122.4844" id="CardReaderEventType" rx="2.5" ry="2.5" style="stroke:#D4AC0D;stroke-width:2.0;" width="128" x="2002" y="1516.6348"/><ellipse cx="2040.85" cy="1532.6348" fill="#EB937F" rx="11" ry="11" style="stroke:#181818;stroke-width:1.0;"/><path d="M2039.7094,1533.4316 L2039.7094,1535.9316 L2044.0375,1535.9316 L2044.0375,1535.0098 Q2044.0375,1534.4004 2044.2719,1534.1348 Q2044.5219,1533.8691 2044.8969,1533.8691 Q2045.2719,1533.8691 2045.5063,1534.1348 Q2045.7406,1534.4004 2045.7406,1535.0098 L2045.7406,1537.6348 L2037.7406,1537.6348 Q2037.1156,1537.6348 2036.85,1537.4004 Q2036.6,1537.166 2036.6,1536.7754 Q2036.6,1536.4004 2036.8656,1536.166 Q2037.1313,1535.9316 2037.7406,1535.9316 L2038.0063,1535.9316 L2038.0063,1529.2754 L2037.7406,1529.2754 Q2037.1156,1529.2754 2036.85,1529.041 Q2036.6,1528.8066 2036.6,1528.416 Q2036.6,1528.041 2036.85,1527.8066 Q2037.1156,1527.5723 2037.7406,1527.5723 L2045.3656,1527.5723 L2045.3656,1530.166 Q2045.3656,1530.7754 2045.1313,1531.041 Q2044.9125,1531.291 2044.5219,1531.291 Q2044.1469,1531.291 2043.9125,1531.041 Q2043.6781,1530.7754 2043.6781,1530.166 L2043.6781,1529.2754 L2039.7094,1529.2754 L2039.7094,1531.7285 L2041.1938,1531.7285 Q2041.1938,1531.0723 2041.3188,1530.8848 Q2041.5844,1530.4785 2042.0531,1530.4785 Q2042.4281,1530.4785 2042.6625,1530.7441 Q2042.8969,1530.9941 2042.8969,1531.6035 L2042.8969,1533.5723 Q2042.8969,1534.1191 2042.7719,1534.3066 Q2042.5063,1534.6973 2042.0531,1534.6973 Q2041.5844,1534.6973 2041.3188,1534.291 Q2041.1938,1534.1035 2041.1938,1533.4316 L2039.7094,1533.4316 Z " fill="#000000"/><ellipse cx="2065.15" cy="1532.1348" fill="#84BE84" rx="3" ry="3" style="stroke:#038048;stroke-width:1.0;"/><text fill="#000000" font-family="sans-serif" font-size="14" lengthAdjust="spacing" textLength="32" x="2071.15" y="1538.4316">Type</text><line style="stroke:#D4AC0D;stroke-width:2.0;" x1="2003" x2="2129" y1="1548.6348" y2="1548.6348"/><text fill="#000000" font-family="sans-serif" font-size="14" lengthAdjust="spacing" textLength="115" x="2008" y="1567.7422">CARD_INSERTED</text><text fill="#000000" font-family="sans-serif" font-size="14" lengthAdjust="spacing" textLength="114" x="2008" y="1586.3633">CARD_MATCHED</text><text fill="#000000" font-family="sans-serif" font-size="14" lengthAdjust="spacing" textLength="116" x="2008" y="1604.9844">CARD_REMOVED</text><text fill="#000000" font-family="sans-serif" font-size="14" lengthAdjust="spacing" textLength="91" x="2008" y="1623.6055">UNAVAILABLE</text><line style="stroke:#D4AC0D;stroke-width:2.0;" x1="2003" x2="2129" y1="1631.1191" y2="1631.1191"/></g><!--class ReaderCommunicationException--><g id="elem_ReaderCommunicationException"><rect codeLine="185" fill="#FEFECE" height="100.4844" id="ReaderCommunicationException" rx="2.5" ry="2.5" style="stroke:#D4AC0D;stroke-width:2.0;" width="459" x="442.5" y="1527.6348"/><ellipse cx="559.75" cy="1551.2559" fill="#ADD1B2" rx="11" ry="11" style="stroke:#181818;stroke-width:1.0;"/><path d="M562.5156,1547.1309 Q562.6719,1546.9121 562.8594,1546.8027 Q563.0469,1546.6934 563.2656,1546.6934 Q563.6406,1546.6934 563.875,1546.959 Q564.1094,1547.209 564.1094,1547.8184 L564.1094,1549.2715 Q564.1094,1549.8809 563.875,1550.1465 Q563.6406,1550.4121 563.2656,1550.4121 Q562.9219,1550.4121 562.7188,1550.209 Q562.5156,1550.0215 562.4063,1549.5059 Q562.3594,1549.1465 562.1719,1548.959 Q561.8438,1548.584 561.2344,1548.3652 Q560.625,1548.1465 560,1548.1465 Q559.2344,1548.1465 558.5938,1548.4746 Q557.9688,1548.8027 557.4688,1549.5527 Q556.9844,1550.3027 556.9844,1551.334 L556.9844,1552.4277 Q556.9844,1553.6621 557.875,1554.4902 Q558.7656,1555.3027 560.3594,1555.3027 Q561.2969,1555.3027 561.9531,1555.0527 Q562.3438,1554.8965 562.7656,1554.459 Q563.0313,1554.1934 563.1719,1554.1152 Q563.3281,1554.0371 563.5313,1554.0371 Q563.8594,1554.0371 564.1094,1554.3027 Q564.375,1554.5527 564.375,1554.8965 Q564.375,1555.2402 564.0313,1555.6465 Q563.5313,1556.2246 562.7344,1556.5527 Q561.6563,1557.0059 560.3594,1557.0059 Q558.8438,1557.0059 557.6406,1556.3809 Q556.6563,1555.8809 555.9688,1554.8184 Q555.2813,1553.7402 555.2813,1552.459 L555.2813,1551.3027 Q555.2813,1549.9746 555.8906,1548.834 Q556.5156,1547.6777 557.6094,1547.0684 Q558.7031,1546.4434 559.9375,1546.4434 Q560.6719,1546.4434 561.3125,1546.6152 Q561.9688,1546.7715 562.5156,1547.1309 Z " fill="#000000"/><ellipse cx="585.25" cy="1550.7559" fill="#84BE84" rx="3" ry="3" style="stroke:#038048;stroke-width:1.0;"/><text fill="#000000" font-family="sans-serif" font-size="14" lengthAdjust="spacing" textLength="129" x="629.25" y="1547.7422">&#171;RuntimeException&#187;</text><text fill="#000000" font-family="sans-serif" font-size="14" lengthAdjust="spacing" textLength="205" x="591.25" y="1566.3633">ReaderCommunicationException</text><line style="stroke:#D4AC0D;stroke-width:2.0;" x1="443.5" x2="900.5" y1="1574.877" y2="1574.877"/><line style="stroke:#D4AC0D;stroke-width:2.0;" x1="443.5" x2="900.5" y1="1582.877" y2="1582.877"/><ellipse cx="453.5" cy="1597.6875" fill="#84BE84" rx="3" ry="3" style="stroke:#038048;stroke-width:1.0;"/><text fill="#000000" font-family="sans-serif" font-size="14" lengthAdjust="spacing" textLength="317" x="462.5" y="1601.9844">ReaderCommunicationException (String message)</text><ellipse cx="453.5" cy="1616.3086" fill="#84BE84" rx="3" ry="3" style="stroke:#038048;stroke-width:1.0;"/><text fill="#000000" font-family="sans-serif" font-size="14" lengthAdjust="spacing" textLength="433" x="462.5" y="1620.6055">ReaderCommunicationException (String message, Throwable cause)</text></g><!--class ReaderProtocolNotSupportedException--><g id="elem_ReaderProtocolNotSupportedException"><rect codeLine="189" fill="#FEFECE" height="81.8633" id="ReaderProtocolNotSupportedException" rx="2.5" ry="2.5" style="stroke:#D4AC0D;stroke-width:2.0;" width="467" x="438.5" y="1344.6348"/><ellipse cx="538.75" cy="1368.2559" fill="#ADD1B2" rx="11" ry="11" style="stroke:#181818;stroke-width:1.0;"/><path d="M541.5156,1364.1309 Q541.6719,1363.9121 541.8594,1363.8027 Q542.0469,1363.6934 542.2656,1363.6934 Q542.6406,1363.6934 542.875,1363.959 Q543.1094,1364.209 543.1094,1364.8184 L543.1094,1366.2715 Q543.1094,1366.8809 542.875,1367.1465 Q542.6406,1367.4121 542.2656,1367.4121 Q541.9219,1367.4121 541.7188,1367.209 Q541.5156,1367.0215 541.4063,1366.5059 Q541.3594,1366.1465 541.1719,1365.959 Q540.8438,1365.584 540.2344,1365.3652 Q539.625,1365.1465 539,1365.1465 Q538.2344,1365.1465 537.5938,1365.4746 Q536.9688,1365.8027 536.4688,1366.5527 Q535.9844,1367.3027 535.9844,1368.334 L535.9844,1369.4277 Q535.9844,1370.6621 536.875,1371.4902 Q537.7656,1372.3027 539.3594,1372.3027 Q540.2969,1372.3027 540.9531,1372.0527 Q541.3438,1371.8965 541.7656,1371.459 Q542.0313,1371.1934 542.1719,1371.1152 Q542.3281,1371.0371 542.5313,1371.0371 Q542.8594,1371.0371 543.1094,1371.3027 Q543.375,1371.5527 543.375,1371.8965 Q543.375,1372.2402 543.0313,1372.6465 Q542.5313,1373.2246 541.7344,1373.5527 Q540.6563,1374.0059 539.3594,1374.0059 Q537.8438,1374.0059 536.6406,1373.3809 Q535.6563,1372.8809 534.9688,1371.8184 Q534.2813,1370.7402 534.2813,1369.459 L534.2813,1368.3027 Q534.2813,1366.9746 534.8906,1365.834 Q535.5156,1364.6777 536.6094,1364.0684 Q537.7031,1363.4434 538.9375,1363.4434 Q539.6719,1363.4434 540.3125,1363.6152 Q540.9688,1363.7715 541.5156,1364.1309 Z " fill="#000000"/><ellipse cx="564.25" cy="1367.7559" fill="#84BE84" rx="3" ry="3" style="stroke:#038048;stroke-width:1.0;"/><text fill="#000000" font-family="sans-serif" font-size="14" lengthAdjust="spacing" textLength="129" x="629.25" y="1364.7422">&#171;RuntimeException&#187;</text><text fill="#000000" font-family="sans-serif" font-size="14" lengthAdjust="spacing" textLength="247" x="570.25" y="1383.3633">ReaderProtocolNotSupportedException</text><line style="stroke:#D4AC0D;stroke-width:2.0;" x1="439.5" x2="904.5" y1="1391.877" y2="1391.877"/><line style="stroke:#D4AC0D;stroke-width:2.0;" x1="439.5" x2="904.5" y1="1399.877" y2="1399.877"/><ellipse cx="449.5" cy="1414.6875" fill="#84BE84" rx="3" ry="3" style="stroke:#038048;stroke-width:1.0;"/><text fill="#000000" font-family="sans-serif" font-size="14" lengthAdjust="spacing" textLength="441" x="458.5" y="1418.9844">ReaderProtocolNotSupportedException (String physicalProtocolName)</text></g><!--class CardCommunicationException--><g id="elem_CardCommunicationException"><rect codeLine="192" fill="#FEFECE" height="100.4844" id="CardCommunicationException" rx="2.5" ry="2.5" style="stroke:#D4AC0D;stroke-width:2.0;" width="443" x="936.5" y="1527.6348"/><ellipse cx="1053.75" cy="1551.2559" fill="#ADD1B2" rx="11" ry="11" style="stroke:#181818;stroke-width:1.0;"/><path d="M1056.5156,1547.1309 Q1056.6719,1546.9121 1056.8594,1546.8027 Q1057.0469,1546.6934 1057.2656,1546.6934 Q1057.6406,1546.6934 1057.875,1546.959 Q1058.1094,1547.209 1058.1094,1547.8184 L1058.1094,1549.2715 Q1058.1094,1549.8809 1057.875,1550.1465 Q1057.6406,1550.4121 1057.2656,1550.4121 Q1056.9219,1550.4121 1056.7188,1550.209 Q1056.5156,1550.0215 1056.4063,1549.5059 Q1056.3594,1549.1465 1056.1719,1548.959 Q1055.8438,1548.584 1055.2344,1548.3652 Q1054.625,1548.1465 1054,1548.1465 Q1053.2344,1548.1465 1052.5938,1548.4746 Q1051.9688,1548.8027 1051.4688,1549.5527 Q1050.9844,1550.3027 1050.9844,1551.334 L1050.9844,1552.4277 Q1050.9844,1553.6621 1051.875,1554.4902 Q1052.7656,1555.3027 1054.3594,1555.3027 Q1055.2969,1555.3027 1055.9531,1555.0527 Q1056.3438,1554.8965 1056.7656,1554.459 Q1057.0313,1554.1934 1057.1719,1554.1152 Q1057.3281,1554.0371 1057.5313,1554.0371 Q1057.8594,1554.0371 1058.1094,1554.3027 Q1058.375,1554.5527 1058.375,1554.8965 Q1058.375,1555.2402 1058.0313,1555.6465 Q1057.5313,1556.2246 1056.7344,1556.5527 Q1055.6563,1557.0059 1054.3594,1557.0059 Q1052.8438,1557.0059 1051.6406,1556.3809 Q1050.6563,1555.8809 1049.9688,1554.8184 Q1049.2813,1553.7402 1049.2813,1552.459 L1049.2813,1551.3027 Q1049.2813,1549.9746 1049.8906,1548.834 Q1050.5156,1547.6777 1051.6094,1547.0684 Q1052.7031,1546.4434 1053.9375,1546.4434 Q1054.6719,1546.4434 1055.3125,1546.6152 Q1055.9688,1546.7715 1056.5156,1547.1309 Z " fill="#000000"/><ellipse cx="1079.25" cy="1550.7559" fill="#84BE84" rx="3" ry="3" style="stroke:#038048;stroke-width:1.0;"/><text fill="#000000" font-family="sans-serif" font-size="14" lengthAdjust="spacing" textLength="129" x="1115.25" y="1547.7422">&#171;RuntimeException&#187;</text><text fill="#000000" font-family="sans-serif" font-size="14" lengthAdjust="spacing" textLength="189" x="1085.25" y="1566.3633">CardCommunicationException</text><line style="stroke:#D4AC0D;stroke-width:2.0;" x1="937.5" x2="1378.5" y1="1574.877" y2="1574.877"/><line style="stroke:#D4AC0D;stroke-width:2.0;" x1="937.5" x2="1378.5" y1="1582.877" y2="1582.877"/><ellipse cx="947.5" cy="1597.6875" fill="#84BE84" rx="3" ry="3" style="stroke:#038048;stroke-width:1.0;"/><text fill="#000000" font-family="sans-serif" font-size="14" lengthAdjust="spacing" textLength="301" x="956.5" y="1601.9844">CardCommunicationException (String message)</text><ellipse cx="947.5" cy="1616.3086" fill="#84BE84" rx="3" ry="3" style="stroke:#038048;stroke-width:1.0;"/><text fill="#000000" font-family="sans-serif" font-size="14" lengthAdjust="spacing" textLength="417" x="956.5" y="1620.6055">CardCommunicationException (String message, Throwable cause)</text></g><!--reverse link CardReader to ObservableCardReader--><g id="link_CardReader_ObservableCardReader"><path d="M2095.3,734.2778 C2151.94,758.0138 2223.55,788.0268 2293.91,817.5108 " fill="none" id="CardReader-backto-ObservableCardReader" style="stroke:#181818;stroke-width:2.0;"/><polygon fill="none" points="2092.43,740.6648,2076.69,726.4788,2097.84,727.7528,2092.43,740.6648" style="stroke:#181818;stroke-width:2.0;"/></g><!--reverse link CardReader to ConfigurableCardReader--><g id="link_CardReader_ConfigurableCardReader"><path d="M1963.08,758.1368 C1951.31,797.7998 1936.88,846.4288 1926.19,882.4308 " fill="none" id="CardReader-backto-ConfigurableCardReader" style="stroke:#181818;stroke-width:2.0;"/><polygon fill="none" points="1956.39,756.0868,1968.79,738.9048,1969.81,760.0698,1956.39,756.0868" style="stroke:#181818;stroke-width:2.0;"/></g><!--reverse link CardSelector to BasicCardSelector--><g id="link_CardSelector_BasicCardSelector"><path d="M366.447,734.7728 C473.785,765.6518 596.754,802.9198 619,817.6348 C655.941,842.0708 686.602,884.3918 703.316,910.5998 " fill="none" id="CardSelector-backto-BasicCardSelector" style="stroke:#181818;stroke-width:2.0;"/><polygon fill="none" points="364.258,741.4268,346.961,729.1868,368.116,727.9688,364.258,741.4268" style="stroke:#181818;stroke-width:2.0;"/></g><!--reverse link CardSelector to IsoCardSelector--><g id="link_CardSelector_IsoCardSelector"><path d="M225.863,747.7598 C242.096,782.7888 262.641,827.1228 279.594,863.7068 " fill="none" id="CardSelector-backto-IsoCardSelector" style="stroke:#181818;stroke-width:2.0;"/><polygon fill="none" points="219.397,750.4548,217.339,729.3658,232.099,744.5688,219.397,750.4548" style="stroke:#181818;stroke-width:2.0;"/></g><!--reverse link ObservableCardReader to NotificationMode--><g id="link_ObservableCardReader_NotificationMode"><path codeLine="200" d="M2713.36,1062.1228 C2748.7,1093.5218 2784.13,1125.0008 2811.08,1148.9458 " fill="none" id="ObservableCardReader-backto-NotificationMode" style="stroke:#181818;stroke-width:2.0;"/><ellipse cx="2707.8819" cy="1057.2537" fill="#FFFFFF" rx="8" ry="8" style="stroke:#181818;stroke-width:2.0;"/><line style="stroke:#181818;stroke-width:2.0;" x1="2713.8638" x2="2701.9" y1="1062.5657" y2="1051.9418"/><line style="stroke:#181818;stroke-width:2.0;" x1="2702.5699" x2="2713.1939" y1="1063.2356" y2="1051.2719"/></g><!--link DetectionMode to ObservableCardReader--><g id="link_DetectionMode_ObservableCardReader"><path codeLine="201" d="M2962.64,729.2428 C2956.55,732.7888 2950.28,736.0148 2944,738.6348 C2875.62,767.1738 2847.52,738.1088 2780,768.6348 C2756.3,779.3508 2732.92,793.3288 2710.86,808.6148 " fill="none" id="DetectionMode-to-ObservableCardReader" style="stroke:#181818;stroke-width:2.0;"/><ellipse cx="2704.9168" cy="812.8496" fill="#FFFFFF" rx="8" ry="8" style="stroke:#181818;stroke-width:2.0;"/><line style="stroke:#181818;stroke-width:2.0;" x1="2711.4336" x2="2698.4" y1="808.2094" y2="817.4898"/><line style="stroke:#181818;stroke-width:2.0;" x1="2709.557" x2="2700.2766" y1="819.3664" y2="806.3328"/></g><!--reverse link DetectionMode to ObservableCardReader--><g id="link_DetectionMode_ObservableCardReader"><path codeLine="202" d="M2954.67,731.9568 C2951.09,734.2598 2947.51,736.5008 2944,738.6348 C2899.66,765.5648 2851.22,792.5558 2804.37,817.5038 " fill="none" id="DetectionMode-backto-ObservableCardReader" style="stroke:#27AE60;stroke-width:2.0;stroke-dasharray:7.0,7.0;"/><polygon fill="#27AE60" points="2958.87,729.2278,2949.1446,730.7826,2954.6788,731.9543,2953.5071,737.4885,2958.87,729.2278" style="stroke:#27AE60;stroke-width:2.0;"/><polygon fill="#000000" points="2893.3454,775.807,2884.0307,777.727,2886.9382,782.8354,2893.3454,775.807" style="stroke:#000000;stroke-width:1.0;"/><text fill="#000000" font-family="sans-serif" font-size="13" lengthAdjust="spacing" textLength="21" x="2898" y="783.6631">use</text></g><!--link ObservableCardReader to CardReaderObservationExceptionHandlerSpi--><g id="link_ObservableCardReader_CardReaderObservationExceptionHandlerSpi"><path codeLine="203" d="M2326.46,1051.7558 C2246.76,1089.6038 2164.22,1128.8008 2107.23,1155.8608 " fill="none" id="ObservableCardReader-to-CardReaderObservationExceptionHandlerSpi" style="stroke:#27AE60;stroke-width:2.0;stroke-dasharray:7.0,7.0;"/><polygon fill="#27AE60" points="2102.48,1158.1148,2112.3258,1157.8713,2106.9975,1155.9718,2108.897,1150.6434,2102.48,1158.1148" style="stroke:#27AE60;stroke-width:2.0;"/><polygon fill="#000000" points="2254.4834,1093.4251,2263.9147,1092.1999,2261.3933,1086.8903,2254.4834,1093.4251" style="stroke:#000000;stroke-width:1.0;"/><text fill="#000000" font-family="sans-serif" font-size="13" lengthAdjust="spacing" textLength="21" x="2268" y="1096.6631">use</text></g><!--reverse link CardReaderEvent to CardReaderEventType--><g id="link_CardReaderEvent_CardReaderEventType"><path codeLine="205" d="M2052.84,1452.7848 C2052.11,1457.7938 2051.47,1462.7848 2051,1467.6348 C2049.45,1483.5088 2050.5,1500.6238 2052.63,1516.4818 " fill="none" id="CardReaderEvent-backto-CardReaderEventType" style="stroke:#181818;stroke-width:2.0;"/><ellipse cx="2054.0112" cy="1445.722" fill="#FFFFFF" rx="8" ry="8" style="stroke:#181818;stroke-width:2.0;"/><line style="stroke:#181818;stroke-width:2.0;" x1="2052.7025" x2="2055.32" y1="1453.6142" y2="1437.8298"/><line style="stroke:#181818;stroke-width:2.0;" x1="2046.119" x2="2061.9035" y1="1444.4132" y2="1447.0308"/></g><!--link CardReaderEvent to CardReaderEventType--><g id="link_CardReaderEvent_CardReaderEventType"><path codeLine="206" d="M2066.73,1437.8008 C2066.61,1460.4788 2066.47,1487.4248 2066.34,1511.5158 " fill="none" id="CardReaderEvent-to-CardReaderEventType" style="stroke:#3498DB;stroke-width:2.0;stroke-dasharray:7.0,7.0;"/><polygon fill="#3498DB" points="2066.32,1516.6108,2070.3662,1507.6315,2066.3457,1511.6108,2062.3663,1507.5903,2066.32,1516.6108" style="stroke:#3498DB;stroke-width:2.0;"/><polygon fill="#000000" points="2070.9735,1482.2802,2073.9603,1473.2508,2068.0825,1473.2197,2070.9735,1482.2802" style="stroke:#000000;stroke-width:1.0;"/><text fill="#000000" font-family="sans-serif" font-size="13" lengthAdjust="spacing" textLength="40" x="2080" y="1482.6631">provide</text></g><!--reverse link ScheduledCardSelectionsResponse to CardReaderEvent--><g id="link_ScheduledCardSelectionsResponse_CardReaderEvent"><path codeLine="207" d="M1476.24,715.9628 C1491.87,810.4198 1555.11,1117.6118 1736,1276.6348 C1763.13,1300.4808 1795.62,1319.0788 1829.5,1333.5798 " fill="none" id="ScheduledCardSelectionsResponse-backto-CardReaderEvent" style="stroke:#3498DB;stroke-width:2.0;stroke-dasharray:7.0,7.0;"/><polygon fill="#3498DB" points="1475.4,710.8358,1472.9017,720.3625,1476.2053,715.7705,1480.7973,719.074,1475.4,710.8358" style="stroke:#3498DB;stroke-width:2.0;"/><polygon fill="#000000" points="1602.5175,1086.9401,1604.4573,1096.2507,1609.5595,1093.3324,1602.5175,1086.9401" style="stroke:#000000;stroke-width:1.0;"/><text fill="#000000" font-family="sans-serif" font-size="13" lengthAdjust="spacing" textLength="40" x="1614" y="1096.6631">provide</text></g><!--link CardSelectionManagerFactory to CardSelectionManager--><g id="link_CardSelectionManagerFactory_CardSelectionManager"><path codeLine="209" d="M1101,149.6448 C1101,168.9948 1101,195.1948 1101,223.2048 " fill="none" id="CardSelectionManagerFactory-to-CardSelectionManager" style="stroke:#3498DB;stroke-width:2.0;stroke-dasharray:7.0,7.0;"/><polygon fill="#3498DB" points="1101,228.4648,1105,219.4648,1101,223.4648,1097,219.4648,1101,228.4648" style="stroke:#3498DB;stroke-width:2.0;"/><polygon fill="#000000" points="1106,194.2803,1108.9389,185.2352,1103.0611,185.2352,1106,194.2803" style="stroke:#000000;stroke-width:1.0;"/><text fill="#000000" font-family="sans-serif" font-size="13" lengthAdjust="spacing" textLength="40" x="1115" y="194.6631">provide</text></g><!--link CardSelectionResult to SmartCard--><g id="link_CardSelectionResult_SmartCard"><path codeLine="211" d="M630.128,738.7298 C656.402,756.1138 687.138,774.4588 717,787.6348 C763.754,808.2648 782.623,794.1298 828,817.6348 C863.396,835.9698 897.94,864.4448 923.858,888.5938 " fill="none" id="CardSelectionResult-to-SmartCard" style="stroke:#3498DB;stroke-width:2.0;stroke-dasharray:7.0,7.0;"/><polygon fill="#3498DB" points="927.618,892.1228,923.7945,883.0464,923.9728,888.7004,918.3188,888.8787,927.618,892.1228" style="stroke:#3498DB;stroke-width:2.0;"/><polygon fill="#000000" points="726.4538,780.5526,719.7325,773.824,717.0611,779.0598,726.4538,780.5526" style="stroke:#000000;stroke-width:1.0;"/><text fill="#000000" font-family="sans-serif" font-size="13" lengthAdjust="spacing" textLength="40" x="731" y="783.6631">provide</text></g><!--reverse link BasicCardSelector to CardSelectorFactory--><g id="link_BasicCardSelector_CardSelectorFactory"><path codeLine="213" d="M712.046,963.7068 C704.124,1008.5968 688.561,1096.7878 679.343,1149.0248 " fill="none" id="BasicCardSelector-backto-CardSelectorFactory" style="stroke:#3498DB;stroke-width:2.0;stroke-dasharray:7.0,7.0;"/><polygon fill="#3498DB" points="712.927,958.7138,707.4245,966.8821,712.0585,963.6378,715.3029,968.2718,712.927,958.7138" style="stroke:#3498DB;stroke-width:2.0;"/><polygon fill="#000000" points="696.8689,1086.3564,692.4028,1094.7531,698.1912,1095.7745,696.8689,1086.3564" style="stroke:#000000;stroke-width:1.0;"/><text fill="#000000" font-family="sans-serif" font-size="13" lengthAdjust="spacing" textLength="40" x="705" y="1096.6631">provide</text></g><!--reverse link IsoCardSelector to CardSelectorFactory--><g id="link_IsoCardSelector_CardSelectorFactory"><path codeLine="214" d="M414.582,1008.2978 C478.876,1053.8378 559.448,1110.9108 613.158,1148.9548 " fill="none" id="IsoCardSelector-backto-CardSelectorFactory" style="stroke:#3498DB;stroke-width:2.0;stroke-dasharray:7.0,7.0;"/><polygon fill="#3498DB" points="410.372,1005.3148,415.4042,1013.781,414.4521,1008.2049,420.0283,1007.2528,410.372,1005.3148" style="stroke:#3498DB;stroke-width:2.0;"/><polygon fill="#000000" points="535.9199,1088.3902,541.6022,1096.0166,544.9996,1091.2202,535.9199,1088.3902" style="stroke:#000000;stroke-width:1.0;"/><text fill="#000000" font-family="sans-serif" font-size="13" lengthAdjust="spacing" textLength="40" x="549" y="1096.6631">provide</text></g><!--reverse link IsoCardSelector to FileOccurrence--><g id="link_IsoCardSelector_FileOccurrence"><path codeLine="216" d="M239.381,1017.3688 C224.745,1037.2898 210.851,1059.3218 201,1081.6348 C194.279,1096.8588 189.816,1114.2398 186.853,1130.5818 " fill="none" id="IsoCardSelector-backto-FileOccurrence" style="stroke:#181818;stroke-width:2.0;"/><ellipse cx="243.7286" cy="1011.6301" fill="#FFFFFF" rx="8" ry="8" style="stroke:#181818;stroke-width:2.0;"/><line style="stroke:#181818;stroke-width:2.0;" x1="238.8972" x2="248.56" y1="1018.0064" y2="1005.2538"/><line style="stroke:#181818;stroke-width:2.0;" x1="237.3523" x2="250.1049" y1="1006.7987" y2="1016.4615"/></g><!--link IsoCardSelector to FileOccurrence--><g id="link_IsoCardSelector_FileOccurrence"><path codeLine="217" d="M276.204,1005.3148 C256.84,1043.0078 233.082,1089.2538 214.144,1126.1188 " fill="none" id="IsoCardSelector-to-FileOccurrence" style="stroke:#27AE60;stroke-width:2.0;stroke-dasharray:7.0,7.0;"/><polygon fill="#27AE60" points="211.859,1130.5668,219.5292,1124.3887,214.1435,1126.1192,212.4131,1120.7335,211.859,1130.5668" style="stroke:#27AE60;stroke-width:2.0;"/><polygon fill="#000000" points="237.7152,1095.7277,244.4626,1089.0252,239.2343,1086.3393,237.7152,1095.7277" style="stroke:#000000;stroke-width:1.0;"/><text fill="#000000" font-family="sans-serif" font-size="13" lengthAdjust="spacing" textLength="21" x="249" y="1096.6631">use</text></g><!--reverse link IsoCardSelector to FileControlInformation--><g id="link_IsoCardSelector_FileControlInformation"><path codeLine="218" d="M312.962,1020.5698 C315.046,1046.6928 319.177,1075.2428 327,1100.6348 C332.105,1117.2038 340.52,1134.1388 349.004,1148.7818 " fill="none" id="IsoCardSelector-backto-FileControlInformation" style="stroke:#181818;stroke-width:2.0;"/><ellipse cx="312.4908" cy="1013.4941" fill="#FFFFFF" rx="8" ry="8" style="stroke:#181818;stroke-width:2.0;"/><line style="stroke:#181818;stroke-width:2.0;" x1="313.0227" x2="311.959" y1="1021.4764" y2="1005.5118"/><line style="stroke:#181818;stroke-width:2.0;" x1="304.5085" x2="320.4732" y1="1014.0259" y2="1012.9622"/></g><!--link IsoCardSelector to FileControlInformation--><g id="link_IsoCardSelector_FileControlInformation"><path codeLine="219" d="M329.762,1005.3148 C340.985,1049.3458 355.184,1105.0498 365.071,1143.8358 " fill="none" id="IsoCardSelector-to-FileControlInformation" style="stroke:#27AE60;stroke-width:2.0;stroke-dasharray:7.0,7.0;"/><polygon fill="#27AE60" points="366.376,1148.9548,368.03,1139.2458,365.1415,1144.1096,360.2777,1141.221,366.376,1148.9548" style="stroke:#27AE60;stroke-width:2.0;"/><polygon fill="#000000" points="359.235,1096.1253,359.8487,1086.6346,354.153,1088.0864,359.235,1096.1253" style="stroke:#000000;stroke-width:1.0;"/><text fill="#000000" font-family="sans-serif" font-size="13" lengthAdjust="spacing" textLength="21" x="367" y="1096.6631">use</text></g><!--link CardSelectionManager to CardSelector--><g id="link_CardSelectionManager_CardSelector"><path codeLine="221" d="M603.934,554.1448 C503.197,586.7748 405.516,618.4148 331.227,642.4848 " fill="none" id="CardSelectionManager-to-CardSelector" style="stroke:#27AE60;stroke-width:2.0;stroke-dasharray:7.0,7.0;"/><polygon fill="#27AE60" points="326.368,644.0548,336.1627,645.0858,331.1245,642.5135,333.6968,637.4753,326.368,644.0548" style="stroke:#27AE60;stroke-width:2.0;"/><polygon fill="#000000" points="491.2433,596.8211,500.7539,596.8296,498.9425,591.2378,491.2433,596.8211" style="stroke:#000000;stroke-width:1.0;"/><text fill="#000000" font-family="sans-serif" font-size="13" lengthAdjust="spacing" textLength="21" x="505" y="600.6631">use</text></g><!--link CardSelectionManager to CardSelectionExtension--><g id="link_CardSelectionManager_CardSelectionExtension"><path codeLine="222" d="M841.595,555.6548 C782.647,612.4148 749.849,677.2878 798,738.6348 C889.247,854.8888 992.53,744.5898 1121,817.6348 C1160.14,839.8908 1194.76,879.4308 1215.29,906.0858 " fill="none" id="CardSelectionManager-to-CardSelectionExtension" style="stroke:#27AE60;stroke-width:2.0;stroke-dasharray:7.0,7.0;"/><polygon fill="#27AE60" points="1218.47,910.2488,1216.2054,900.6638,1215.4431,906.2691,1209.8379,905.5068,1218.47,910.2488" style="stroke:#27AE60;stroke-width:2.0;"/><polygon fill="#000000" points="806.6472,690.2005,802.0597,681.8695,798.039,686.1571,806.6472,690.2005" style="stroke:#000000;stroke-width:1.0;"/><text fill="#000000" font-family="sans-serif" font-size="13" lengthAdjust="spacing" textLength="21" x="812" y="692.1631">use</text></g><!--link CardSelectionManager to ScheduledCardSelectionsResponse--><g id="link_CardSelectionManager_ScheduledCardSelectionsResponse"><path codeLine="223" d="M1307.11,555.6348 C1358.35,596.0348 1407.46,634.7548 1438.56,659.2668 " fill="none" id="CardSelectionManager-to-ScheduledCardSelectionsResponse" style="stroke:#27AE60;stroke-width:2.0;stroke-dasharray:7.0,7.0;"/><polygon fill="#27AE60" points="1442.63,662.4818,1438.0457,653.7649,1438.706,659.3831,1433.0878,660.0434,1442.63,662.4818" style="stroke:#27AE60;stroke-width:2.0;"/><polygon fill="#000000" points="1371.9265,598.3758,1366.6429,590.468,1363.0039,595.0839,1371.9265,598.3758" style="stroke:#000000;stroke-width:1.0;"/><text fill="#000000" font-family="sans-serif" font-size="13" lengthAdjust="spacing" textLength="21" x="1377" y="600.6631">use</text></g><!--link CardSelectionManager to CardSelectionResult--><g id="link_CardSelectionManager_CardSelectionResult"><path codeLine="224" d="M771.213,555.6748 C752.773,565.6348 734.595,575.6548 717,585.6348 C691.992,599.8148 665.406,616.2148 641.357,631.5848 " fill="none" id="CardSelectionManager-to-CardSelectionResult" style="stroke:#3498DB;stroke-width:2.0;stroke-dasharray:7.0,7.0;"/><polygon fill="#3498DB" points="636.898,634.4448,646.6324,632.9473,641.1052,631.743,642.3095,626.2158,636.898,634.4448" style="stroke:#3498DB;stroke-width:2.0;"/><polygon fill="#000000" points="717.6834,597.8036,726.9754,595.7761,724.009,590.7016,717.6834,597.8036" style="stroke:#000000;stroke-width:1.0;"/><text fill="#000000" font-family="sans-serif" font-size="13" lengthAdjust="spacing" textLength="40" x="731" y="600.6631">provide</text></g><!--link CardSelectionManager to CardReader--><g id="link_CardSelectionManager_CardReader"><path codeLine="225" d="M1598.15,527.3248 C1690.99,556.8648 1786.34,590.3048 1874,626.6348 C1878.34,628.4348 1882.73,630.3448 1887.13,632.3448 " fill="none" id="CardSelectionManager-to-CardReader" style="stroke:#27AE60;stroke-width:2.0;stroke-dasharray:7.0,7.0;"/><polygon fill="#27AE60" points="1891.92,634.5548,1885.4379,627.1397,1887.384,632.4513,1882.0724,634.3974,1891.92,634.5548" style="stroke:#27AE60;stroke-width:2.0;"/><polygon fill="#000000" points="1823.6993,596.9881,1816.202,591.1365,1814.1944,596.6608,1823.6993,596.9881" style="stroke:#000000;stroke-width:1.0;"/><text fill="#000000" font-family="sans-serif" font-size="13" lengthAdjust="spacing" textLength="21" x="1828" y="600.6631">use</text></g><!--link CardSelectionManager to NotificationMode--><g id="link_CardSelectionManager_NotificationMode"><path codeLine="226" d="M1598.29,415.5348 C2160.5,446.2948 3010.33,511.3448 3104,626.6348 C3238.81,792.5608 3012.51,1043.7378 2907.3,1145.4758 " fill="none" id="CardSelectionManager-to-NotificationMode" style="stroke:#27AE60;stroke-width:2.0;stroke-dasharray:7.0,7.0;"/><polygon fill="#27AE60" points="2903.61,1149.0308,2912.8651,1145.6629,2907.2092,1145.5601,2907.3121,1139.9042,2903.61,1149.0308" style="stroke:#27AE60;stroke-width:2.0;"/><polygon fill="#000000" points="3153.3669,780.7154,3146.8984,773.7434,3144.0357,778.877,3153.3669,780.7154" style="stroke:#000000;stroke-width:1.0;"/><text fill="#000000" font-family="sans-serif" font-size="13" lengthAdjust="spacing" textLength="21" x="3158" y="783.6631">use</text></g><!--link CardSelectionManager to DetectionMode--><g id="link_CardSelectionManager_DetectionMode"><path codeLine="227" d="M1598.14,425.4248 C2059.43,460.8948 2709.05,526.5048 2944,626.6348 C2952.6,630.3048 2961.01,635.2848 2968.89,640.8148 " fill="none" id="CardSelectionManager-to-DetectionMode" style="stroke:#27AE60;stroke-width:2.0;stroke-dasharray:7.0,7.0;"/><polygon fill="#27AE60" points="2973.21,643.9448,2968.2679,635.4256,2969.1608,641.0116,2963.5748,641.9044,2973.21,643.9448" style="stroke:#27AE60;stroke-width:2.0;"/><polygon fill="#000000" points="2873.9394,596.0564,2865.4602,591.7491,2864.5477,597.5557,2873.9394,596.0564" style="stroke:#000000;stroke-width:1.0;"/><text fill="#000000" font-family="sans-serif" font-size="13" lengthAdjust="spacing" textLength="21" x="2878" y="600.6631">use</text></g><!--link CardSelectionManager to InvalidCardResponseException--><g id="link_CardSelectionManager_InvalidCardResponseException"><path codeLine="228" d="M1087.67,555.6348 C1085.43,582.9048 1083.25,609.4148 1081.46,631.2948 " fill="none" id="CardSelectionManager-to-InvalidCardResponseException" style="stroke:#3498DB;stroke-width:2.0;stroke-dasharray:7.0,7.0;"/><polygon fill="#3498DB" points="1081.03,636.4748,1085.7615,627.8369,1081.444,631.4919,1077.789,627.1744,1081.03,636.4748" style="stroke:#3498DB;stroke-width:2.0;"/><polygon fill="#000000" points="1089.591,600.2635,1093.26,591.4892,1087.4018,591.0083,1089.591,600.2635" style="stroke:#000000;stroke-width:1.0;"/><text fill="#000000" font-family="sans-serif" font-size="13" lengthAdjust="spacing" textLength="31" x="1099" y="600.6631">throw</text></g><!--link ObservableCardReader to CardReaderObserverSpi--><g id="link_ObservableCardReader_CardReaderObserverSpi"><path codeLine="230" d="M2561.42,1051.9418 C2558.43,1088.2698 2555.34,1125.8188 2553.13,1152.6698 " fill="none" id="ObservableCardReader-to-CardReaderObserverSpi" style="stroke:#27AE60;stroke-width:2.0;stroke-dasharray:7.0,7.0;"/><polygon fill="#27AE60" points="2552.7,1157.8938,2557.4242,1149.2519,2553.1098,1152.9106,2549.4511,1148.5962,2552.7,1157.8938" style="stroke:#27AE60;stroke-width:2.0;"/><polygon fill="#000000" points="2562.5899,1096.2634,2566.2608,1087.4899,2560.4028,1087.0078,2562.5899,1096.2634" style="stroke:#000000;stroke-width:1.0;"/><text fill="#000000" font-family="sans-serif" font-size="13" lengthAdjust="spacing" textLength="21" x="2572" y="1096.6631">use</text></g><!--link CardReaderObserverSpi to CardReaderEvent--><g id="link_CardReaderObserverSpi_CardReaderEvent"><path codeLine="232" d="M2468.07,1225.2048 C2394.76,1254.3438 2285.96,1297.5938 2200.17,1331.6978 " fill="none" id="CardReaderObserverSpi-to-CardReaderEvent" style="stroke:#27AE60;stroke-width:2.0;stroke-dasharray:7.0,7.0;"/><polygon fill="#27AE60" points="2195.33,1333.6228,2205.1707,1334.0234,2199.9779,1331.7796,2202.2217,1326.5868,2195.33,1333.6228" style="stroke:#27AE60;stroke-width:2.0;"/><polygon fill="#000000" points="2308.3536,1296.1272,2317.8446,1295.5171,2315.6734,1290.055,2308.3536,1296.1272" style="stroke:#000000;stroke-width:1.0;"/><text fill="#000000" font-family="sans-serif" font-size="13" lengthAdjust="spacing" textLength="21" x="2322" y="1299.6631">use</text></g><!--link CardSelectorFactory to ReaderProtocolNotSupportedException--><!--link ReaderProtocolNotSupportedException to ReaderCommunicationException--><!--link ReaderCommunicationException to CardCommunicationException--><!--SRC=[dHfhJ-Cuy7j_XGy-G7Sfi3oM1N6LqiJThQwqLTlb3jsTLY5nssZJE4fSe8VuxpTsdawSf2nVgCVpdl7Cs2rpc4jQ2Fvqqztw8VK8GtCIh1tFTD6Kc3O9a3OPeBFZq-EFwF3izEoyS_gvS_gftIAUZPYWRnsWttz7ys_u3iC7MEfquv9D428d33SaH3P1DsZ5c1_Ud9oisDgrg4i3YzeaFBRe-cGHd33pqINcfcEJZXLHAq3mCNIMNiTtJNRI-iqc2ySZIF_nTOeVFg7-b_vr_xe0FaFzi_vv_w80FaVu4b_X8lO5CgwCdc4Km9T8r_I-SLO0VqOzGp_NhtBWuM3q1pg_kFvYz7BGxpECpguq_FcK-whJGJEsTS4lR6KoP5FlWA5d6ln4pmvR8OyyeoSIX0xr45qWiDLZcxKBPAtmf-FvPc2kKSX8G2ZR-aJhqG2Yf7EFedtjsj2DlX9n827sBhGhVAb4r6MEXl6fTwP4n18YxbsVWsXX7nuPNDySbUwQOHZXprUEzTCZOOZoRBKWeC_vBU3qG5oNFfUucDRFPK0tdXrBxkC-rh5QM8nYN6ZwgG4ifyHku7Tx6n2xsmMs1ZQmNiCsnSHN5v07hPK3YPu0CpU1rCacyE6WD0ds1PgGVO7r_bMjx0pv2xwuq8n4V0gND7XqDytoEPAmfzU_xFTgfIUeSQx7icEe9FbhG8ZNA7h9iOJiw_uLxjVAJd7ZCnKBJy15wTjTX6-5R0to23V95gXd-Zc-p8lUofAZcgYFHtCycaTL4Stmz7u0YSheah0LLDPNKNe_MbmAsllmOS7BxeSFSU7LV6SIK9y4p27X7Z93945YQi7XDMGcSwmtbF6OiS3nbkWUJsU3yKYWlaNY70_KN9WML2OpiECYdsCMKuAE8tDDq64xstga54go1tLTfnupBQZ-e7a51Z2V12Ga7aimIWgC7qCIFF4wdrE5l33eBM65Ta_KiL58MBGJCs1GBF6BHNp-uPlfsIuG7MOCQj1clWCIPLYxLP1dsdR4GiKsua7Zp-q2QK3Mz8dyAhK5pamHPK-35n7qHOz9sqL7CJDWNAH16B6uYUWm_NW73HXwSsxLBf5Jlq1TH17vvln7ed1J2nA2PqzLn25l5ivo4xm_vf1j3eIGW116OO10Xt6YkdJfMAQRm7dI7YNfxw-sON6pQ85DtiEwhJee-YO88CypUibwuctMIFPwPjmKJx0s7uo-ff0PB8PuzcqyBp4PKUOiG2C57stuf_OmIvTtsbp_XeqVuz7meUdmuoT-HfKL848erO4vb3Y-BVxdDsRMYjWmgzcS-uouaSdXb8G-_1CqJIWAt-rnEQ825fGMyZF5TMrg_1YCeCxEiI53Ot_8m2c-6z_dWDz7shqs66gz8Sxf08LxCX2VV6WSvfAWFG08TGAX2Z_0hzB1BBauVzOpr2m7gPSFnM4nDfQypXp-jelOohfNfqcU54Qp83qJ5bH-EAu3Rq7JOnQaQNA4vYiOvFZnHgIevrlhBUg3GwpFULVA79haWN1hcAoqL4cWIe35HDwx5TU96p5yI4brPth0FUZ3-QR1DasWYlry39jO8WjCPYHPLLOx5QcYcTrjNER0r9RXyiCjbVEyHhpq-m616IMZY98cMaAqhDpYIDO3yrehhXUM4boiZx6aAI2Q8T5NfkSHLrOkJWFoujEetQHSPnRnpC2XfTRbh6jmarHJxURbIkHGGS2DeAveGXMSSmqcErJbjXdNg0ecoh65Ae17gARP7fNBkLS0j1jCDOEGDDRJ9eImVhyopd6tBz0f0wvIFag09YP97wz5gpXz5OM1LXG4sbG8UYRC4l8f4rMW3C_RdkSm2Ac2lWWzVAyzjtDfWCh0tMx9nYhZvZ39kI2fjuqdENaIidB0TXE72Ns61k8P9ZEp26QmALcIbrriB3bMM5DsjyhusCvw0GNF2_R5QDGmRunluX1Z4OrGZrj6_luNcOxT_ZK6iJC5WzquG7VfEouPMvQOKS43XuNrGbgstyMMNmC3wl9X85YRKH-gW2-KOCMmbnShgohYKz0-YuH4DvZEvigTeLQnCS9_gJScKtm_67-VDMjQDY_LME6G2itrWLgzCOohiyaOfjjOaNWkuc51MK-ld5NJeQfoNAqUf5BsvHaga_nQFvNkpTRnNLGmILV5AJIxV4Xbf2rZnIU9toU49fhlkt7ZBDuaylDdtNmMzwMSQ-vC_tO0o4lUoLE5kq9gif8lvPbLWAFnQoN9GCKHA4D9L1XuDdcfhFzDZVmrdnZ9gzBjxNJZCMTDqWj0j_iF27g2MxiTJIeHUReVLS4QXBoBQl6IShM6rWsvsFuriloLmZ8t8Mcdbua3XF_IyOJV9MQjWuftDRK7eW5Df-lrneiJH_P07KBU0xLurHvu3rcb1tOrCtt0e6osyVdSHMoLjRLuPQFhqGyRts1sCO2dI4sKghVpwjPWLKTeTwBA-1o8-wuMXjHo18kmrL9U7ZvsEgNRG1Ncnk_8rmerul76F-uMxX_xqNTHDmXqHDqAEg3Q-GMXmB1LVBZWTYdUR4fuij3iRMS__ahjXjy0dlXZUxTCAmnjAeugJgswru14fTBzlPbJt4auXwpwDv1bju_8dlAKM-KBDNrnO5EABoBnSCdpLGc56rKOmGf9KCMqF09LCbTCIwfCAuL6ZbbaTPvg1o9ffDcLV8VaUxyQSHRLXptF872MAoOTf9q5bruYTYMihI-LLBNjFpEOyQhAWxrpeMggIdaiHSqfKOflyORQm_Xxz2MUwhnr_buvjasyVpkxTD7MBgspn5BTXrgrGqJAHEH5fwPLndREvW_3w1SSoUKXUz_UJtvbyVgMxahFj4q8nzBzOp_vTGPWjx89LoAeAyxnj-pDfBH4yZy0]--></g></svg>